{"glyphs":{"0":{"ha":716,"x_min":-2,"x_max":610,"o":"m 117 975 l 123 972 l 136 975 l 153 973 l 175 975 l 176 973 l 178 973 l 179 975 l 202 973 l 241 973 l 300 972 l 361 973 l 429 973 l 430 972 l 431 973 l 484 973 q 490 969 490 973 l 492 970 l 503 970 q 545 962 524 970 l 545 960 l 544 958 l 544 957 q 597 909 571 957 q 610 791 610 893 l 607 774 l 608 769 l 607 749 l 607 744 l 608 703 l 607 703 l 608 699 l 610 677 l 608 670 l 610 666 l 608 651 l 608 634 l 607 633 l 608 631 l 608 630 l 607 602 l 608 574 l 607 559 l 608 551 l 606 541 l 607 541 l 606 540 l 606 538 l 607 534 l 606 526 l 607 525 l 606 518 l 606 511 l 607 504 l 606 496 l 606 482 l 604 477 l 606 475 l 604 462 l 604 458 l 603 407 l 604 407 l 603 406 l 603 401 l 602 316 q 606 312 606 316 l 604 308 l 606 302 l 604 298 l 606 289 l 604 267 l 606 242 l 604 233 l 606 226 l 604 218 l 606 212 l 604 208 l 606 186 l 606 180 l 604 174 l 606 165 l 606 156 q 599 115 599 130 l 600 105 q 583 42 589 48 q 549 13 572 23 l 492 -6 l 489 -3 l 474 -3 l 467 -2 l 459 -3 l 454 -3 l 449 -2 l 439 -3 l 341 -2 l 336 -1 l 334 -2 q 212 5 222 1 q 203 1 210 1 l 150 1 l 109 -1 q 25 38 65 -1 q -2 100 -2 76 l -2 108 l -1 108 l 1 106 l 2 106 l 3 117 l 6 117 l 7 109 l 9 109 l 9 112 l 10 112 l 6 168 l 7 170 q 3 253 3 211 l 3 281 l 5 298 l 3 317 l 3 383 l 2 389 l 3 390 q 1 528 1 437 l 1 576 l -1 593 l 1 608 l 1 621 l -1 654 l 1 659 l 1 662 l -1 662 l 1 678 l 1 699 l -1 710 l 1 726 l -1 842 l -2 846 l 6 855 l 7 855 q -1 869 1 869 q 34 941 -1 899 q 117 975 70 975 m 243 734 l 243 720 l 242 705 l 243 682 l 243 616 l 241 551 l 241 393 l 239 371 l 241 367 l 239 360 l 241 317 q 238 298 241 306 l 239 293 l 239 286 l 234 285 l 234 282 l 239 282 l 239 279 q 227 271 239 271 q 222 268 222 271 l 222 267 q 239 260 222 262 l 239 257 l 238 249 l 239 245 l 238 243 l 238 242 q 242 235 240 235 l 248 235 l 260 237 l 261 235 l 262 235 l 264 237 l 265 237 l 277 235 l 281 237 l 286 235 l 288 237 l 294 235 l 308 235 l 312 237 l 319 235 l 337 235 l 345 237 l 366 233 l 367 238 l 364 243 l 367 249 l 364 257 l 367 262 l 366 264 l 366 270 l 367 275 l 366 277 l 366 278 l 367 279 l 367 281 l 366 282 l 366 283 l 367 288 l 366 292 l 367 304 l 366 313 l 367 324 l 366 338 l 367 340 l 367 341 l 366 349 l 367 351 l 366 352 l 366 353 l 367 363 l 367 366 l 366 366 l 367 379 l 367 532 l 366 533 l 367 534 l 367 541 l 368 556 l 367 567 l 368 630 l 368 633 l 367 633 l 368 640 l 368 656 l 370 711 l 368 711 q 378 729 372 729 l 378 732 l 376 730 l 367 732 l 364 732 l 355 730 l 342 732 l 327 732 l 321 730 l 316 732 l 300 732 l 298 730 l 297 732 l 254 732 l 243 734 z "},"1":{"ha":452,"x_min":0,"x_max":353,"o":"m 7 973 l 53 973 l 54 972 l 56 973 l 66 973 l 80 972 l 90 973 l 91 972 l 92 972 l 98 973 l 103 972 l 106 972 l 106 973 l 126 972 l 233 972 l 239 969 l 250 972 q 309 949 276 970 q 339 912 330 931 q 353 832 353 892 q 350 816 353 816 l 351 814 l 351 744 l 350 732 l 351 726 l 350 718 l 351 707 l 350 701 l 350 698 l 351 698 l 350 682 l 350 679 l 351 660 l 350 631 l 350 536 l 351 524 l 349 507 l 350 505 l 350 504 l 349 496 l 349 492 l 350 490 l 349 489 l 349 488 l 350 481 l 349 466 l 349 463 l 350 459 l 349 452 l 349 429 q 346 398 349 405 l 349 387 l 347 382 l 349 380 l 347 374 l 347 372 l 349 359 l 347 359 l 349 357 l 349 356 l 347 352 l 349 351 l 347 344 l 347 336 l 349 330 l 347 326 l 349 322 l 347 314 l 349 304 l 347 304 l 349 303 l 349 245 l 350 117 l 349 60 l 350 51 l 349 35 l 349 24 l 347 16 l 349 14 l 349 13 l 347 -20 l 347 -26 l 349 -39 l 347 -44 l 349 -51 l 347 -58 l 349 -63 l 346 -86 l 347 -106 l 347 -113 l 346 -140 l 347 -146 l 346 -170 l 347 -185 l 346 -192 l 347 -214 l 346 -214 q 202 -77 321 -202 q 171 -26 172 -35 l 167 -25 q 174 -41 174 -37 l 172 -43 l 170 -43 l 115 12 l 115 16 l 119 16 l 114 29 l 117 216 l 115 271 l 117 287 l 115 304 l 115 315 l 117 337 l 115 341 l 117 348 l 115 372 l 115 375 l 117 375 l 115 382 l 115 385 l 117 406 l 115 424 l 117 432 l 115 441 l 117 451 l 117 454 l 115 454 l 117 477 l 117 527 l 115 564 l 117 581 l 115 600 l 117 606 l 117 608 l 115 608 l 117 642 l 117 675 l 115 701 l 118 736 l 117 737 l 92 734 l 91 736 l 87 736 l 87 734 l 77 736 l 20 734 q 0 739 0 734 l 0 958 q 7 973 3 973 m 133 22 l 133 21 q 155 -6 136 10 l 155 -5 l 133 22 z "},"2":{"ha":831,"x_min":0,"x_max":739,"o":"m 13 972 l 121 971 l 184 971 l 185 970 l 186 971 l 203 971 l 264 970 l 275 971 l 275 970 l 276 971 l 300 970 l 302 970 l 316 971 l 317 970 l 317 968 l 319 970 l 332 970 l 337 968 l 343 970 l 349 968 l 357 970 l 374 968 l 394 970 l 400 968 l 407 970 l 471 968 l 484 968 l 491 967 l 494 970 l 508 968 l 530 970 l 530 968 l 531 970 l 566 970 l 595 968 l 602 970 q 726 895 694 970 l 730 867 l 730 854 l 728 848 l 730 844 l 727 787 l 727 537 q 718 432 727 448 q 705 408 711 427 q 622 365 655 365 l 613 366 l 591 365 l 553 366 l 531 366 l 530 365 l 528 366 l 494 366 l 492 365 l 491 366 l 417 365 l 340 365 l 272 368 l 258 368 q 255 378 255 368 q 250 368 252 378 l 242 368 l 242 279 q 236 275 242 275 l 236 273 l 242 273 l 242 237 l 243 237 l 258 243 l 262 243 q 271 237 271 243 l 272 237 q 275 241 275 237 l 340 241 q 354 235 348 235 l 354 237 l 353 241 l 354 241 l 373 239 l 382 241 l 382 239 l 385 241 l 434 239 l 450 239 l 467 241 l 484 239 l 505 239 l 505 238 q 475 234 505 234 l 465 234 l 465 231 l 471 233 l 475 231 l 477 233 l 477 231 l 478 233 l 479 233 q 535 237 535 233 l 539 235 l 588 238 l 728 238 l 728 217 l 730 208 l 728 194 l 728 66 l 727 58 l 728 50 l 728 9 l 727 -5 l 728 -7 l 736 -5 l 739 -5 l 739 -12 l 723 -12 l 724 -5 l 724 -1 l 723 -2 l 714 -2 l 709 -1 l 707 -2 l 697 -1 l 654 -1 l 632 -2 l 631 -1 l 629 -1 l 623 -2 l 622 -2 l 621 -1 l 619 -2 l 616 -2 l 614 -1 l 613 -2 l 612 -2 l 592 -1 l 588 -2 l 570 -1 l 437 -1 l 381 1 l 374 -1 l 370 1 l 360 -1 l 353 1 l 351 -1 l 350 -1 l 340 1 l 332 -1 l 316 1 l 303 1 l 298 -1 l 293 1 l 293 -3 l 288 -3 q 285 1 288 1 l 280 1 q 277 -3 277 1 l 266 1 l 255 -1 l 243 1 l 236 -1 l 179 2 l 175 1 l 175 2 l 174 1 l 140 1 l 121 -1 l 101 2 l 94 1 l 88 2 l 80 1 l 73 2 l 64 1 l 62 2 l 56 1 l 43 2 l 37 1 l 33 2 l 21 1 l 1 2 l 0 16 l 0 132 l 3 227 l 0 230 l 0 233 q 4 235 4 233 l 4 237 l 3 235 l 0 235 l 0 239 q 7 260 7 244 l 0 258 l 0 290 q 3 404 0 369 l 1 441 l 1 469 q 4 484 1 479 l 3 496 q 67 598 3 560 q 113 610 87 610 l 176 610 l 185 608 l 186 610 l 225 608 l 294 608 l 307 607 l 309 608 l 330 607 l 403 607 l 444 606 l 454 607 q 460 593 460 599 q 463 598 463 593 l 465 598 l 467 597 l 468 597 q 474 607 471 607 l 479 607 l 488 604 q 505 610 505 607 l 504 610 l 504 608 l 494 612 l 491 610 l 490 610 q 492 661 490 651 l 491 663 l 492 680 l 492 722 l 495 730 q 490 743 490 730 l 488 745 l 487 745 q 479 730 484 745 l 478 730 l 471 732 l 458 730 q 451 739 451 733 q 448 733 448 739 l 446 733 l 446 747 l 443 751 q 437 730 443 730 l 437 732 l 435 730 l 429 730 l 390 732 l 349 730 l 346 730 l 319 732 l 310 730 l 309 732 l 302 730 l 277 730 l 272 732 l 271 730 l 269 730 l 263 732 l 258 730 l 227 732 l 171 732 l 119 733 l 118 732 l 117 732 l 108 733 l 78 733 l 61 738 l 61 735 l 33 735 l 17 733 q 4 738 4 735 l 4 752 l 5 753 l 4 755 l 5 783 l 5 897 l 12 957 l 10 958 l 9 958 l 9 956 l 5 956 l 5 967 q 13 972 6 970 m 119 602 l 119 600 l 121 600 l 125 601 l 125 602 l 122 606 l 119 602 m 360 237 l 360 235 l 382 235 l 382 237 l 366 238 l 360 237 m 385 235 l 385 234 l 395 234 l 395 235 l 385 235 m 424 234 l 424 233 l 434 231 l 434 234 l 424 234 z "},"3":{"ha":837,"x_min":0,"x_max":736,"o":"m 7 975 l 60 975 l 62 973 l 63 975 l 64 975 l 122 972 l 134 973 l 189 973 l 197 972 l 199 973 l 201 973 l 201 972 l 267 973 l 477 973 l 490 972 l 492 973 l 508 972 l 549 972 l 553 969 l 553 972 l 584 970 l 609 970 q 718 917 673 970 q 735 863 735 892 l 735 851 l 734 850 l 735 848 l 735 830 l 736 810 l 734 777 l 735 772 l 734 742 l 734 701 l 725 693 l 727 677 l 728 677 l 730 689 l 734 690 l 734 671 l 731 671 l 730 672 l 728 672 l 732 650 l 731 601 l 731 592 q 676 504 731 541 l 655 493 q 612 484 629 484 l 609 484 l 614 479 l 616 479 l 616 481 q 659 468 635 481 q 713 423 699 452 q 728 360 728 390 l 728 350 l 727 349 l 728 347 l 725 155 l 724 155 l 725 154 l 725 153 l 724 138 l 725 108 q 701 43 725 83 q 605 0 662 0 l 604 0 l 595 1 l 589 0 l 580 1 l 562 0 l 559 0 l 545 1 l 535 0 l 529 1 l 517 0 l 511 0 l 484 1 l 451 0 l 384 0 l 375 1 l 374 0 l 363 1 l 252 0 l 248 0 l 242 1 l 233 0 l 63 0 q 60 5 63 5 l 59 5 q 50 0 59 0 l 38 0 l 37 1 l 35 0 l 34 0 l 17 1 l 1 0 l 0 12 l 1 47 l 1 127 l 4 127 l 1 136 l 1 238 l 4 241 l 7 241 l 8 239 l 13 241 l 21 239 l 31 241 l 32 239 l 34 239 l 35 241 l 63 239 l 206 239 l 273 237 l 313 241 l 317 241 l 317 239 l 330 241 l 451 242 l 451 238 l 452 238 q 463 243 458 243 l 468 242 l 475 243 l 479 243 l 493 242 l 494 243 l 494 245 q 489 258 491 245 l 490 258 l 493 260 l 489 260 l 489 276 l 493 300 l 489 361 l 494 364 q 483 368 494 368 q 479 375 482 375 l 477 375 q 471 368 477 368 l 456 367 q 452 381 452 371 l 451 381 l 446 367 l 439 367 q 405 372 417 372 l 389 372 l 389 371 l 413 370 l 413 367 l 359 367 l 359 370 l 380 371 l 380 372 l 368 372 l 354 371 l 354 370 l 357 370 l 357 367 l 346 367 l 346 371 q 185 364 258 364 l 183 366 l 183 367 l 163 366 l 140 366 l 130 368 l 126 367 l 126 381 l 125 409 l 126 416 l 123 438 l 123 441 l 125 441 l 123 469 l 123 518 q 129 605 123 605 l 163 608 l 178 606 l 302 608 l 317 609 l 334 608 l 343 608 l 364 609 l 370 608 l 388 609 l 393 608 l 404 609 l 413 608 l 418 609 l 420 608 l 427 609 l 435 609 l 444 608 l 450 609 q 454 604 452 604 l 459 609 l 463 609 l 463 605 q 473 609 469 609 l 480 604 q 484 609 481 609 l 488 606 l 493 609 l 490 637 l 490 684 q 498 728 490 728 l 493 735 l 492 734 l 490 734 l 483 735 l 468 734 l 463 735 l 458 734 l 402 735 q 375 741 391 741 l 374 741 q 318 738 336 741 l 311 741 l 301 739 l 246 738 l 242 739 l 238 738 l 221 739 l 210 738 l 209 739 l 195 738 l 168 738 l 168 739 l 170 741 l 170 742 l 164 745 l 163 743 l 161 743 l 5 736 l 5 833 l 7 910 l 5 910 l 7 911 l 7 913 l 5 965 l 4 970 q 7 975 7 970 m 460 598 q 458 593 460 593 l 456 593 l 455 595 l 454 595 l 454 593 l 458 591 l 462 597 l 462 598 l 460 598 m 13 125 l 13 123 l 20 116 l 20 121 q 13 125 20 123 z "},"4":{"ha":819,"x_min":-5,"x_max":724,"o":"m 87 975 l 119 973 l 142 975 l 159 973 l 167 975 q 176 972 176 974 l 178 973 l 184 973 l 186 972 l 188 973 l 214 973 l 215 972 l 219 973 l 240 972 l 240 909 l 237 872 l 237 857 q 240 836 238 836 q 237 811 237 829 l 237 777 l 239 771 l 237 766 l 237 751 l 239 749 l 237 747 l 237 644 l 233 644 l 227 642 l 227 640 q 237 634 237 638 l 237 621 l 235 608 l 236 606 l 237 606 l 247 608 l 255 606 l 277 608 l 287 606 l 291 608 l 297 606 l 319 608 l 326 608 l 332 606 l 341 608 l 418 608 l 420 606 l 421 608 l 422 608 l 449 605 l 452 608 l 471 608 l 474 611 l 473 611 l 471 610 l 464 611 l 453 610 l 449 611 l 449 614 q 454 618 449 617 l 452 622 l 453 629 l 458 629 l 458 626 l 460 616 l 463 616 l 465 633 l 465 634 q 477 638 471 634 l 479 638 l 479 618 l 478 608 q 488 604 483 604 l 489 605 l 489 610 q 482 618 482 610 l 482 674 l 484 675 l 482 677 l 482 687 l 484 692 l 482 696 l 484 696 l 482 698 l 482 703 l 484 715 l 482 726 l 484 735 l 482 735 l 484 736 l 484 836 l 485 872 l 484 873 l 485 883 l 485 919 l 486 928 l 485 929 l 486 936 l 485 943 l 486 951 l 486 952 l 485 962 l 492 965 l 490 966 l 490 972 l 506 973 l 511 972 l 513 973 l 513 975 q 529 972 529 973 l 536 973 l 555 973 l 561 972 l 562 973 l 579 972 l 581 972 l 601 973 l 602 972 l 602 973 l 604 972 l 618 973 l 625 973 l 626 972 l 627 973 l 671 972 l 722 972 l 723 970 l 724 970 l 722 746 l 720 738 l 722 728 l 720 706 l 722 705 l 720 698 l 720 602 l 718 554 l 718 550 l 716 549 l 718 547 l 718 214 l 716 212 l 718 211 l 718 200 l 716 195 l 718 193 l 718 192 l 716 180 l 718 172 l 716 171 l 716 170 l 718 168 l 718 167 l 716 153 l 718 140 l 716 115 l 716 95 l 718 82 l 716 81 l 716 79 l 718 74 l 718 71 l 716 70 l 718 66 l 718 63 l 716 63 l 718 54 l 718 -1 l 719 -35 l 718 -35 l 719 -37 l 719 -52 l 718 -53 l 719 -54 l 719 -131 l 720 -132 l 719 -134 l 719 -144 l 720 -186 l 719 -186 l 720 -187 l 720 -194 l 719 -207 l 720 -212 l 719 -212 l 720 -214 l 720 -236 l 723 -240 l 723 -247 l 720 -247 q 525 -46 525 -54 q 500 -18 512 -28 l 498 -18 l 497 -20 l 496 -20 l 484 -6 l 485 -2 q 479 3 484 3 l 479 19 l 481 20 l 479 22 l 479 63 l 481 64 l 479 66 l 479 82 l 481 88 l 479 94 l 479 107 l 478 113 l 481 121 l 479 136 l 481 146 l 479 167 l 485 248 l 481 252 l 481 261 l 482 267 l 481 272 l 481 275 l 482 276 l 481 277 l 481 279 l 482 287 l 481 307 l 481 309 q 484 332 481 326 l 482 344 q 492 360 482 360 l 493 361 q 482 368 488 368 l 481 368 l 479 357 q 449 363 462 357 l 446 360 l 441 360 l 441 361 l 442 366 l 441 366 l 437 365 l 425 366 l 421 365 l 421 366 l 424 369 l 470 369 l 475 365 l 477 372 l 477 373 l 473 372 l 454 373 l 429 372 l 425 373 l 412 372 l 363 372 l 349 370 l 337 372 l 321 370 l 320 372 l 304 370 l 251 370 q 153 373 182 370 l 146 372 l 135 373 l 102 370 q 52 391 52 380 l 27 406 q -5 477 3 436 l -5 478 l 1 485 l -5 489 l -5 553 l -3 568 l -5 569 l -5 570 l -3 618 l -3 663 l -2 665 l -3 666 l -2 675 l -2 742 l -1 747 l -2 749 l -2 751 l -1 756 l -2 762 l -1 766 l -2 774 l -1 788 l -2 795 l -1 817 l -1 867 l 1 892 l -1 899 l 5 972 l 87 975 z "},"5":{"ha":837,"x_min":-2,"x_max":739,"o":"m 19 972 l 66 971 l 101 972 l 180 970 l 186 971 l 208 970 l 224 970 l 244 971 l 262 970 l 283 971 l 295 970 l 309 971 l 309 970 l 311 971 l 314 971 l 319 970 l 321 971 l 322 971 l 323 970 l 328 970 l 328 971 l 352 970 l 370 970 l 500 966 q 572 971 524 969 l 591 970 l 604 970 l 627 971 l 628 970 l 629 970 l 638 971 l 641 971 l 645 970 l 649 971 l 711 970 l 732 970 l 736 972 l 737 972 l 739 966 l 737 936 l 737 911 l 736 896 l 737 895 l 737 893 q 734 859 734 881 l 734 745 l 733 743 l 734 742 l 734 739 q 724 729 734 729 l 618 729 l 616 730 l 615 729 l 559 729 l 519 730 l 507 729 q 494 732 494 730 l 492 730 l 468 730 l 443 732 l 438 730 l 369 733 l 361 732 l 356 733 l 335 732 l 247 732 l 245 722 l 245 701 q 243 664 245 672 l 244 663 l 245 663 l 244 661 l 244 627 l 245 625 q 243 606 243 618 l 254 602 l 261 603 l 266 602 l 266 590 l 275 600 l 277 600 l 278 590 l 278 587 l 281 587 l 281 596 l 283 603 l 298 602 l 317 603 l 361 602 l 610 602 l 615 600 l 623 602 q 661 587 661 596 l 662 589 l 663 589 q 710 543 694 574 q 726 500 726 515 l 726 463 l 727 456 l 726 447 l 726 419 l 724 418 l 726 416 l 726 378 l 728 374 l 728 297 l 727 263 l 728 262 l 728 260 l 727 248 l 727 224 l 728 218 l 727 212 l 727 201 l 728 184 l 727 163 l 727 123 l 726 115 l 728 104 q 702 39 728 71 q 606 -10 677 -10 l 594 -7 l 594 -10 q 584 -7 584 -10 l 577 -9 q 417 -5 498 -9 l 401 -6 l 206 0 l 205 1 l 203 1 l 202 0 l 188 1 l 98 1 l 93 0 l 87 1 l 31 1 l 2 0 l 2 227 q 8 236 2 234 l 42 236 l 47 237 l 49 236 l 50 236 l 52 237 l 59 236 q 72 239 72 237 l 93 237 l 123 237 l 128 239 l 132 237 l 134 239 l 141 237 l 154 237 l 155 239 l 157 239 l 157 237 l 158 239 l 159 239 l 171 237 l 172 239 l 174 239 l 179 237 l 182 237 l 182 239 l 189 237 l 209 237 l 214 239 l 220 237 l 223 237 l 223 239 l 230 237 l 236 237 l 249 239 l 258 237 l 258 239 l 260 237 l 300 237 l 308 239 q 328 236 316 236 l 332 237 l 340 236 l 359 236 l 361 237 l 362 236 l 363 236 l 368 237 l 374 236 l 382 237 l 390 236 l 403 236 l 404 237 l 406 236 l 412 236 l 413 237 l 414 236 l 416 236 l 417 237 l 424 236 l 429 237 l 437 236 l 439 236 l 444 237 l 451 236 l 471 236 l 472 229 l 475 229 l 477 236 l 482 236 l 490 237 l 492 235 l 495 235 l 498 237 q 494 248 494 243 l 494 327 q 503 332 494 329 l 503 335 q 494 342 494 339 l 494 354 q 498 357 498 354 l 498 359 l 491 361 l 491 358 l 403 358 l 401 359 l 400 358 l 382 358 l 372 359 l 359 358 l 336 358 l 335 359 l 334 358 l 291 358 l 291 355 l 283 355 l 283 358 l 267 358 l 266 359 l 264 358 l 249 358 l 222 359 l 220 358 l 219 358 l 213 361 l 210 357 l 206 359 l 203 359 l 203 358 l 179 359 l 162 359 l 162 358 l 165 358 l 165 355 l 155 355 l 155 358 l 158 358 l 158 359 l 154 359 q 149 355 154 355 l 140 354 l 134 355 l 134 358 l 140 358 l 140 359 l 132 361 l 131 359 l 117 359 l 111 361 l 106 359 l 97 359 l 96 361 l 94 359 l 92 359 l 58 361 l 28 359 q -1 370 -1 359 l -1 389 l 1 391 l -2 400 l 1 408 q -2 414 1 414 l -1 419 l -2 456 l -2 460 l -1 466 l -2 470 l -1 477 l -2 481 l 1 487 l -1 488 l -1 495 l 1 496 q -2 515 -2 503 l -2 524 l 2 529 l 1 531 l 1 545 l -2 553 l -1 559 l -2 560 l -2 562 l 2 569 l -2 581 l 1 581 l 1 585 l -2 587 l -1 597 l -1 599 l -2 600 l -2 602 l -1 603 l 1 603 l -2 624 l -1 625 l -2 633 l -2 651 l 1 651 l 1 652 l -1 667 l 1 668 l 2 668 l -2 680 l -2 685 l 1 695 l -2 703 l -2 728 l 1 730 l -1 732 l -1 739 l 1 745 l -1 749 l 2 753 l 1 754 l 2 768 l 2 815 l -2 815 l -2 818 l 1 821 l 2 820 l 3 821 l 3 823 l 2 827 l 3 828 l 3 829 l 2 831 l 2 832 l 3 841 l 2 840 l -1 840 l -1 842 l -2 842 l -1 849 l -1 863 l 1 872 l -1 879 l 1 879 l -1 883 l 1 888 l -1 895 l 1 901 l -1 901 l 1 902 l -1 909 l -1 910 l 2 913 l 1 914 l 1 919 l 2 920 l -1 935 l 2 943 l 2 971 l 19 972 m 141 359 l 141 358 l 148 358 l 148 359 l 141 359 z "},"6":{"ha":837,"x_min":-2,"x_max":737,"o":"m 735 972 l 737 966 l 737 918 l 735 888 l 737 886 l 735 873 l 734 728 l 730 728 l 677 729 l 677 732 l 673 729 l 635 729 l 617 730 l 597 729 l 572 729 l 555 730 l 534 729 l 451 729 l 430 730 l 413 729 l 402 729 l 368 730 l 367 729 l 362 730 l 279 732 l 273 732 l 265 737 l 261 737 l 261 732 l 256 732 l 256 736 l 257 737 l 257 739 l 256 739 q 248 733 252 733 l 250 722 l 248 715 l 252 703 l 248 698 l 250 696 l 250 695 q 247 671 249 671 l 248 665 l 248 605 l 250 604 l 250 602 l 260 604 l 282 604 q 285 600 285 604 l 288 600 q 291 604 288 604 l 385 604 l 420 605 l 437 604 l 461 605 l 471 604 l 481 605 l 481 604 l 482 605 l 581 604 l 612 604 l 614 601 l 621 604 q 697 572 654 604 q 722 522 722 545 q 732 453 732 484 l 731 452 l 732 445 l 732 425 l 734 416 l 732 411 l 732 408 l 734 408 l 732 394 l 732 300 l 734 294 l 732 293 l 732 292 l 734 163 l 734 102 q 679 14 734 55 q 627 0 647 0 l 509 3 l 423 1 l 382 1 l 376 3 l 375 1 l 345 3 l 245 3 l 177 0 q 133 13 153 13 l 119 13 q 85 3 98 13 q 31 35 64 3 q -1 100 -1 84 l -1 106 l 3 111 l 2 113 l 3 130 l 3 394 l 2 515 l 1 517 l 1 518 l 2 522 l 1 524 l 2 530 l 1 549 l 2 549 l 1 550 l 1 614 l 2 623 l 1 623 l 2 625 l 1 631 l 2 657 l 2 665 l 8 671 l 8 682 l 9 687 l 8 694 l 8 713 l 6 713 q 3 705 6 705 l 1 705 l 1 750 l 2 750 l 6 725 l 8 725 l 8 726 q -2 774 3 774 l -2 780 l 1 780 q -2 847 -2 799 l -2 852 l 1 852 l 1 848 l 3 848 l 3 854 q -1 857 3 857 l -2 859 l -2 860 q 33 939 -2 897 l 52 950 q 117 968 78 968 l 117 966 l 159 966 q 227 971 191 971 l 231 971 q 248 968 248 970 l 250 970 l 288 970 l 334 971 l 346 970 l 350 971 l 351 970 l 353 970 l 359 971 l 382 970 l 385 970 l 385 971 l 395 970 l 423 970 l 434 968 l 446 970 l 468 970 l 469 968 l 471 970 l 513 970 l 522 971 l 530 970 l 541 971 l 564 970 l 602 970 l 612 971 q 618 967 612 968 q 629 971 618 970 l 648 970 l 650 971 l 651 971 l 656 970 l 658 971 l 665 970 l 668 970 l 673 971 l 679 970 l 680 971 l 682 971 l 682 970 l 684 971 l 726 971 l 735 972 m 243 359 l 244 353 l 243 336 l 243 254 l 241 239 l 247 237 l 265 239 q 291 231 291 239 l 292 231 q 298 238 292 235 l 313 238 l 328 237 l 330 237 l 330 238 l 358 237 l 471 237 l 472 232 l 484 238 l 484 239 l 481 239 l 479 238 l 478 239 l 478 241 l 479 242 l 478 243 l 478 245 l 479 254 l 479 255 l 478 255 q 475 249 478 249 l 472 249 l 472 263 l 477 267 l 478 267 l 478 260 l 479 260 q 485 270 479 268 q 489 249 488 270 l 485 249 l 485 248 l 490 241 l 495 245 l 495 256 l 493 263 l 495 270 l 493 319 l 492 323 l 493 325 l 492 325 l 495 331 l 493 340 l 493 355 l 496 359 l 493 361 l 485 360 l 464 361 l 463 361 l 454 360 l 448 361 l 447 360 l 437 361 l 420 361 l 408 360 l 402 361 l 392 360 l 355 361 l 286 361 l 282 364 l 278 361 l 252 361 l 247 364 q 243 359 243 364 z "},"7":{"ha":712,"x_min":0,"x_max":616,"o":"m 8 975 l 14 974 l 23 975 l 79 975 l 80 974 l 81 975 l 103 975 l 107 974 l 114 975 l 401 972 l 492 972 q 495 968 492 968 l 498 971 l 499 970 l 510 972 q 578 943 537 972 q 609 872 609 906 l 616 814 q 613 792 613 808 l 613 772 l 614 770 l 613 769 l 613 750 l 612 738 l 613 736 l 613 735 l 612 730 l 613 705 l 614 704 l 613 703 l 614 703 l 613 701 l 613 696 l 614 694 l 612 682 l 613 674 l 612 663 l 613 654 l 612 654 l 613 650 q 608 643 613 643 l 608 642 l 610 633 l 609 629 l 612 574 l 612 571 q 608 568 608 571 l 608 562 l 612 533 l 610 529 l 612 524 l 612 517 l 610 515 l 612 514 l 612 484 l 610 483 l 612 481 l 612 473 l 610 472 l 612 471 l 612 458 l 610 457 l 612 456 l 610 419 l 610 165 l 609 137 l 610 122 l 609 122 l 610 121 l 609 100 l 609 99 l 610 83 l 609 66 l 609 62 l 610 56 l 609 47 l 609 39 l 610 30 l 609 19 l 608 -65 l 609 -72 l 608 -83 l 608 -90 l 609 -115 l 606 -134 l 608 -146 l 608 -153 l 606 -179 l 608 -187 q 602 -240 606 -232 l 604 -252 l 604 -255 l 602 -255 q 435 -83 514 -170 q 422 -62 428 -67 l 420 -62 l 420 -65 l 419 -65 q 372 -16 389 -39 q 363 4 363 -6 l 366 38 l 365 38 l 366 39 l 366 77 l 368 96 l 366 100 l 368 100 l 366 102 l 366 119 l 368 130 l 366 137 l 368 160 l 366 170 l 369 194 l 368 202 l 368 213 l 366 233 l 369 248 l 368 250 l 368 266 l 369 271 l 368 273 l 368 274 l 369 294 l 368 307 l 369 339 l 369 368 q 374 494 369 429 l 374 503 l 373 503 l 372 490 l 369 490 l 369 491 l 370 514 l 372 514 l 376 511 l 376 519 l 377 549 l 374 549 q 372 545 374 545 l 369 545 l 369 566 l 370 574 l 369 581 l 369 582 l 370 589 l 369 597 l 369 602 l 370 610 l 369 612 l 369 613 l 370 614 l 370 616 l 369 624 l 370 648 l 369 665 l 370 686 l 370 688 l 373 692 l 373 694 l 370 699 l 370 712 l 373 716 l 370 719 l 370 723 q 374 726 370 726 l 369 731 l 359 727 l 358 728 l 342 727 l 317 727 l 316 728 l 315 727 l 305 728 l 304 728 l 263 730 l 256 728 l 255 730 l 248 728 l 240 728 l 220 727 l 210 728 l 209 727 l 208 727 l 197 730 l 189 728 l 179 728 l 174 730 l 168 728 l 163 728 l 149 730 l 149 728 l 145 730 l 129 728 l 127 730 l 126 730 l 122 728 l 111 730 l 103 728 l 81 730 l 64 728 l 62 732 l 50 728 l 28 730 l 9 730 l 1 735 l 3 762 l 3 808 l 1 837 l 3 842 l 1 844 l 3 844 l 1 845 l 3 861 l 1 876 l 3 882 l 1 890 l 3 907 l 1 922 l 3 924 l 3 925 l 1 930 l 3 941 l 0 974 l 1 975 l 8 975 z "},"8":{"ha":833,"x_min":0,"x_max":731,"o":"m 516 979 l 555 977 l 586 977 q 612 969 586 969 l 636 968 l 636 963 l 652 966 q 720 905 688 966 q 727 833 727 878 l 727 656 q 722 646 727 650 l 724 637 l 724 621 l 722 616 l 724 610 q 678 519 724 559 q 665 511 665 515 l 661 511 l 654 513 q 642 500 654 500 l 635 500 l 625 502 l 623 494 l 619 494 q 608 505 610 494 q 591 493 595 498 l 591 492 l 594 489 l 631 492 q 697 460 657 492 q 726 394 726 430 q 731 273 731 375 l 730 154 l 731 126 l 730 126 l 731 125 l 731 123 q 661 16 731 48 q 627 6 647 6 l 618 7 l 616 6 l 612 7 l 612 11 l 607 11 q 604 5 607 5 l 593 5 l 562 3 q 554 9 562 9 l 548 6 l 543 7 l 456 2 l 441 3 l 437 2 l 435 3 l 412 2 l 385 2 l 360 1 l 346 2 q 334 -1 334 1 l 332 1 l 313 1 l 300 -1 l 296 1 l 289 -1 l 285 1 l 280 -1 l 279 1 l 269 -1 l 252 -1 l 236 -2 l 236 -1 l 235 -2 l 219 -1 l 131 1 l 123 6 q 120 1 123 1 l 117 1 q 41 27 77 1 q 14 68 39 36 q 1 100 3 86 l 4 108 l 3 130 l 3 149 l 1 159 l 3 159 l 1 160 l 1 170 l 3 171 l 1 175 l 3 184 l 1 185 l 3 191 l 7 262 q 3 278 3 262 l 1 278 l 3 279 l 3 296 l 1 298 l 3 302 l 1 308 l 3 324 l 3 333 q 20 428 3 412 q 71 473 34 458 l 79 472 q 109 484 88 484 q 120 478 120 484 l 120 477 l 121 477 q 124 484 121 484 l 127 486 l 119 492 q 110 488 110 490 q 47 511 79 488 q 13 551 29 517 q 1 610 1 587 l 3 651 l 0 740 l 1 741 l 0 749 l 0 854 q 26 916 0 891 l 25 916 l 21 911 l 18 911 l 18 913 q 26 930 18 920 l 31 930 l 32 928 l 33 928 q 100 972 65 972 l 110 972 l 115 969 l 120 973 l 243 973 l 244 972 q 267 975 252 975 l 272 973 l 289 975 l 414 975 l 420 976 l 421 975 l 431 976 l 463 976 l 483 975 l 491 977 l 495 976 l 516 979 m 621 960 l 622 960 l 629 962 l 629 963 l 623 963 l 621 960 m 449 744 q 445 734 449 735 l 444 734 q 437 739 444 739 q 434 743 437 743 q 430 734 433 734 l 338 737 l 292 734 l 290 740 q 279 733 285 733 l 276 733 l 276 739 l 272 739 q 268 733 272 733 l 251 733 l 250 734 q 239 728 239 731 l 239 679 l 240 665 l 239 652 l 240 637 l 239 635 l 240 626 l 240 605 l 251 608 l 261 608 q 264 604 264 608 l 267 604 l 267 608 l 268 608 q 281 604 275 608 q 286 606 281 606 l 298 605 l 332 608 l 332 606 l 334 608 l 339 608 l 340 606 l 342 608 l 412 609 l 437 609 l 444 610 l 446 608 l 450 609 l 450 608 l 452 609 l 480 609 l 496 612 l 496 613 l 487 613 l 487 614 l 486 629 l 504 629 l 504 630 l 484 633 l 484 697 l 488 697 l 488 699 l 484 699 l 486 703 l 484 725 l 484 728 l 487 728 l 487 730 l 484 739 l 483 737 l 481 737 l 471 739 l 471 736 l 467 736 l 466 744 l 465 744 l 463 736 q 452 744 452 738 l 449 744 m 387 581 l 387 580 l 393 578 q 406 583 406 579 l 387 581 m 446 395 q 441 370 446 370 l 437 369 l 389 372 l 339 370 l 302 372 l 245 366 l 244 372 l 241 372 l 240 365 l 241 357 l 241 354 l 239 351 q 243 323 243 345 l 243 239 l 252 237 l 256 241 l 265 239 l 277 241 l 277 239 l 279 229 q 283 241 281 229 l 321 241 l 340 242 l 345 241 l 351 242 l 353 241 l 354 241 l 356 242 l 357 242 l 363 241 l 379 243 l 396 242 l 401 243 l 417 242 l 431 242 l 433 241 l 439 243 q 458 238 458 243 l 458 237 l 460 237 l 460 242 l 473 242 l 483 243 l 486 241 l 487 241 l 487 243 l 488 243 l 495 239 l 496 249 q 490 259 490 249 l 490 270 l 487 274 l 487 292 l 486 307 l 487 319 l 487 326 l 486 333 l 487 341 l 487 348 l 486 354 l 487 358 l 486 365 q 495 369 490 369 l 495 372 q 488 377 488 372 q 483 370 483 374 l 465 370 l 458 372 l 455 369 l 453 369 l 450 372 l 450 389 l 449 395 l 446 395 z "},"9":{"ha":819,"x_min":-3,"x_max":726,"o":"m 511 974 l 513 972 l 514 972 l 523 974 l 543 972 l 551 974 l 590 970 l 591 971 l 593 971 l 602 968 l 603 972 l 618 972 l 618 971 l 616 965 l 618 960 l 621 960 l 622 970 l 628 969 q 684 941 650 969 q 711 894 699 912 q 717 865 717 878 l 717 859 l 718 798 l 714 736 q 718 700 715 700 l 716 684 l 718 584 l 716 576 l 718 563 l 716 550 l 718 526 l 715 425 q 721 409 718 425 l 722 408 l 721 395 l 722 354 l 722 308 l 724 284 q 718 277 718 284 l 724 250 l 724 174 l 726 169 l 724 165 l 726 159 q 716 68 720 68 q 613 3 683 3 l 608 3 l 606 4 l 605 3 l 601 3 l 550 1 l 549 3 l 542 1 l 427 1 l 427 5 q 424 1 424 5 l 367 1 l 367 5 l 364 5 l 364 1 l 308 1 q 305 5 305 1 l 304 5 l 304 1 l 241 0 l 184 0 l 183 1 l 182 0 l 180 0 l 123 -1 l 123 3 l 120 3 l 120 -1 l 62 -1 l 62 2 l 58 -1 l 4 -1 l 3 33 l 7 114 l 8 123 l 4 172 l 6 173 q 3 228 3 193 l 3 231 l 6 239 l 7 237 l 9 237 l 18 239 l 28 237 l 34 240 l 51 237 l 52 239 l 56 239 l 56 237 l 77 239 l 123 238 l 125 240 l 127 238 l 142 238 l 148 239 l 153 238 l 160 238 q 177 241 177 238 l 184 239 l 202 239 l 203 241 l 205 239 l 218 239 l 223 241 l 224 239 l 226 239 l 235 241 l 245 239 l 282 241 l 326 241 l 338 242 l 342 241 l 347 242 l 353 240 l 444 243 l 446 235 q 450 243 449 235 l 467 243 q 471 233 470 243 l 474 233 l 475 243 l 481 243 l 482 235 l 485 237 l 484 239 l 484 241 l 485 241 l 484 283 l 484 355 q 492 365 484 365 l 492 366 l 490 369 l 445 369 l 439 370 l 434 369 l 433 369 l 414 373 l 416 372 l 416 369 l 414 369 l 372 368 l 328 374 l 256 371 l 233 372 l 172 371 l 170 373 q 162 368 169 368 l 127 369 l 121 368 l 57 383 q 44 403 44 395 l 43 401 l 41 401 q 25 419 27 413 q 0 478 0 439 l 0 481 l 4 486 l 0 558 l 1 562 l 0 578 l 1 633 l -1 638 l 1 640 l 1 641 l -2 758 l -1 759 l -1 760 l -3 771 l -2 781 l -3 823 l -3 843 l 0 847 l 0 850 l -3 854 l -3 864 q 24 931 -3 892 q 80 963 54 963 l 81 963 l 80 956 q 105 966 89 966 l 112 966 l 119 964 l 126 966 l 231 969 l 233 968 l 265 970 l 272 969 l 315 972 l 317 970 l 323 972 l 355 972 l 381 973 l 382 972 l 393 973 l 489 972 l 511 974 m 442 732 l 327 734 l 320 734 l 291 732 l 286 734 l 248 731 l 243 732 l 231 730 l 231 728 l 237 727 l 237 713 l 212 710 q 216 707 212 707 l 237 709 l 237 692 l 239 688 l 237 681 l 237 657 l 239 656 l 237 651 l 224 651 l 222 648 l 231 647 l 239 647 l 239 636 q 230 631 230 635 q 239 623 239 631 l 239 605 l 240 604 l 240 602 l 247 606 q 255 600 255 604 q 262 605 262 601 l 267 605 l 304 606 l 313 605 l 340 608 l 342 606 l 344 606 l 349 608 l 361 606 l 373 608 l 377 606 l 393 608 l 407 607 l 408 606 l 410 607 l 420 607 l 422 606 l 423 607 l 444 607 q 448 595 447 607 l 450 595 l 452 596 q 454 606 454 596 l 461 607 l 489 607 l 488 608 l 488 665 l 487 666 l 488 667 l 487 677 l 487 720 q 483 732 487 731 l 479 730 l 471 732 l 467 732 l 459 730 l 446 736 l 442 732 m 20 508 l 18 500 l 24 499 q 20 508 22 508 m 94 399 l 90 389 q 95 398 92 389 l 95 399 l 94 399 m 714 371 l 714 364 l 715 364 l 715 371 l 714 371 m 717 311 l 717 308 l 718 294 l 720 294 l 720 299 l 718 311 l 717 311 z "}," ":{"ha":679,"x_min":0,"x_max":0,"o":""},"!":{"ha":342,"x_min":2,"x_max":248,"o":"m 77 977 l 79 975 l 81 975 l 96 977 l 107 977 l 109 975 l 110 977 l 161 977 l 176 975 l 177 977 l 189 975 l 208 975 l 224 977 l 224 975 l 227 977 l 246 977 l 246 790 l 244 751 l 246 749 l 246 747 q 238 723 246 732 l 238 720 q 244 708 244 720 l 243 561 l 241 553 l 244 528 l 235 456 l 243 458 l 243 456 l 244 380 l 244 253 l 236 251 l 159 253 q 113 258 141 258 l 46 258 l 10 261 l 10 258 l 5 258 l 2 261 l 2 354 l 3 361 l 2 368 l 2 384 l 3 385 l 2 387 l 2 395 l 3 410 l 2 416 l 3 418 l 2 427 l 3 439 l 2 449 l 3 454 l 2 456 l 3 466 l 2 495 l 3 495 l 2 496 l 2 498 l 3 518 l 2 566 l 2 575 l 3 577 l 2 582 l 3 583 l 3 585 l 2 587 l 3 593 l 2 612 l 3 613 l 3 614 l 2 621 l 2 631 l 3 631 l 5 629 l 7 629 l 2 640 l 2 696 l 3 698 l 2 700 l 3 716 l 3 760 l 7 765 l 7 767 l 3 767 l 7 775 l 3 779 l 3 780 l 5 787 l 3 788 l 3 790 l 9 802 l 9 803 l 7 804 l 9 806 l 9 816 l 10 829 l 9 842 l 10 847 l 9 857 l 9 861 l 10 862 l 7 873 l 9 875 l 9 893 l 7 895 l 9 897 l 9 909 l 10 922 l 9 930 l 10 975 l 43 975 l 77 977 m 10 130 l 82 123 l 89 125 l 90 123 l 138 127 l 140 125 l 141 125 l 207 130 l 246 128 l 246 122 l 244 94 l 246 56 l 246 -26 l 248 -32 q 244 -70 244 -41 l 246 -77 l 244 -78 l 246 -86 l 246 -122 l 244 -137 l 246 -138 l 244 -147 l 244 -168 l 246 -181 l 244 -195 l 244 -205 l 246 -212 l 244 -219 l 244 -224 l 243 -224 q 200 -181 237 -224 q 185 -168 193 -181 q 64 -54 181 -168 l 40 -31 l 9 -1 q 2 14 2 7 l 2 117 l 3 119 l 2 120 l 2 123 q 10 130 5 130 z "},"\"":{"ha":673,"x_min":5,"x_max":575,"o":"m 14 1081 l 26 1081 l 36 1080 l 37 1081 l 39 1081 l 49 1080 l 54 1081 l 62 1080 l 96 1081 l 101 1080 l 102 1081 l 111 1080 l 117 1081 l 123 1080 l 132 1081 l 142 1080 l 146 1081 l 155 1080 l 178 1080 l 179 1081 l 181 1080 l 203 1080 l 205 1081 l 207 1080 l 212 1080 l 212 1081 l 223 1080 l 233 1080 l 235 1072 l 235 1069 l 236 1040 l 231 983 l 233 982 l 233 980 l 231 975 q 235 962 235 970 l 236 962 l 238 970 l 241 970 l 244 959 l 243 911 l 244 895 l 243 881 l 243 866 l 241 865 l 243 863 l 239 833 l 236 833 l 236 859 l 235 859 l 233 758 q 228 755 228 758 l 231 752 l 231 749 l 228 749 q 174 801 216 754 l 173 799 l 171 799 l 159 816 l 158 814 l 156 814 l 142 832 l 140 830 q 127 846 140 836 q 102 867 112 867 q 81 894 102 876 l 28 949 q 6 980 6 972 l 6 1015 l 5 1039 l 6 1052 l 5 1075 q 14 1081 6 1081 m 345 1081 l 357 1081 l 367 1080 l 368 1081 l 370 1081 l 380 1080 l 385 1081 l 393 1080 l 427 1081 l 432 1080 l 433 1081 l 441 1080 l 448 1081 l 454 1080 l 463 1081 l 473 1080 l 477 1081 l 486 1080 l 509 1080 l 510 1081 l 512 1080 l 534 1080 l 536 1081 l 538 1080 l 543 1080 l 543 1081 l 554 1080 l 564 1080 l 566 1072 l 566 1069 l 567 1040 l 562 983 l 564 982 l 564 980 l 562 975 q 566 962 566 970 l 567 962 l 569 970 l 572 970 l 575 959 l 574 911 l 575 895 l 574 881 l 574 866 l 572 865 l 574 863 l 570 833 l 567 833 l 567 859 l 566 859 l 564 758 q 559 755 559 758 l 562 752 l 562 749 l 559 749 q 505 801 547 754 l 504 799 l 502 799 l 490 816 l 489 814 l 487 814 l 473 832 l 471 830 q 458 846 471 836 q 433 867 443 867 q 412 894 433 876 l 359 949 q 337 980 337 972 l 337 1015 l 336 1039 l 337 1052 l 336 1075 q 345 1081 337 1081 z "},"#":{"ha":950,"x_min":-8,"x_max":859,"o":"m 641 979 l 645 977 l 650 979 l 652 977 l 656 979 l 717 977 l 732 977 l 735 964 l 735 963 l 734 934 l 735 916 l 734 863 q 755 850 734 854 l 755 848 l 758 848 l 758 853 l 827 853 l 829 852 l 830 853 l 858 850 l 858 710 l 857 697 l 858 692 l 857 614 l 855 614 l 752 612 l 749 612 q 738 618 738 612 l 735 618 l 734 604 l 734 575 l 727 575 l 724 572 q 734 568 728 568 l 734 561 l 736 546 l 735 538 l 736 533 l 735 501 l 736 481 l 735 481 l 736 480 l 736 408 l 735 406 l 736 405 l 736 395 l 735 394 l 736 393 l 736 386 l 735 373 l 738 366 l 779 366 l 858 368 l 858 365 l 859 365 l 858 323 l 858 138 l 859 124 l 848 125 l 845 125 l 845 124 l 838 125 l 791 124 l 787 132 q 781 124 785 132 l 763 124 l 758 149 l 755 149 q 749 127 755 127 l 741 124 l 738 127 l 736 125 l 736 107 l 739 5 l 738 4 l 699 5 l 650 4 l 639 5 l 633 3 l 627 4 l 617 4 l 612 3 l 606 4 l 564 4 l 541 3 l 541 4 l 539 3 l 535 3 l 533 4 l 532 3 l 514 3 l 514 16 l 513 29 l 511 29 l 511 25 l 513 24 l 511 17 l 511 8 l 513 7 l 513 5 l 511 4 l 510 4 l 496 5 l 496 94 l 494 110 l 505 115 l 504 117 l 503 117 l 504 118 l 504 121 q 494 127 502 127 l 492 124 l 469 124 l 464 123 l 458 124 l 457 124 l 456 123 l 454 124 l 436 124 l 419 123 l 419 124 l 418 123 l 404 123 q 393 128 393 123 l 391 128 l 386 124 l 382 124 l 376 125 l 369 123 l 369 114 q 366 107 369 107 l 369 99 l 369 96 l 366 94 l 369 85 l 369 4 l 366 1 l 362 1 l 358 3 l 351 1 l 345 1 l 329 3 l 258 0 l 256 1 l 250 0 l 247 0 l 231 1 l 209 0 l 134 0 q 130 7 130 0 l 124 3 l 120 3 l 120 14 l 121 14 l 130 11 l 127 82 l 127 103 l 125 117 q 132 120 132 117 q 124 124 131 124 l 116 121 l 115 123 l 113 121 l 107 121 l 75 120 l 70 121 l 66 120 l 43 121 l 22 120 l 16 121 l 7 120 l 6 121 l 6 220 q 9 241 6 241 q 6 256 6 246 l 6 313 l 7 340 l 6 349 l 7 358 l 6 362 l 26 361 l 59 361 l 60 359 l 62 361 l 66 361 l 67 359 l 68 361 l 71 361 l 73 359 l 74 361 l 109 361 l 115 359 l 120 361 l 127 361 l 128 359 l 130 359 l 130 362 l 125 368 l 125 373 q 138 381 132 373 l 125 389 l 125 458 q 132 586 125 511 l 132 589 l 131 589 l 130 579 l 128 579 q 123 597 124 579 q 128 606 123 606 l 128 607 l 125 611 l 99 608 l 21 608 l 20 610 l 16 608 l 9 612 l 7 612 l 4 610 q 14 606 4 606 l 21 607 l 43 606 l 57 606 l 66 607 l 70 606 l 70 607 l 71 606 l 81 606 l 87 607 l 92 606 l 92 607 l 94 606 l 100 606 l 106 607 l 110 606 l 112 607 l 113 607 q 121 597 121 607 l 123 583 l 121 582 l 120 582 l 110 585 l 112 586 l 112 593 l 110 600 l 104 596 q 102 600 102 596 l 100 602 l 99 602 l 99 597 l 79 597 l 74 599 l 68 597 l 34 596 q -8 604 -8 599 l -8 614 l -5 671 l -7 682 l -5 686 q 0 656 -1 686 l -1 647 l 0 639 l -1 624 l 0 615 l 3 618 l 3 647 q 0 671 3 671 l 1 678 l 1 686 l 0 688 l 1 689 l 1 713 l 0 714 l 1 715 l 1 717 l 0 718 l 1 720 l 1 758 l 0 759 l 1 760 l 1 766 l 0 783 l 3 813 l 0 837 l 1 842 l 1 850 l 22 853 l 41 852 l 54 853 l 56 852 l 56 850 l 57 852 l 60 852 l 64 850 l 71 852 l 75 852 l 79 850 l 87 852 l 116 852 l 117 853 l 125 850 l 130 850 l 130 852 l 127 854 l 121 854 l 120 853 l 112 854 l 112 857 q 120 861 120 857 q 115 870 115 863 q 117 874 117 870 l 119 874 q 123 863 123 873 l 124 863 l 125 873 l 124 880 l 124 935 l 125 951 l 124 962 l 124 966 l 131 972 l 259 972 l 286 973 l 308 972 l 337 972 l 365 975 l 363 944 l 365 862 l 366 862 l 365 857 q 370 848 367 848 l 373 848 l 373 852 l 379 852 l 380 837 l 382 837 l 383 848 l 385 848 q 387 844 387 848 l 389 844 q 398 854 390 854 l 398 853 l 399 848 l 399 841 l 403 841 l 403 852 l 406 852 l 410 849 l 411 849 l 410 850 l 410 852 l 414 854 l 419 853 l 423 854 l 437 853 l 451 854 l 452 853 l 454 853 l 464 854 l 472 850 l 476 854 l 479 854 l 485 853 l 486 854 l 488 854 l 489 853 l 490 853 l 500 854 l 493 865 l 493 878 q 501 881 501 878 l 493 882 l 493 885 l 503 887 l 500 890 l 493 890 l 493 960 l 497 975 l 503 973 l 513 975 l 543 975 l 546 977 l 553 976 l 566 976 l 641 979 m 373 611 l 374 607 l 373 586 l 373 546 l 374 538 l 373 530 l 373 429 l 374 408 l 373 391 l 373 359 l 374 359 q 387 363 380 363 l 461 363 l 484 365 l 496 363 l 500 365 l 500 370 l 494 370 l 493 492 l 493 497 l 497 497 l 497 498 q 493 501 493 498 l 493 511 l 492 522 l 493 530 l 492 540 l 493 553 l 492 554 l 493 561 l 492 578 l 493 579 l 494 579 l 492 606 l 500 608 l 500 611 l 427 611 l 422 610 l 420 611 l 419 611 l 411 610 l 382 614 l 373 611 m 509 70 l 504 56 l 504 54 l 505 54 l 507 61 l 510 61 l 510 58 l 511 58 l 510 57 l 510 56 l 511 32 l 513 32 l 513 52 q 509 70 513 70 m 503 46 l 501 36 l 501 35 l 503 35 l 504 43 l 504 46 l 503 46 m 498 17 l 501 17 l 503 26 q 498 17 500 26 z "},"$":{"ha":833,"x_min":-4,"x_max":740,"o":"m 480 1097 l 485 1097 l 484 983 l 486 975 l 493 975 l 517 976 l 525 972 l 527 974 l 607 975 l 732 975 l 733 963 l 733 925 l 731 920 l 733 911 l 732 734 l 645 733 l 638 735 l 637 733 l 608 735 l 591 735 l 553 734 l 553 735 l 551 734 l 517 736 l 447 736 l 437 738 l 432 736 l 251 734 l 250 735 l 251 737 l 251 739 l 248 742 l 244 739 l 243 741 l 241 741 l 239 732 l 239 730 l 241 728 l 239 727 l 239 703 l 240 640 l 230 638 l 230 636 l 240 635 l 240 626 l 237 609 l 334 608 l 602 610 l 607 612 l 608 610 l 610 612 q 617 607 610 607 l 624 609 l 665 588 l 667 590 q 707 572 667 585 q 739 431 735 554 l 739 361 l 740 359 l 739 357 l 739 323 l 740 317 l 736 308 l 738 296 l 738 248 l 739 115 q 689 27 739 45 q 648 0 659 0 l 640 0 q 627 7 640 7 l 490 -1 l 490 -3 l 492 -235 l 486 -235 q 471 -219 486 -230 l 414 -171 l 250 -8 l 250 -5 l 256 -5 l 256 -1 l 249 0 l 247 -1 l 1 0 l 2 43 q 5 54 3 54 q 2 94 2 63 l 2 121 l 1 123 l 2 124 l 1 162 l 1 237 l 35 237 l 61 233 l 168 238 l 177 236 l 323 240 l 326 239 l 327 239 l 336 240 l 346 239 l 356 240 l 357 239 l 359 239 l 366 240 l 368 240 l 370 238 l 371 240 l 429 236 l 429 240 l 487 239 l 487 236 l 489 236 l 501 241 l 501 243 q 498 252 498 243 l 494 252 l 494 253 l 493 342 q 503 349 503 345 q 493 353 493 349 q 498 372 493 363 l 496 374 q 423 370 479 369 l 309 370 l 251 369 l 235 370 l 235 367 l 201 367 q 169 378 180 368 l 169 381 l 172 381 l 172 382 l 169 382 l 168 381 l 168 378 q 176 371 171 371 l 176 368 l 138 368 q 121 371 121 368 l 119 370 l 118 370 q 52 382 52 370 l 50 382 l 48 380 l 48 383 q 9 426 39 383 q 1 464 1 448 l 1 479 l -1 486 l 1 488 l 1 489 l -1 496 l 1 498 l -1 510 l -1 587 l -2 593 l 0 595 l -2 616 l -2 619 l -3 830 l -4 846 l -2 848 l -2 849 l -4 858 q 22 928 -4 898 l 24 928 l 24 924 q 51 956 44 956 q 113 975 83 975 l 115 973 l 135 975 l 150 975 l 208 976 l 216 972 l 234 977 l 242 976 l 242 977 l 241 989 l 242 989 l 244 987 l 245 987 l 248 994 l 245 1092 q 262 1095 249 1095 l 262 1097 l 279 1095 l 336 1095 l 343 1096 l 345 1095 l 350 1096 l 480 1097 m 179 382 l 179 381 l 186 379 l 188 379 l 188 381 l 181 382 l 179 382 z "},"%":{"ha":1291,"x_min":-4,"x_max":1034,"o":"m 506 1059 l 551 1055 l 554 1059 l 629 1059 l 632 1055 l 629 1050 l 632 1050 l 632 846 l 630 840 l 632 833 l 632 635 l 630 634 l 632 632 l 632 627 l 630 625 l 632 624 l 632 529 q 629 493 632 502 l 632 488 l 629 432 l 630 430 l 630 429 l 627 398 l 629 393 l 627 393 l 629 391 l 627 382 l 627 337 l 629 335 l 627 334 l 627 330 l 629 323 l 627 316 l 627 315 l 629 308 l 627 301 l 629 299 l 627 291 l 627 264 l 632 267 l 633 267 l 633 262 l 635 252 l 633 250 l 635 233 l 635 12 l 633 -32 l 637 -52 q 632 -76 635 -76 l 413 -76 q 408 -71 413 -71 l 406 -71 l 406 -69 l 408 -67 l 406 -66 l 406 -52 l 408 -50 l 406 -49 l 406 -42 l 408 -40 l 406 -39 l 406 -13 l 408 -8 l 406 1 l 406 43 l 408 50 l 406 56 l 408 58 l 406 60 l 406 68 l 408 70 l 406 72 l 406 73 l 408 82 l 406 100 l 406 117 l 408 125 l 406 132 l 406 136 l 410 146 l 411 146 l 410 149 l 406 328 l 411 371 l 410 372 l 410 381 l 411 382 l 411 385 l 406 386 l 406 401 l 404 416 l 406 433 l 406 456 l 404 463 l 406 469 l 406 507 l 408 507 l 410 505 l 411 505 l 411 507 q 404 654 404 585 l 404 678 l 403 702 l 404 724 l 404 745 l 403 768 l 404 770 l 404 772 l 403 773 l 403 775 l 404 777 l 404 779 l 403 790 l 406 804 l 403 853 l 406 887 l 404 899 l 408 902 l 403 904 l 404 916 l 403 941 l 404 941 l 403 943 l 403 945 l 404 960 l 403 968 l 404 968 l 403 970 l 406 998 q 403 1002 403 998 l 404 1004 l 403 1011 l 404 1029 l 403 1038 l 404 1040 l 404 1042 l 403 1052 l 413 1055 l 413 1057 l 460 1057 l 506 1059 m 94 972 l 98 968 l 98 972 l 205 972 q 234 964 221 972 q 271 938 245 964 l 269 937 l 281 921 l 283 923 q 288 911 288 916 l 285 911 q 290 836 288 911 l 288 826 l 293 826 l 293 814 l 290 814 l 290 817 l 288 817 l 288 814 l 293 812 l 293 793 l 288 793 l 288 768 l 290 768 l 290 785 l 292 785 l 293 777 l 293 760 l 292 758 l 293 756 l 293 753 l 292 751 l 292 749 l 295 746 l 295 729 l 293 721 l 292 721 l 290 722 l 288 722 l 286 705 l 286 682 l 285 680 l 286 678 l 286 675 q 218 588 286 612 q 161 585 198 585 l 161 588 l 184 591 l 184 595 q 108 587 131 587 l 103 587 q 37 607 58 587 q 5 658 5 633 l -4 678 l 3 682 l 1 683 l 1 726 l -1 732 l 1 738 l -1 758 l -1 762 l 1 762 l -1 773 l -1 844 q 25 941 -1 920 q 57 965 35 953 l 59 964 q 94 972 59 970 m 94 878 l 91 873 l 93 868 l 91 790 l 91 775 l 93 763 l 91 763 l 93 762 l 91 753 l 91 682 l 96 680 l 98 682 l 100 682 l 118 680 l 120 680 l 120 686 l 154 685 l 184 685 q 179 693 179 689 l 176 693 l 176 699 q 184 703 184 699 l 189 703 l 191 692 l 191 686 l 188 686 l 193 682 l 195 683 l 193 695 l 193 703 l 197 703 l 193 717 l 195 726 l 193 758 l 193 800 l 195 821 l 193 821 l 195 823 l 195 838 l 197 848 l 195 857 l 198 868 l 195 871 l 200 873 l 200 877 l 123 877 l 94 878 m 288 762 l 288 753 l 290 753 l 290 762 l 288 762 m 288 743 l 288 736 l 290 736 l 290 743 l 288 743 m 144 680 l 144 678 l 152 678 l 152 680 l 144 680 m 164 680 l 164 678 l 179 678 l 179 680 l 164 680 m 833 389 l 838 386 l 841 389 l 873 387 l 883 389 l 883 387 l 885 389 l 932 389 l 934 387 l 936 389 l 937 389 q 968 384 950 389 l 968 380 l 964 380 l 964 379 q 1002 362 988 379 q 1014 345 1007 362 q 1027 326 1027 334 l 1024 326 l 1027 294 l 1027 270 l 1029 255 l 1027 243 l 1027 241 l 1029 243 l 1032 243 l 1032 231 l 1027 231 l 1029 229 l 1027 184 l 1027 170 q 1034 161 1031 170 l 1034 148 l 1032 136 l 1029 136 l 1029 140 l 1027 140 l 1025 122 l 1025 102 l 1024 95 l 1025 90 q 987 17 1025 49 l 973 9 l 973 10 q 937 2 957 2 l 929 2 l 927 0 l 926 0 l 926 2 l 924 0 l 916 2 l 893 2 l 893 3 l 924 9 l 924 10 l 920 10 l 849 2 q 772 26 796 2 q 741 80 753 36 l 741 88 q 735 95 735 88 l 737 95 l 739 94 l 741 94 l 741 97 l 742 97 l 741 98 l 741 131 l 739 150 l 741 151 l 739 160 l 739 177 l 741 178 l 739 180 l 739 270 l 737 277 q 754 347 743 332 q 813 387 783 380 l 813 386 l 833 389 m 832 294 q 827 289 832 289 l 827 287 l 832 286 l 830 231 l 830 187 l 832 178 l 830 177 l 832 177 l 830 175 l 830 97 l 863 95 l 873 95 l 873 97 q 858 100 858 97 l 858 102 l 910 102 l 922 100 l 922 104 q 919 111 919 104 l 916 111 l 916 114 l 924 115 l 922 117 l 922 119 l 929 119 l 930 111 l 930 105 l 927 100 l 932 98 l 934 100 l 932 109 l 934 122 l 932 136 l 932 138 l 934 144 l 932 157 l 932 228 l 934 235 l 932 236 l 932 238 l 936 263 l 934 273 l 937 283 l 934 287 l 934 289 q 939 292 939 289 l 868 292 l 861 294 l 859 292 l 848 294 l 832 294 m 882 97 l 882 95 l 917 95 l 917 97 l 882 97 z "},"&":{"ha":831,"x_min":0,"x_max":736,"o":"m 492 1093 l 494 1093 l 499 1090 l 536 1092 l 555 1090 l 574 1092 l 575 1090 l 577 1090 l 585 1093 l 599 1090 l 634 1090 l 636 1088 l 637 1090 l 717 1088 l 736 1088 l 736 1051 l 734 888 l 736 888 l 734 886 l 734 749 l 732 743 l 734 736 l 734 734 l 732 722 l 707 724 l 693 724 l 686 726 l 685 724 l 683 724 l 643 727 l 551 726 l 540 727 l 535 726 l 515 727 l 492 726 l 481 727 l 479 726 l 477 726 l 471 727 l 469 727 l 464 726 l 459 727 l 288 730 q 285 741 288 741 q 281 730 284 730 l 252 732 l 245 729 l 246 724 l 245 612 l 245 594 l 248 594 q 252 601 248 601 l 267 599 l 278 601 q 283 595 283 601 l 287 595 l 287 599 l 385 599 l 395 601 q 439 597 405 597 l 482 597 l 484 595 l 486 595 l 484 587 l 484 519 l 482 496 l 484 489 l 482 481 l 484 471 l 482 471 l 484 469 l 484 467 l 482 459 l 484 440 l 484 437 l 482 437 l 484 425 l 484 359 l 482 357 l 482 356 l 446 357 l 295 357 l 278 359 l 277 357 l 273 368 l 273 373 l 270 373 l 267 357 q 260 383 261 357 l 258 383 l 256 359 l 246 359 q 243 364 246 364 l 241 364 l 238 356 q 243 353 243 356 l 241 241 l 239 235 l 245 233 l 258 235 l 267 226 q 271 233 267 233 l 288 233 l 290 231 l 292 233 l 329 231 l 373 231 l 432 229 l 432 231 l 437 229 l 503 231 l 503 229 l 505 231 l 516 229 l 555 229 l 562 228 l 564 229 l 565 229 l 575 228 l 582 229 l 589 228 l 592 228 l 592 229 l 609 228 l 624 228 l 631 226 l 637 228 l 661 226 l 671 228 l 710 226 l 732 226 l 730 62 l 730 45 l 729 39 l 730 32 l 730 3 l 729 -3 l 730 -5 l 729 -34 l 729 -150 q 732 -167 729 -167 l 730 -192 l 730 -245 l 729 -253 l 727 -253 q 547 -67 553 -85 q 489 -12 538 -67 l 489 -8 l 501 -8 l 498 -5 l 481 -5 l 479 -3 l 477 -5 l 457 -5 l 447 -3 l 439 -5 l 435 -5 l 433 -3 l 432 -5 l 356 -3 l 285 -3 l 275 -1 l 273 -3 l 265 -1 l 258 -1 l 256 -3 l 255 -1 l 162 -3 l 106 -3 q 14 61 53 -3 q 0 106 1 85 l 3 309 l 3 315 l 5 357 l 3 376 l 5 376 l 3 381 l 5 407 l 3 430 l 5 430 l 3 432 l 3 446 l 5 446 l 10 444 l 10 452 l 5 585 l 8 589 q 3 658 3 629 l 5 660 l 3 661 l 3 663 l 5 779 l 7 789 l 5 803 l 5 842 l 8 842 l 8 844 l 5 857 l 5 867 q 59 958 5 922 q 108 975 82 975 l 123 975 l 123 973 l 121 968 l 123 968 q 128 977 128 968 l 140 977 l 146 975 l 149 977 l 165 975 l 486 970 l 491 965 q 494 970 491 970 l 491 979 l 496 979 l 496 982 l 491 982 l 491 1009 l 492 1010 l 491 1013 l 491 1075 l 494 1075 l 492 1083 l 492 1093 m 555 1086 l 555 1076 l 557 1076 l 557 1086 l 555 1086 z "},"'":{"ha":332,"x_min":-2,"x_max":237,"o":"m 7 1087 l 19 1087 l 29 1086 l 31 1087 l 32 1087 l 42 1086 l 47 1087 l 55 1086 l 90 1087 l 94 1086 l 96 1087 l 104 1086 l 111 1087 l 117 1086 l 125 1087 l 135 1086 l 140 1087 l 148 1086 l 171 1086 l 172 1087 l 174 1086 l 197 1086 l 199 1087 l 200 1086 l 205 1086 l 205 1087 l 216 1086 l 226 1086 l 228 1078 l 228 1076 l 229 1046 l 224 989 l 226 988 l 226 986 l 224 981 q 228 968 228 977 l 229 968 l 231 977 l 234 977 l 237 965 l 236 918 l 237 901 l 236 887 l 236 872 l 234 871 l 236 869 l 233 840 l 229 840 l 229 865 l 228 865 l 226 764 q 221 762 221 764 l 224 758 l 224 755 l 221 755 q 168 807 209 760 l 166 805 l 164 805 l 153 822 l 151 820 l 149 820 l 135 838 l 133 836 q 120 852 133 842 q 96 873 105 873 q 75 900 96 882 l 21 956 q -1 986 -1 978 l -1 1021 l -2 1045 l -1 1058 l -2 1081 q 7 1087 -1 1087 m 228 942 l 228 895 l 229 895 l 231 921 l 229 942 l 228 942 m 228 885 l 228 879 l 229 879 l 229 885 l 228 885 z "},"(":{"ha":460,"x_min":0,"x_max":362,"o":"m 111 1211 q 118 1201 112 1204 q 123 1207 123 1201 l 124 1209 l 172 1209 l 186 1207 q 214 1211 193 1211 l 299 1211 l 328 1209 l 330 1211 l 332 1211 l 349 1209 l 361 1209 l 361 1152 l 359 1151 l 359 1149 l 361 1149 l 356 1133 l 356 1111 l 355 1105 l 356 1097 l 357 1060 l 356 1011 l 356 987 l 357 971 l 304 971 l 302 972 l 301 971 l 260 971 q 249 976 254 971 l 243 976 l 241 971 l 243 970 l 243 965 l 241 964 l 243 962 l 243 939 l 241 935 l 243 926 l 243 909 l 241 896 l 243 880 l 243 867 l 241 865 l 243 863 l 243 862 q 238 847 241 851 q 243 838 241 847 l 241 836 l 243 813 l 243 799 l 241 790 l 243 774 l 243 621 l 241 600 l 243 584 l 243 581 l 241 569 l 243 557 l 243 555 l 241 553 l 243 552 l 243 529 l 241 480 l 243 480 l 241 478 l 241 477 l 243 435 l 241 431 l 238 431 l 238 432 l 235 467 l 233 467 l 233 461 q 239 380 237 380 l 238 371 l 239 371 l 238 370 l 238 368 l 243 342 l 241 340 l 241 290 l 243 288 l 237 268 l 239 78 l 239 30 l 233 30 l 233 27 l 239 26 l 239 18 l 237 13 l 239 9 l 239 -7 l 245 -7 l 245 -1 l 250 -1 l 256 -5 q 264 -1 256 -1 l 267 -1 l 267 -2 l 273 -1 l 316 -2 l 344 1 l 351 -1 l 353 1 l 355 1 q 362 -8 362 0 l 362 -20 l 361 -30 l 362 -37 l 361 -39 l 362 -47 l 362 -50 l 361 -58 l 361 -60 l 362 -60 l 361 -110 l 361 -142 l 362 -166 l 361 -172 l 362 -183 l 361 -201 l 362 -223 l 361 -239 l 349 -240 l 347 -239 l 345 -239 l 344 -240 l 270 -237 l 269 -239 l 269 -235 l 267 -235 q 256 -240 262 -240 q 247 -231 247 -240 l 245 -231 l 245 -239 l 187 -239 q 184 -229 187 -229 q 181 -239 184 -239 l 143 -235 l 140 -239 l 127 -234 q 118 -239 126 -239 l 115 -239 q 39 -210 74 -239 q 3 -130 3 -171 l 5 -130 l 9 -125 q 1 -110 9 -119 l 3 -110 l 1 -108 l 1 -104 l 3 -104 l 1 -97 l 3 -35 l 3 16 l 5 26 l 3 32 l 5 36 l 3 38 l 5 49 l 5 116 l 6 125 l 5 133 l 6 146 l 5 153 l 6 190 l 6 250 l 3 267 l 3 457 l 5 496 l 3 501 l 5 509 l 3 530 l 5 530 l 3 532 l 3 536 l 5 547 l 3 547 l 5 552 l 3 553 l 6 570 l 6 574 l 5 574 l 3 704 l 3 772 l 5 785 l 3 787 l 7 891 l 7 899 l 9 908 l 7 909 l 7 911 l 9 925 l 9 931 l 7 939 l 6 939 q 1 930 5 930 l 1 932 l 0 989 l 1 989 l 0 991 l 0 1017 l 1 1019 l 0 1020 l 0 1034 l 1 1036 l 0 1037 l 0 1051 l 1 1053 l 0 1054 l 0 1078 q 5 1082 0 1082 l 5 1083 q 0 1094 5 1088 l 0 1100 q 23 1147 3 1142 l 26 1154 l 24 1154 l 18 1149 l 17 1151 l 16 1151 q 47 1186 16 1157 l 49 1186 l 54 1185 q 111 1211 72 1211 m 159 1192 l 159 1189 l 164 1189 l 164 1191 l 159 1192 z "},")":{"ha":460,"x_min":0,"x_max":362,"o":"m 252 1211 q 309 1185 290 1211 l 313 1186 l 315 1186 q 347 1151 347 1157 l 345 1151 l 344 1149 l 338 1154 l 336 1154 l 339 1147 q 362 1100 359 1142 l 362 1094 q 357 1083 357 1088 l 357 1082 q 362 1078 362 1082 l 362 1054 l 361 1053 l 362 1051 l 362 1037 l 361 1036 l 362 1034 l 362 1020 l 361 1019 l 362 1017 l 362 991 l 361 989 l 362 989 l 361 932 l 361 930 q 356 939 357 930 l 355 939 l 353 931 l 353 925 l 355 911 l 355 909 l 353 908 l 355 899 l 355 891 l 359 787 l 357 785 l 359 772 l 359 704 l 357 574 l 356 574 l 356 570 l 359 553 l 357 552 l 359 547 l 357 547 l 359 536 l 359 532 l 357 530 l 359 530 l 357 509 l 359 501 l 357 496 l 359 457 l 359 267 l 356 250 l 356 190 l 357 153 l 356 146 l 357 133 l 356 125 l 357 116 l 357 49 l 359 38 l 357 36 l 359 32 l 357 26 l 359 16 l 359 -35 l 361 -97 l 359 -104 l 361 -104 l 361 -108 l 359 -110 l 361 -110 q 353 -125 353 -119 l 357 -130 l 359 -130 q 324 -210 359 -171 q 247 -239 288 -239 l 244 -239 q 235 -234 237 -239 l 222 -239 l 220 -235 l 181 -239 q 178 -229 178 -239 q 175 -239 175 -229 l 117 -239 l 117 -231 l 115 -231 q 106 -240 115 -240 q 95 -235 101 -240 l 94 -235 l 94 -239 l 92 -237 l 18 -240 l 17 -239 l 16 -239 l 14 -240 l 1 -239 l 0 -223 l 1 -201 l 0 -183 l 1 -172 l 0 -166 l 1 -142 l 1 -110 l 0 -60 l 1 -60 l 1 -58 l 0 -50 l 0 -47 l 1 -39 l 0 -37 l 1 -30 l 0 -20 l 0 -8 q 7 1 0 0 l 9 1 l 11 -1 l 18 1 l 46 -2 l 89 -1 l 95 -2 l 95 -1 l 98 -1 q 106 -5 106 -1 l 112 -1 l 117 -1 l 117 -7 l 123 -7 l 123 9 l 126 13 l 123 18 l 123 26 l 129 27 l 129 30 l 123 30 l 123 78 l 126 268 l 120 288 l 121 290 l 121 340 l 120 342 l 124 368 l 124 370 l 123 371 l 124 371 l 123 380 q 129 461 126 380 l 129 467 l 127 467 l 124 432 l 124 431 l 121 431 l 120 435 l 121 477 l 121 478 l 120 480 l 121 480 l 120 529 l 120 552 l 121 553 l 120 555 l 120 557 l 121 569 l 120 581 l 120 584 l 121 600 l 120 621 l 120 774 l 121 790 l 120 799 l 120 813 l 121 836 l 120 838 q 124 847 122 847 q 120 862 121 851 l 120 863 l 121 865 l 120 867 l 120 880 l 121 896 l 120 909 l 120 926 l 121 935 l 120 939 l 120 962 l 121 964 l 120 965 l 120 970 l 121 971 l 120 976 l 113 976 q 103 971 108 971 l 62 971 l 60 972 l 58 971 l 5 971 l 6 987 l 6 1011 l 5 1060 l 6 1097 l 7 1105 l 6 1111 l 6 1133 l 1 1149 l 3 1149 l 3 1151 l 1 1152 l 1 1209 l 14 1209 l 31 1211 l 33 1211 l 34 1209 l 63 1211 l 149 1211 q 176 1207 169 1211 l 191 1209 l 238 1209 l 239 1207 q 244 1201 239 1201 q 252 1211 250 1204 m 198 1191 l 198 1189 l 203 1189 l 203 1192 l 198 1191 z "},"+":{"ha":784,"x_min":-4,"x_max":690,"o":"m 355 803 l 370 803 l 370 798 l 375 798 l 374 800 l 374 803 l 404 803 l 412 801 l 418 803 l 423 803 l 432 801 l 432 798 l 431 798 l 429 800 l 427 798 l 408 798 l 406 800 l 404 800 l 404 798 l 406 796 l 442 796 l 444 798 l 446 798 l 444 800 l 444 803 l 454 803 l 454 801 l 456 578 l 458 574 l 467 575 l 468 575 q 489 563 489 575 l 489 559 l 491 559 l 491 574 l 541 574 l 566 572 l 577 574 l 634 572 l 635 570 l 637 570 l 644 572 l 689 574 l 689 559 l 687 558 l 689 556 l 689 541 l 687 539 l 689 537 l 689 524 l 687 522 l 689 520 l 689 420 l 690 378 l 689 374 l 690 356 l 690 351 l 687 348 l 684 348 l 679 349 l 671 348 l 582 349 l 472 346 l 461 349 l 461 348 l 458 339 l 461 336 l 461 323 q 446 318 446 322 q 461 315 461 318 l 461 311 l 463 277 l 461 277 l 463 275 l 463 273 l 461 184 l 463 113 l 450 113 l 442 115 l 441 113 l 434 115 l 387 113 l 241 113 q 232 129 232 117 l 234 148 l 232 158 l 234 160 l 232 168 l 232 215 l 234 222 l 232 229 l 234 231 l 232 239 l 232 339 q 237 342 237 339 l 237 345 l 234 348 l 229 348 l 229 342 l 213 342 l 212 351 l 212 367 l 208 363 l 208 348 l 203 342 l 199 346 l 196 342 l 146 342 l 144 345 l 142 342 l 15 342 q -2 356 -2 342 l -1 368 l -2 374 l -1 380 l -2 396 l -1 403 l -2 412 l -1 412 l -2 416 l -1 441 l -4 475 l -2 491 l -4 517 l -2 517 l -4 518 l -4 539 l -1 543 l 1 541 l 1 543 l -1 567 l -1 568 l 17 570 l 189 570 q 193 565 193 570 l 194 565 l 194 570 l 205 570 l 210 567 l 210 570 l 212 570 l 218 568 l 225 570 q 229 565 225 565 l 231 565 l 234 574 q 229 597 229 585 l 229 600 l 227 663 l 229 670 l 227 694 l 227 798 l 250 801 l 251 800 l 272 801 l 277 801 l 355 800 l 355 803 z "},",":{"ha":332,"x_min":-2,"x_max":237,"o":"m 7 109 l 19 109 l 29 107 l 31 109 l 32 109 l 42 107 l 47 109 l 55 107 l 90 109 l 94 107 l 96 109 l 104 107 l 111 109 l 117 107 l 125 109 l 135 107 l 140 109 l 148 107 l 171 107 l 172 109 l 174 107 l 197 107 l 199 109 l 200 107 l 205 107 l 205 109 l 216 107 l 226 107 l 228 99 l 228 97 l 229 68 l 224 11 l 226 9 l 226 7 l 224 3 q 228 -10 228 -2 l 229 -10 l 231 -2 l 234 -2 l 237 -14 l 236 -61 l 237 -77 l 236 -92 l 236 -106 l 234 -108 l 236 -110 l 233 -139 l 229 -139 l 229 -113 l 228 -113 l 226 -214 q 221 -217 221 -214 l 224 -220 l 224 -224 l 221 -224 q 168 -172 209 -218 l 166 -174 l 164 -174 l 153 -157 l 151 -159 l 149 -159 l 135 -140 l 133 -142 q 120 -126 133 -137 q 96 -105 105 -105 q 75 -79 96 -97 l 21 -23 q -1 7 -1 -1 l -1 42 l -2 66 l -1 79 l -2 102 q 7 109 -1 109 m 228 -37 l 228 -83 l 229 -83 l 231 -58 l 229 -37 l 228 -37 m 228 -94 l 228 -100 l 229 -100 l 229 -94 l 228 -94 z "},"-":{"ha":792,"x_min":0,"x_max":696,"o":"m 202 568 q 216 561 202 563 l 256 562 l 258 562 l 266 561 l 273 562 l 275 562 q 290 557 280 558 l 412 562 l 435 561 l 444 561 l 458 562 l 487 559 l 497 561 l 519 561 l 520 559 l 522 561 l 526 561 l 533 559 l 534 561 l 556 559 l 572 559 l 579 557 l 586 559 l 597 559 l 614 557 l 625 559 l 639 553 l 639 557 l 661 555 l 667 555 l 669 553 l 671 553 l 671 557 l 678 557 l 676 555 l 676 553 l 680 553 l 680 557 q 692 548 688 557 l 694 547 l 696 547 l 694 525 l 694 486 l 692 484 l 694 483 l 694 475 l 692 465 l 694 456 l 692 454 l 694 452 l 692 405 l 692 343 l 690 330 l 665 332 l 620 330 l 616 330 l 614 332 l 612 330 l 606 330 l 598 332 l 597 330 l 570 332 l 473 332 l 464 334 l 453 332 l 235 332 l 230 336 l 227 332 l 120 334 l 115 336 l 113 334 l 111 334 l 78 336 l 66 336 l 64 338 l 62 336 l 5 336 l 2 339 l 3 347 l 0 394 l 2 394 l 0 396 l 2 431 l 2 438 l 3 562 l 7 566 l 14 562 l 32 564 l 32 559 l 44 561 l 47 561 l 96 562 l 96 564 l 98 562 l 127 564 l 156 564 l 172 562 q 202 568 180 566 z "},".":{"ha":326,"x_min":-2,"x_max":221,"o":"m 5 216 l 138 216 q 177 214 163 216 l 218 216 q 215 208 218 208 l 216 194 l 218 194 l 218 199 l 221 199 q 216 187 221 187 l 216 78 l 218 77 l 216 75 l 216 39 l 218 33 l 216 31 l 218 20 l 218 3 l 216 1 l 216 0 l 176 1 l 16 1 l -1 0 l -1 66 l 3 113 q -2 117 -2 113 l -1 124 l -2 125 l -1 127 l -1 150 l -2 151 l -1 157 l -2 161 l -1 178 l -1 200 l -2 202 l -1 203 l -1 210 l -2 212 l -2 214 q 5 216 5 214 z "},"/":{"ha":340,"x_min":2,"x_max":243,"o":"m 204 1045 l 232 1044 l 232 1045 q 238 1040 238 1043 q 233 1038 238 1038 l 233 1036 l 238 1036 l 238 1028 l 237 1022 l 238 1011 l 238 839 l 237 821 l 238 802 l 238 620 l 237 606 l 238 604 l 238 602 l 237 601 l 238 583 l 238 503 l 237 501 l 238 497 l 235 461 l 238 453 q 235 436 235 448 l 235 429 l 237 427 l 235 425 l 235 424 l 237 422 l 233 402 l 235 401 l 235 399 l 233 377 l 233 371 l 232 365 l 233 359 l 233 354 l 232 353 l 232 351 l 233 351 l 232 349 l 232 324 l 233 324 l 235 332 l 238 332 l 238 315 l 237 315 q 233 321 233 315 l 232 321 l 232 306 l 233 300 l 232 298 l 232 296 l 233 289 l 232 278 l 233 270 l 232 265 l 233 264 l 232 253 l 232 227 l 239 230 l 239 107 l 241 76 l 239 45 l 239 -18 l 241 -43 l 239 -43 l 241 -45 l 241 -61 l 238 -61 l 239 -62 l 239 -64 l 238 -66 l 243 -98 l 241 -118 l 241 -120 l 238 -123 l 218 -123 l 216 -121 l 215 -123 l 13 -123 q 5 -118 13 -118 l 5 -115 l 7 -114 l 5 -112 l 5 -98 l 7 -96 l 5 -95 l 5 -73 l 3 -67 l 7 -52 l 5 -50 l 5 0 l 7 6 l 5 12 l 5 26 l 7 28 l 5 29 l 5 31 l 7 40 l 5 62 l 5 77 l 7 83 l 5 90 l 5 94 l 9 104 l 8 113 l 9 119 q 5 294 7 119 l 9 342 l 8 342 l 9 343 l 9 349 q 5 353 9 353 l 3 382 l 5 424 l 3 430 l 5 444 l 5 475 l 12 475 q 2 750 2 537 l 2 770 q 5 781 3 781 q 2 848 2 806 l 5 868 l 2 879 l 7 884 q 2 887 2 884 l 2 938 q 5 980 2 965 l 2 983 l 2 1039 l 12 1039 l 12 1042 l 19 1042 l 109 1044 l 143 1042 l 143 1040 l 145 1042 l 153 1040 l 154 1040 l 154 1044 l 172 1044 l 204 1045 z "},":":{"ha":326,"x_min":-4,"x_max":223,"o":"m 7 555 l 140 555 q 179 552 165 555 l 220 555 q 217 547 220 547 l 218 532 l 220 532 l 220 537 l 223 537 q 218 526 223 526 l 218 416 l 220 415 l 218 413 l 218 378 l 220 371 l 218 370 l 220 358 l 220 342 l 218 340 l 218 338 l 178 340 l 18 340 l 1 338 l 1 405 l 5 451 q 0 456 0 451 l 1 463 l 0 464 l 1 465 l 1 488 l 0 490 l 1 495 l 0 500 l 1 516 l 1 538 l 0 541 l 1 542 l 1 549 l 0 550 l 0 552 q 7 555 7 552 m 3 214 l 136 214 q 175 212 161 214 l 216 214 q 213 206 216 206 l 214 192 l 216 192 l 216 197 l 219 197 q 214 185 219 185 l 214 76 l 216 75 l 214 73 l 214 37 l 216 31 l 214 29 l 216 18 l 216 1 l 214 -1 l 214 -2 l 174 -1 l 14 -1 l -3 -2 l -3 64 l 1 111 q -4 115 -4 111 l -3 122 l -4 123 l -3 125 l -3 148 l -4 149 l -3 155 l -4 159 l -3 176 l -3 198 l -4 200 l -3 201 l -3 208 l -4 210 l -4 212 q 3 214 3 212 z "},";":{"ha":326,"x_min":-2,"x_max":237,"o":"m 7 555 l 140 555 q 179 552 165 555 l 220 555 q 217 547 220 547 l 218 532 l 220 532 l 220 537 l 223 537 q 218 526 223 526 l 218 416 l 220 415 l 218 413 l 218 378 l 220 371 l 218 370 l 220 358 l 220 342 l 218 340 l 218 338 l 178 340 l 18 340 l 1 338 l 1 405 l 5 451 q 0 456 0 451 l 1 463 l 0 464 l 1 465 l 1 488 l 0 490 l 1 495 l 0 500 l 1 516 l 1 538 l 0 541 l 1 542 l 1 549 l 0 550 l 0 552 q 7 555 7 552 m 7 109 l 19 109 l 29 107 l 31 109 l 32 109 l 42 107 l 47 109 l 55 107 l 90 109 l 94 107 l 96 109 l 104 107 l 111 109 l 117 107 l 125 109 l 135 107 l 140 109 l 148 107 l 171 107 l 172 109 l 174 107 l 197 107 l 199 109 l 200 107 l 205 107 l 205 109 l 216 107 l 226 107 l 228 99 l 228 97 l 229 68 l 224 11 l 226 9 l 226 7 l 224 3 q 228 -10 228 -2 l 229 -10 l 231 -2 l 234 -2 l 237 -14 l 236 -61 l 237 -77 l 236 -92 l 236 -106 l 234 -108 l 236 -110 l 233 -139 l 229 -139 l 229 -113 l 228 -113 l 226 -214 q 221 -217 221 -214 l 224 -220 l 224 -224 l 221 -224 q 168 -172 209 -218 l 166 -174 l 164 -174 l 153 -157 l 151 -159 l 149 -159 l 135 -140 l 133 -142 q 120 -126 133 -137 q 96 -105 105 -105 q 75 -79 96 -97 l 21 -23 q -1 7 -1 -1 l -1 42 l -2 66 l -1 79 l -2 102 q 7 109 -1 109 m 228 -37 l 228 -83 l 229 -83 l 231 -58 l 229 -37 l 228 -37 m 228 -94 l 228 -100 l 229 -100 l 229 -94 l 228 -94 z "},"=":{"ha":782,"x_min":-2,"x_max":696,"o":"m 200 739 q 214 732 200 734 l 254 734 l 256 734 l 264 732 l 271 734 l 273 734 q 288 728 278 730 l 410 734 l 433 732 l 442 732 l 456 734 l 485 730 l 495 732 l 517 732 l 518 730 l 520 732 l 524 732 l 531 730 l 532 732 l 554 730 l 570 730 l 577 728 l 584 730 l 595 730 l 612 728 l 623 730 l 637 725 l 637 728 l 659 727 l 665 727 l 667 725 l 669 725 l 669 728 l 676 728 l 674 727 l 674 725 l 677 725 l 677 728 q 690 720 686 728 l 692 718 l 694 718 l 692 696 l 692 658 l 690 656 l 692 654 l 692 647 l 690 637 l 692 628 l 690 626 l 692 624 l 690 576 l 690 515 l 688 502 l 663 504 l 618 502 l 614 502 l 612 504 l 610 502 l 604 502 l 596 504 l 595 502 l 568 504 l 471 504 l 462 505 l 451 504 l 233 504 l 228 507 l 224 504 l 118 505 l 113 507 l 111 505 l 109 505 l 76 507 l 64 507 l 62 509 l 60 507 l 3 507 l 0 511 l 1 518 l -2 566 l 0 566 l -2 568 l 0 603 l 0 610 l 1 734 l 5 737 l 12 734 l 30 736 l 30 730 l 42 732 l 45 732 l 94 734 l 94 736 l 96 734 l 125 736 l 154 736 l 170 734 q 200 739 178 737 m 202 385 q 216 378 202 380 l 256 380 l 258 380 l 266 378 l 273 380 l 275 380 q 290 374 280 376 l 412 380 l 435 378 l 444 378 l 458 380 l 487 376 l 497 378 l 519 378 l 520 376 l 522 378 l 526 378 l 533 376 l 534 378 l 556 376 l 572 376 l 579 374 l 586 376 l 597 376 l 614 374 l 625 376 l 639 371 l 639 374 l 661 373 l 667 373 l 669 371 l 671 371 l 671 374 l 678 374 l 676 373 l 676 371 l 680 371 l 680 374 q 692 366 688 374 l 694 364 l 696 364 l 694 342 l 694 304 l 692 302 l 694 300 l 694 293 l 692 283 l 694 274 l 692 272 l 694 270 l 692 222 l 692 161 l 690 148 l 665 150 l 620 148 l 616 148 l 614 150 l 612 148 l 606 148 l 598 150 l 597 148 l 570 150 l 473 150 l 464 151 l 453 150 l 235 150 l 230 153 l 227 150 l 120 151 l 115 153 l 113 151 l 111 151 l 78 153 l 66 153 l 64 155 l 62 153 l 5 153 l 2 157 l 3 164 l 0 212 l 2 212 l 0 214 l 2 249 l 2 256 l 3 380 l 7 383 l 14 380 l 32 382 l 32 376 l 44 378 l 47 378 l 96 380 l 96 382 l 98 380 l 127 382 l 156 382 l 172 380 q 202 385 180 383 z "},"?":{"ha":852,"x_min":-2,"x_max":749,"o":"m 548 979 l 565 977 l 576 979 l 591 977 l 606 977 l 616 979 l 627 976 l 628 976 l 628 979 q 709 951 676 979 q 749 878 749 906 l 747 878 l 749 876 l 749 867 l 745 853 l 749 850 l 749 823 l 747 817 l 749 808 l 747 789 l 749 783 l 747 764 l 747 760 l 749 743 l 747 718 l 747 694 l 745 614 l 744 612 l 744 610 l 745 608 l 744 547 l 744 482 l 747 482 l 745 480 l 745 479 l 747 468 l 745 467 l 745 465 l 747 459 l 736 438 l 740 438 q 707 380 740 418 q 631 353 670 353 l 630 354 l 604 353 l 548 353 l 543 356 l 541 356 l 541 353 l 532 354 l 513 354 l 513 365 q 509 354 509 365 l 495 354 q 492 359 495 359 l 490 358 l 490 353 l 492 353 l 490 340 l 490 242 l 488 230 l 477 230 q 427 237 460 230 l 427 235 q 381 239 416 239 l 330 239 q 243 235 270 239 l 239 244 l 241 271 l 239 316 l 241 337 l 239 347 l 250 358 q 239 361 250 361 l 238 370 l 239 379 l 238 384 l 239 421 l 239 446 l 241 446 l 247 444 l 247 446 l 243 561 l 243 578 l 245 596 l 243 597 q 248 603 248 597 l 250 601 l 252 601 l 464 603 l 465 594 l 467 594 q 471 601 471 594 l 490 605 l 492 596 l 502 597 l 502 605 q 497 608 502 608 l 495 610 l 495 636 l 497 642 l 495 650 l 495 718 l 500 726 l 500 727 l 494 736 l 494 745 l 492 745 q 485 730 488 745 l 393 729 l 350 729 l 348 727 l 347 729 l 320 727 l 215 727 l 199 729 l 191 727 l 178 729 l 178 727 l 176 729 l 155 729 l 87 732 l 80 730 l 73 732 l 37 730 l 0 730 l -2 743 l -2 755 l 0 781 q 5 771 3 781 l 7 771 l 7 777 l 5 795 l 7 795 q 0 869 0 815 l 0 918 l 1 951 l 0 953 l 0 955 l 1 965 l 1 977 l 19 976 l 231 976 l 229 974 l 229 970 l 262 967 l 268 969 l 268 970 l 239 970 l 239 974 l 280 977 l 413 977 l 413 974 l 408 974 l 408 972 l 423 972 l 423 977 l 434 977 l 434 974 l 535 977 l 535 976 l 534 970 l 535 970 l 548 979 m 393 974 l 392 972 l 392 970 l 393 970 l 404 972 l 404 974 l 393 974 m 357 972 l 357 970 l 374 970 l 374 972 l 357 972 m 276 970 l 276 969 l 292 969 l 292 970 l 276 970 m 317 970 l 317 969 l 338 969 l 338 970 l 317 970 m 313 100 l 360 100 l 397 99 l 431 100 l 485 100 l 488 97 l 488 6 l 486 4 l 488 -1 l 486 -9 l 488 -24 l 486 -24 l 488 -26 l 488 -27 l 486 -39 l 488 -45 l 486 -92 l 486 -214 l 485 -243 l 486 -258 l 483 -258 q 434 -210 434 -214 l 437 -210 l 437 -206 l 399 -171 q 238 3 238 -22 l 239 39 l 238 41 l 238 43 l 239 45 l 239 46 l 238 55 l 239 90 l 239 99 l 313 100 z "},"@":{"ha":1313,"x_min":0,"x_max":1208,"o":"m 679 708 l 642 710 l 551 708 l 545 709 l 543 708 l 538 710 l 533 709 l 519 709 l 519 713 q 513 710 515 710 l 513 636 l 510 632 l 510 631 q 513 629 513 631 l 512 621 l 513 619 l 517 621 l 532 621 q 533 616 532 616 q 535 621 535 616 l 552 621 l 585 621 l 592 621 l 593 621 l 595 621 l 598 621 l 598 621 l 600 621 l 600 621 l 602 621 l 602 621 l 604 621 l 604 621 l 610 621 l 617 621 l 620 621 l 624 621 l 628 621 l 650 622 l 659 621 l 667 621 l 667 623 l 667 623 l 670 621 l 687 621 l 688 616 l 689 616 l 690 621 l 698 621 l 698 623 q 694 627 694 623 l 698 631 l 690 632 l 691 635 l 689 653 l 689 676 l 696 684 l 696 686 l 694 686 l 690 682 l 689 682 l 689 697 l 694 696 l 698 696 l 700 699 l 693 699 l 689 699 l 689 703 l 692 708 l 687 711 l 686 709 l 684 709 l 682 714 l 682 714 q 679 708 679 714 m 859 85 q 919 134 889 100 q 1036 309 981 203 q 1092 568 1092 415 q 935 935 1078 795 q 609 1062 801 1062 q 343 969 470 1062 q 160 728 216 876 q 115 483 115 607 q 202 136 115 271 q 409 -61 290 1 q 625 -123 528 -123 q 1015 18 811 -123 l 1015 -33 q 628 -158 837 -158 q 315 -75 465 -158 q 83 157 165 8 q 0 470 0 306 q 84 785 0 634 q 318 1017 168 936 q 628 1098 469 1098 q 1041 942 873 1098 q 1208 558 1208 786 q 1089 227 1208 375 q 918 73 1001 130 q 859 37 886 54 l 855 37 q 742 144 810 78 l 743 144 l 743 146 q 696 186 734 149 l 696 189 l 699 190 q 696 197 696 193 l 696 243 l 696 247 l 696 251 l 696 264 l 696 266 l 696 267 l 696 317 l 696 318 l 696 319 l 696 366 l 696 370 l 696 374 l 696 377 l 698 391 l 696 393 l 696 401 l 694 418 l 696 425 l 694 430 l 694 433 l 699 433 q 696 440 696 437 q 699 442 699 440 l 698 445 l 713 445 l 716 447 l 716 448 l 694 448 l 694 449 l 694 450 l 693 452 l 691 452 l 688 450 l 686 450 l 686 452 l 685 452 l 680 450 l 674 451 l 630 449 l 629 450 l 619 449 l 595 449 l 585 448 l 583 449 l 583 448 l 582 449 l 574 449 l 565 450 l 555 449 l 538 449 l 538 455 q 536 449 536 455 l 528 449 l 517 450 l 517 447 l 517 441 q 509 438 509 441 l 509 437 l 517 436 l 513 369 l 515 323 l 515 323 q 519 271 519 309 l 519 196 l 515 192 l 510 192 l 503 194 l 404 193 l 403 192 l 401 192 l 401 193 l 399 193 l 391 191 l 366 192 l 351 192 q 343 229 345 195 l 344 232 l 342 250 l 343 251 l 342 258 l 342 308 l 341 318 l 342 318 l 341 319 l 341 406 l 344 452 l 341 460 l 341 511 l 340 534 l 341 536 l 341 536 l 340 541 l 341 547 l 340 555 l 339 600 l 340 601 l 340 602 l 339 608 l 340 627 q 338 641 340 641 l 339 642 l 339 656 l 338 661 l 339 661 l 338 662 l 339 667 l 339 693 l 338 699 l 339 704 l 339 731 l 338 734 l 339 739 l 339 754 l 340 772 l 339 793 l 339 852 l 340 858 l 339 859 l 339 860 l 340 863 l 339 871 l 339 875 l 366 873 l 369 873 l 369 876 l 363 876 l 363 880 l 552 880 l 567 880 l 579 880 l 591 880 l 626 878 l 626 878 l 627 878 l 644 878 l 674 878 l 673 873 l 749 876 l 753 875 l 758 876 l 769 875 l 793 876 q 828 865 816 876 q 859 825 846 855 q 863 781 861 808 l 861 780 l 863 775 l 863 699 l 861 686 l 863 667 l 863 523 q 864 475 863 489 l 863 475 l 864 468 l 864 425 l 863 416 l 863 298 l 863 288 l 863 279 l 863 238 l 863 201 l 859 134 l 861 133 l 859 126 l 859 102 l 859 92 l 859 92 l 859 85 z "},"A":{"ha":839,"x_min":-8,"x_max":736,"o":"m 315 976 l 332 975 l 350 975 l 399 973 l 399 972 l 400 973 l 424 972 l 467 972 l 466 965 l 573 969 l 579 968 l 586 969 l 602 968 l 635 970 q 685 955 668 970 q 728 898 711 941 q 734 835 732 874 l 732 833 l 734 827 l 734 720 l 732 700 l 734 675 l 734 470 q 736 403 734 422 l 735 401 l 736 392 l 736 330 l 734 319 l 734 152 l 735 138 l 734 125 l 734 66 l 735 15 l 730 -81 l 731 -83 l 730 -92 l 730 -127 l 728 -140 l 730 -141 l 730 -142 l 728 -165 l 728 -184 l 730 -190 l 728 -195 l 728 -218 l 724 -218 q 564 -67 659 -160 l 565 -66 l 565 -64 q 498 -7 552 -60 l 498 -3 l 503 -1 q 498 8 498 3 l 498 74 l 499 79 l 498 85 l 498 104 l 499 106 l 498 107 l 498 178 l 499 180 l 498 181 l 498 248 l 499 254 l 498 259 l 498 263 l 501 283 l 498 286 l 498 298 l 496 321 l 499 330 l 496 338 l 496 343 l 503 343 q 498 353 498 348 q 503 355 503 353 l 501 359 l 523 359 l 526 362 l 526 363 l 495 363 l 496 365 l 496 367 l 494 370 l 491 370 l 487 367 l 484 367 l 484 370 l 483 370 l 475 367 l 467 368 l 405 365 l 404 367 l 389 365 l 355 365 l 342 363 l 338 365 l 338 363 l 336 365 l 325 365 l 313 367 l 298 365 l 275 365 l 275 374 q 272 365 272 374 l 260 365 l 245 367 l 244 362 l 245 354 q 233 350 233 353 l 233 349 l 244 347 l 239 252 l 243 188 l 241 188 q 247 113 247 166 l 247 7 l 241 1 l 235 1 l 224 4 l 84 3 l 83 1 l 81 1 l 80 3 l 78 3 l 67 0 l 31 1 l 9 1 q -1 53 1 6 l 0 58 l -3 83 l -1 85 l -3 95 l -3 165 l -4 180 l -3 180 l -4 181 l -4 304 l 0 370 l -4 380 l -4 453 l -5 486 l -4 488 l -4 489 l -5 495 l -4 505 l -5 516 l -7 578 l -5 580 l -5 581 l -7 590 l -5 616 q -8 637 -6 637 l -7 638 l -7 658 l -8 665 l -7 665 l -8 667 l -7 673 l -7 711 l -8 718 l -7 726 l -7 764 l -8 770 l -7 775 l -7 798 l -5 823 l -7 853 l -7 935 l -5 944 l -7 945 l -7 947 l -5 951 l -7 964 l -7 968 l 31 965 l 35 966 l 35 969 l 28 970 l 28 975 l 294 975 l 315 976 m 474 732 l 421 734 l 293 732 l 285 733 l 281 732 l 275 734 l 268 733 l 248 733 l 247 739 q 239 734 242 734 l 239 630 l 235 625 l 235 623 q 239 621 239 623 l 237 608 l 239 606 l 245 608 l 265 608 q 268 602 265 602 q 271 608 271 602 l 294 609 l 340 608 l 351 609 l 353 608 l 355 608 l 360 609 l 360 608 l 361 609 l 363 609 l 364 608 l 366 608 l 367 609 l 368 609 l 377 608 l 387 609 l 391 608 l 396 609 l 402 608 l 434 610 l 445 609 l 456 609 l 456 612 l 458 612 l 462 609 l 486 609 l 487 602 l 488 602 l 490 609 l 501 609 l 501 612 q 495 618 495 612 l 501 623 l 490 625 l 491 629 l 488 654 l 488 687 l 498 699 l 498 700 l 496 700 l 490 694 l 488 694 l 488 717 l 495 715 l 501 715 l 504 718 l 494 720 l 488 720 l 488 725 l 492 732 l 486 737 l 484 733 l 480 733 l 479 741 l 477 741 q 474 732 474 741 z "},"B":{"ha":839,"x_min":0,"x_max":735,"o":"m 20 977 l 60 977 q 123 974 103 977 l 132 975 l 180 971 l 182 974 l 239 974 l 245 972 l 254 974 l 286 974 l 288 972 l 289 974 l 290 974 l 298 972 l 300 974 l 301 974 l 307 972 l 311 974 l 317 972 l 319 972 l 319 974 l 326 972 l 331 972 l 339 974 l 353 972 l 417 972 l 430 974 l 431 972 l 459 974 l 536 974 l 558 972 l 559 974 l 561 974 l 569 972 l 590 974 q 717 915 681 974 q 735 846 735 859 l 734 836 l 735 821 l 734 812 l 735 804 l 734 758 l 734 741 q 728 726 728 734 l 728 723 l 732 726 l 734 726 l 734 680 l 731 680 l 731 688 l 728 688 l 731 622 q 714 543 723 543 q 671 503 698 515 q 650 496 657 496 l 643 498 q 625 490 643 490 l 616 490 l 608 483 q 619 473 608 474 l 640 473 q 678 460 660 473 q 705 431 687 458 q 731 378 731 404 l 730 368 l 731 345 l 731 239 l 730 201 l 731 173 l 730 131 l 731 113 q 685 22 731 64 q 635 1 657 6 l 607 0 l 435 0 l 427 1 l 425 0 l 409 1 l 401 1 l 169 5 l 161 3 q 74 11 133 3 l 74 8 l 82 5 l 82 3 l 74 3 l 57 4 l 47 3 l 16 4 l 14 3 l 13 3 l 8 4 l 4 3 l 0 18 l 3 38 l 3 290 q 7 300 7 295 l 7 301 l 4 357 l 4 367 l 5 372 l 4 374 l 4 375 l 5 414 l 4 437 l 5 460 l 5 465 q 9 473 7 473 l 8 479 l 4 632 l 4 644 l 5 656 l 4 667 l 4 715 l 5 717 l 4 718 l 4 720 l 5 728 l 3 756 l 3 784 l 4 798 l 3 810 l 3 819 l 4 825 l 3 826 l 4 831 l 3 843 l 4 861 l 3 866 l 4 868 l 3 882 l 3 895 l 1 921 l 3 950 l 3 975 l 20 977 m 450 736 l 450 738 l 449 736 l 448 736 l 366 732 l 335 734 l 315 734 l 302 735 l 298 734 l 298 735 l 297 734 l 276 734 l 275 735 l 273 734 l 257 734 l 257 738 q 244 734 252 734 l 244 646 q 239 642 244 642 l 239 639 l 244 637 l 241 621 l 236 621 l 236 624 l 231 624 l 231 621 l 235 618 l 243 618 l 243 610 l 245 607 l 247 607 l 248 608 l 250 608 l 250 606 l 258 606 l 262 604 l 269 606 l 356 606 l 357 604 l 359 606 l 420 606 l 456 607 l 458 606 l 459 606 l 465 607 q 477 600 469 607 l 480 600 q 488 606 480 606 q 496 610 496 606 l 496 611 l 494 611 l 494 608 l 491 608 l 490 610 l 488 610 l 490 616 l 490 644 q 495 660 490 652 l 490 673 l 491 694 l 490 720 q 495 724 490 724 l 492 728 l 492 730 l 499 731 l 499 732 l 498 734 l 498 735 l 467 732 l 466 739 l 450 736 m 728 720 l 728 699 l 730 699 l 730 720 l 728 720 m 250 374 q 247 367 250 367 l 244 367 l 244 371 l 241 368 l 241 342 l 237 342 q 229 338 229 341 l 241 335 l 241 309 l 240 301 l 241 293 l 241 261 q 229 252 241 252 l 226 250 q 240 243 240 250 q 243 236 240 236 l 248 237 l 255 235 l 255 237 l 301 237 l 306 235 l 309 237 l 364 237 l 371 236 l 380 237 l 408 237 l 413 236 l 414 237 l 416 237 l 422 236 l 456 237 l 484 237 l 484 229 l 487 226 l 494 245 l 494 247 l 492 247 l 488 244 l 487 244 l 487 349 l 490 351 l 494 351 q 496 343 494 343 l 496 345 l 494 361 l 495 363 q 487 371 487 363 q 465 361 479 361 l 465 364 l 455 361 l 429 364 q 366 361 409 361 l 317 361 l 280 367 l 264 364 l 258 364 l 250 374 z "},"C":{"ha":843,"x_min":-2,"x_max":739,"o":"m 523 978 l 523 975 q 517 972 523 972 l 517 971 l 519 971 l 530 972 l 541 970 l 543 971 l 552 970 l 629 970 q 678 951 635 970 q 734 888 707 951 q 739 854 739 871 l 736 850 l 739 842 l 739 828 l 737 827 l 739 825 l 739 824 l 733 701 l 734 696 l 733 692 q 736 631 736 670 l 736 612 l 733 607 l 677 606 l 579 606 l 578 607 l 576 606 l 527 607 l 515 607 q 491 614 502 607 q 484 617 484 614 l 484 625 l 485 627 l 484 628 l 488 683 l 486 694 l 486 699 l 494 701 l 494 704 q 486 708 486 705 l 486 713 q 492 716 486 716 l 492 718 l 490 722 l 490 724 l 492 724 l 492 729 l 490 732 l 478 732 l 465 734 l 457 732 l 457 733 l 456 732 l 453 732 l 436 736 l 436 734 q 431 730 436 730 l 429 732 l 428 732 l 427 730 l 425 730 l 419 732 l 411 730 l 410 732 l 408 732 l 407 730 l 406 730 l 393 732 l 391 732 q 389 736 391 736 l 387 736 l 390 732 l 390 730 l 383 730 l 383 734 l 374 734 q 372 730 372 734 l 368 730 l 368 734 l 309 733 l 252 733 l 249 736 l 249 740 l 253 740 l 253 741 l 249 741 l 236 740 l 236 739 l 241 732 l 241 729 q 239 712 241 712 l 240 711 l 240 642 l 239 641 l 240 640 l 239 611 l 239 569 l 237 508 l 239 503 l 237 496 l 239 488 l 237 473 l 237 442 l 236 427 l 237 425 l 236 408 l 236 370 l 237 358 l 235 351 l 236 349 l 235 326 l 235 239 l 236 237 l 236 236 q 247 241 243 237 l 256 241 l 257 228 l 258 228 q 264 241 258 241 l 349 240 l 351 239 l 352 239 l 353 240 l 395 239 l 467 239 q 471 232 469 239 l 473 233 l 474 233 l 478 232 l 478 233 l 479 239 q 492 233 486 239 l 495 241 l 495 243 q 486 253 486 243 l 486 264 l 496 264 l 503 265 l 503 267 l 496 269 l 490 269 l 486 271 l 486 326 q 496 362 486 362 l 522 361 l 729 358 l 730 357 l 729 307 l 729 229 l 727 210 l 729 191 l 729 135 q 699 35 729 61 q 620 -3 666 -3 l 611 -3 l 610 -2 l 608 -3 l 602 -3 l 583 -5 l 564 -2 l 429 -2 l 393 -1 l 391 -2 l 390 -2 l 377 -1 l 353 -1 l 348 -2 q 304 1 340 1 l 189 1 q 181 3 181 1 l 180 2 l 149 2 l 142 3 l 134 2 l 102 2 q 62 15 83 2 q 41 26 57 21 q 7 75 7 58 q -2 111 -2 91 l 1 116 l -1 128 l 1 161 l -1 165 l 1 177 l 1 210 l 2 225 l 1 227 l 2 250 l 2 300 l 3 328 l 7 330 l 5 369 l 6 370 l 6 372 l 3 385 l 5 389 l 2 432 l 3 487 l 2 511 l 3 512 l 2 528 l 2 766 l 3 775 l 2 777 l 2 778 l 3 803 l 2 848 l 5 852 l 3 859 l 3 862 q 23 924 9 902 q 72 956 44 956 l 73 956 l 73 960 l 71 960 l 71 962 q 114 972 87 972 l 136 972 l 145 971 l 146 972 l 148 972 l 210 966 l 210 968 l 207 968 l 207 972 l 319 972 l 327 971 l 328 972 l 330 972 l 398 971 l 437 971 l 456 972 l 488 970 l 496 971 l 513 971 l 513 972 l 507 974 l 507 977 l 523 978 m 300 745 l 299 744 l 299 743 l 306 743 l 306 744 l 300 745 m 273 741 l 274 741 l 288 743 l 288 744 l 275 744 l 273 741 m 340 744 l 340 743 l 347 741 l 351 741 l 348 744 l 340 744 m 363 743 l 363 741 l 373 741 l 373 743 l 363 743 m 380 741 l 380 740 l 389 740 l 389 741 l 380 741 m 411 740 l 411 739 l 419 737 q 415 740 419 740 l 411 740 m 424 739 l 427 736 l 431 736 l 431 737 l 424 739 z "},"D":{"ha":841,"x_min":-1,"x_max":736,"o":"m 135 971 l 141 970 l 142 971 l 149 970 l 152 970 l 156 972 l 163 970 l 286 970 l 292 971 l 297 970 l 297 972 l 298 970 l 331 970 l 336 972 l 342 970 l 343 972 l 367 970 l 373 972 l 374 971 l 410 972 l 414 973 l 422 972 l 608 975 l 608 968 l 609 968 q 612 973 612 968 l 618 973 q 719 918 677 975 q 733 864 733 890 l 732 863 l 734 839 l 734 833 q 731 748 734 789 l 732 732 l 733 589 l 732 576 l 733 574 l 732 545 l 735 176 l 736 135 q 719 52 736 74 q 677 18 700 18 q 591 -3 620 -3 l 509 -4 l 496 -3 l 489 -5 l 489 -1 l 519 3 l 519 4 l 518 4 l 419 -4 l 262 -5 l 248 -4 l 243 -5 l 243 -4 l 241 -5 l 232 -4 l 191 -5 l 137 -3 l 119 -5 l 108 -4 l 104 -4 l 104 -6 l 95 -5 l 63 -5 l 11 -4 l 9 -6 l 7 11 q 12 21 9 11 l 11 22 l 10 42 l 12 47 l 10 49 l 10 50 l 12 66 l 7 135 l 12 279 l 14 279 l 14 283 l 11 288 l 15 295 l 14 302 l 16 307 l 15 309 l 17 374 l 16 378 l 17 387 l 16 397 l 15 405 l 19 423 l 18 431 l 15 431 q 7 382 11 397 l 5 382 l 5 405 l 7 406 l 5 408 l 5 422 q 11 504 4 471 q 6 538 6 511 l 6 539 l 10 541 l 7 546 l 9 547 l 9 549 l 7 587 l 10 631 l 7 631 q 5 627 7 627 l 3 627 l 3 629 l 1 666 l 3 666 l 1 667 q 5 852 1 754 l 5 876 l -1 906 q 4 964 0 951 l 41 964 l 60 967 l 130 970 l 135 971 m 468 754 l 463 733 l 254 730 l 249 732 q 242 728 242 730 l 242 715 l 239 715 l 239 711 l 242 711 l 244 706 l 243 682 l 245 502 l 244 500 l 245 499 l 246 453 l 245 433 l 247 429 l 245 424 l 247 422 l 245 417 l 245 345 l 247 328 l 245 312 l 247 308 l 245 302 l 245 296 l 247 291 l 245 287 l 248 287 l 245 286 l 246 260 l 243 250 l 246 250 l 246 248 l 243 248 l 243 246 l 234 248 l 234 249 l 235 250 l 235 252 l 228 253 l 218 252 q 246 243 218 248 l 243 235 l 276 230 l 280 233 l 311 232 l 385 233 l 387 231 l 388 233 l 425 232 l 471 233 l 472 210 l 475 210 l 475 226 l 475 233 l 481 233 q 484 226 484 233 l 488 224 q 501 233 488 233 l 499 235 l 499 236 l 500 240 l 496 241 l 496 264 l 494 275 l 496 286 l 496 299 l 494 315 l 495 332 l 494 352 l 499 361 l 498 361 l 496 360 l 495 360 l 496 364 l 494 384 l 495 455 l 493 469 l 494 471 l 494 472 l 493 473 l 494 501 l 493 577 l 494 578 l 493 580 l 493 587 l 494 588 l 493 589 l 494 606 l 492 680 l 492 690 l 493 691 l 492 692 l 491 699 q 497 701 491 701 l 497 703 q 492 705 497 705 l 492 717 q 496 720 496 717 l 492 721 l 492 724 l 494 725 l 492 726 l 492 734 l 482 733 l 471 733 l 471 754 l 468 754 z "},"E":{"ha":823,"x_min":0,"x_max":728,"o":"m 3 972 l 98 972 l 103 971 l 107 972 l 117 971 l 130 972 l 130 971 l 132 972 l 153 971 l 182 971 l 188 970 l 193 971 l 195 970 l 196 971 l 201 971 l 206 970 l 216 971 l 302 971 l 303 970 l 305 971 l 307 971 l 463 972 l 474 972 l 494 971 l 508 972 l 514 971 l 519 972 l 528 971 l 542 972 l 543 972 l 549 971 l 551 972 l 555 972 l 555 971 l 572 972 l 589 972 l 589 970 l 607 971 l 611 970 l 624 972 l 652 971 l 728 971 l 728 945 q 720 863 720 916 l 720 734 l 706 732 l 663 732 l 604 731 l 604 732 l 603 731 l 602 731 q 587 734 587 732 l 583 731 l 576 732 l 566 731 q 556 734 556 732 l 545 731 l 539 734 l 538 732 l 504 732 l 503 734 l 501 732 l 484 732 l 483 734 l 481 732 l 457 732 l 449 734 l 441 732 l 433 732 l 432 734 l 431 732 l 405 732 l 404 734 l 402 732 l 397 732 l 395 734 l 394 732 l 382 732 l 381 734 l 380 732 l 366 732 l 364 734 l 363 732 l 361 732 l 328 735 l 302 734 l 250 734 q 247 740 250 740 q 244 735 244 740 l 243 734 l 219 734 l 213 728 l 234 730 l 239 730 l 240 720 l 236 718 l 236 715 l 239 715 l 239 713 q 233 710 239 710 l 233 709 q 239 705 239 709 l 237 700 l 239 699 l 240 699 l 239 640 l 239 610 l 241 603 l 243 603 l 247 606 l 248 606 q 258 603 258 605 q 313 606 279 606 l 315 604 l 316 606 l 556 604 l 603 604 l 606 602 l 606 557 l 600 521 l 602 505 l 600 483 q 603 415 603 456 l 602 364 l 598 364 l 598 363 l 551 366 l 532 366 l 521 367 l 505 366 l 398 366 l 387 364 l 376 366 l 339 366 l 326 367 l 322 366 l 320 367 l 312 366 l 295 367 l 282 366 l 271 370 l 271 367 l 270 367 l 264 368 l 254 366 q 250 382 250 368 q 236 340 236 361 l 237 339 q 229 334 229 338 l 237 334 l 237 329 l 236 320 l 239 315 l 237 292 q 227 288 237 289 l 227 286 l 237 278 l 237 260 l 227 258 l 227 256 l 237 256 l 237 244 q 248 239 237 241 l 250 239 l 248 240 l 248 244 l 361 244 l 361 240 l 366 244 l 385 243 l 387 244 l 388 244 l 394 243 l 405 244 l 414 243 l 418 244 l 428 243 l 429 244 l 431 244 l 432 243 l 433 243 l 440 244 l 471 243 l 608 243 l 617 244 l 624 243 l 655 243 l 677 241 l 679 243 l 680 243 l 696 241 l 709 241 q 718 244 718 241 q 727 239 727 241 l 727 220 l 726 201 l 727 195 l 726 195 l 727 193 l 727 192 l 726 179 l 727 174 l 726 172 l 727 168 l 726 137 l 727 100 l 726 93 l 727 86 l 726 86 l 727 82 l 726 81 l 727 76 l 726 44 l 727 24 l 726 22 l 726 21 l 727 17 l 726 0 l 692 0 l 683 1 l 682 0 l 665 1 l 623 1 l 581 5 l 498 4 l 492 3 l 486 5 q 467 3 479 3 l 432 3 l 425 4 l 416 3 l 330 3 l 315 1 l 309 3 l 308 1 l 300 3 l 292 1 l 290 1 l 290 3 l 273 1 l 257 1 l 240 3 l 223 1 l 209 1 l 195 3 l 188 1 l 142 3 l 134 1 l 123 3 l 115 1 l 102 3 l 93 3 l 59 1 l 52 4 l 54 12 l 50 12 q 28 1 50 1 l 1 3 l 1 5 l 0 22 l 3 44 l 1 45 l 3 52 l 3 76 l 4 96 l 3 102 l 4 103 l 3 107 l 4 149 l 4 161 q 8 171 5 170 q 4 240 4 186 l 4 615 q 10 717 8 650 l 8 724 l 10 728 l 8 734 l 10 734 q 4 757 4 747 l 4 765 l 7 765 l 7 762 l 8 762 l 8 768 q 4 775 8 775 l 4 781 l 5 782 l 4 783 l 4 789 l 8 791 l 5 799 l 7 812 l 4 867 l 7 905 l 7 907 l 5 907 l 4 898 l 1 898 l 1 944 l 3 972 m 5 915 l 5 912 l 7 912 q 17 958 12 958 q 31 916 22 958 l 31 915 l 33 915 l 33 918 q 18 962 24 962 l 17 962 q 5 915 11 962 m 34 906 l 34 901 l 35 901 l 35 906 l 34 906 m 35 899 l 35 895 l 37 889 l 38 889 l 38 890 l 37 899 l 35 899 z "},"F":{"ha":841,"x_min":2,"x_max":752,"o":"m 572 977 l 582 975 l 604 975 l 643 974 l 643 975 l 657 972 l 665 975 l 671 972 l 671 974 l 673 972 l 677 972 l 678 974 l 680 972 l 692 972 l 705 974 l 707 972 l 708 972 l 715 974 l 717 972 l 718 972 l 720 974 l 726 972 l 743 972 q 748 964 746 972 l 745 882 l 747 736 l 752 735 l 752 730 l 751 730 l 749 731 q 699 726 749 728 l 637 730 l 606 728 l 566 730 l 532 728 l 530 726 l 526 728 l 452 730 l 434 728 l 407 730 l 328 730 l 307 731 l 292 728 l 290 730 l 289 730 l 281 728 q 275 736 275 730 l 273 736 q 267 728 272 728 l 249 730 l 252 720 l 242 715 l 242 714 q 252 711 252 714 l 249 704 l 252 670 l 251 657 l 252 657 l 251 656 l 251 614 q 246 612 251 612 l 246 609 q 252 606 252 609 q 246 595 252 602 l 260 595 l 264 596 l 272 595 l 338 595 q 354 597 349 595 l 367 596 l 373 597 l 381 596 l 390 596 l 403 597 l 408 596 l 416 597 l 422 596 l 429 597 l 435 596 l 454 597 l 478 596 l 484 597 l 498 596 l 507 597 l 511 596 l 519 597 l 536 596 l 545 597 l 545 596 l 546 597 l 556 596 l 557 596 l 569 597 l 585 596 l 591 596 l 616 597 l 618 562 l 618 541 l 617 539 l 618 538 l 618 427 q 621 390 618 399 l 618 369 l 620 356 l 618 356 l 557 360 l 555 360 l 555 359 l 582 356 l 582 353 l 578 353 l 578 351 l 572 353 l 534 353 l 515 355 l 513 353 l 512 353 l 496 355 l 477 355 l 477 356 l 479 360 q 429 351 444 357 l 361 351 l 334 353 l 333 351 l 332 351 l 323 353 l 304 351 l 303 353 l 302 353 l 282 349 l 272 350 l 264 349 l 255 355 l 252 355 l 249 351 l 249 332 q 246 321 249 321 l 249 316 q 245 298 247 298 l 246 267 l 246 180 l 245 167 l 246 163 l 245 161 l 245 157 l 246 157 l 245 140 l 245 106 l 246 83 l 245 64 l 241 -255 q 189 -207 236 -255 l 110 -129 q 25 -41 60 -81 l 25 -39 l 28 -39 l 29 -41 q 4 -1 35 -38 l 5 15 l 3 15 l 3 79 l 2 119 l 3 159 l 3 214 l 5 214 l 7 194 l 9 194 l 9 198 l 3 275 q 9 315 4 315 l 9 329 q 15 385 9 347 l 9 385 l 9 401 l 3 401 l 5 408 l 3 424 l 5 460 q 9 463 9 460 l 9 474 l 7 482 l 9 488 q 3 517 5 488 l 5 539 l 3 603 l 3 614 l 5 623 l 3 629 l 5 643 l 3 644 l 5 646 l 6 646 l 7 640 l 11 640 q 15 671 15 657 l 15 709 l 14 739 l 15 741 l 14 751 l 14 758 l 12 786 l 14 792 l 12 806 l 14 819 l 12 829 l 6 829 l 9 867 l 6 877 l 11 880 l 22 871 l 22 873 l 6 886 l 6 965 q 15 970 7 970 l 18 970 l 18 968 l 28 970 l 56 970 l 67 966 l 71 970 l 75 970 l 83 968 l 84 970 l 89 970 l 89 968 l 106 970 l 119 970 l 127 968 l 133 970 l 137 968 l 146 970 l 147 970 l 149 968 l 150 970 l 189 970 l 191 968 l 193 970 l 239 970 l 277 972 l 389 972 l 421 974 l 450 972 l 491 972 l 500 974 l 500 972 l 502 974 l 503 974 l 511 972 l 534 975 l 541 974 l 572 977 m 482 360 l 485 357 l 486 359 l 486 360 l 482 360 m 495 360 l 495 359 l 551 359 l 551 360 l 495 360 m 186 -159 l 188 -163 l 189 -163 l 189 -159 l 186 -159 z "},"G":{"ha":825,"x_min":0,"x_max":722,"o":"m 109 975 l 114 975 l 117 972 l 118 973 l 120 973 l 153 972 l 181 973 l 185 972 l 185 969 l 161 966 l 161 965 l 164 965 q 205 972 192 968 l 238 972 l 239 970 l 241 972 l 302 972 l 357 973 l 372 972 l 389 973 l 411 972 l 429 973 l 433 972 l 446 973 l 465 972 l 476 973 l 484 972 l 497 973 l 497 972 l 498 973 l 500 973 l 504 972 l 507 972 l 507 973 l 599 970 q 608 965 602 970 q 612 970 610 970 l 620 970 q 668 949 647 970 l 668 952 q 703 919 680 952 q 718 865 709 919 l 717 865 l 722 825 l 721 817 l 722 812 l 721 789 l 721 756 l 722 743 l 721 742 l 721 738 l 722 738 l 721 721 l 721 671 l 720 665 l 721 660 l 721 644 l 720 639 l 721 635 q 717 611 720 611 l 703 611 l 677 612 l 654 611 q 537 616 569 612 l 536 615 l 534 615 l 517 616 l 517 614 l 511 614 l 511 616 l 507 620 l 500 618 l 498 618 q 489 628 489 618 l 489 705 q 494 713 489 713 l 494 714 q 489 717 494 717 l 489 724 l 501 727 l 501 728 l 500 728 l 492 727 l 490 727 l 492 732 l 489 739 l 488 739 l 483 735 l 480 735 l 480 736 l 471 735 l 425 735 l 423 736 l 422 735 l 411 735 l 366 736 l 366 741 l 363 741 q 361 736 363 736 l 274 736 l 271 739 l 271 747 l 273 753 l 271 759 q 267 741 267 759 l 267 736 l 254 736 l 243 739 q 235 732 239 732 l 237 726 l 237 714 l 238 701 l 237 701 l 238 699 l 238 697 l 237 693 l 238 689 l 237 678 l 238 650 q 230 492 230 583 l 229 481 l 233 484 l 234 484 l 234 471 l 231 471 l 230 450 l 230 443 l 231 387 l 233 389 l 235 389 l 235 378 l 231 378 q 235 305 235 336 l 235 267 l 234 262 l 235 256 l 235 255 l 234 242 l 235 238 l 242 239 l 246 237 l 248 238 l 280 238 q 283 233 280 233 l 284 238 l 472 235 l 473 234 l 475 234 l 488 237 l 488 238 l 484 238 l 484 241 q 496 248 488 248 l 503 248 l 503 251 q 494 254 494 252 l 493 252 l 488 252 q 481 262 481 254 l 481 271 l 489 315 l 481 315 l 481 342 q 489 345 489 342 l 489 348 l 481 349 l 481 355 q 486 358 481 358 l 486 359 l 484 361 l 486 362 l 486 363 l 480 369 q 469 363 476 369 l 467 363 l 467 365 l 465 363 l 464 363 q 439 366 439 364 l 439 369 l 437 369 l 437 365 l 426 365 q 422 370 422 365 l 420 372 l 419 372 l 422 365 l 363 365 l 359 369 l 361 378 l 361 402 l 362 408 l 359 422 l 361 426 l 359 441 l 359 463 l 362 467 l 362 468 l 359 472 l 359 477 q 374 484 359 481 l 381 483 l 393 483 l 399 484 l 459 477 l 459 480 l 455 480 l 455 483 l 709 483 q 721 471 721 483 l 720 427 l 720 385 l 718 344 l 720 342 l 718 328 l 718 136 l 717 99 q 711 90 714 99 l 717 89 q 686 33 697 37 l 685 33 l 685 35 l 699 90 l 697 92 l 696 92 l 677 25 q 615 0 646 0 l 607 0 q 602 9 607 6 q 597 0 597 9 l 538 0 l 533 1 l 532 0 l 530 0 l 299 3 l 295 4 l 288 3 l 284 3 l 283 4 l 281 3 l 195 4 l 124 4 l 121 1 l 118 1 l 118 3 l 104 1 l 103 1 q 58 16 89 1 q 26 45 37 29 q 36 53 33 47 l 36 54 q 24 47 29 47 l 22 47 q 9 75 9 69 l 11 83 q 4 109 9 109 q 0 118 1 109 l 4 118 l 4 120 l 0 125 l 0 326 l 1 352 l 0 353 l 1 359 l 3 463 l 3 512 l 4 528 l 3 529 l 4 536 l 4 586 q 8 636 4 636 l 7 637 l 7 639 l 8 659 l 4 659 l 5 673 l 5 688 l 12 771 l 9 771 l 7 743 l 7 741 l 3 741 l 3 824 l 7 824 q 3 842 5 842 l 4 848 l 3 861 q 47 945 3 903 q 109 975 85 975 m 128 965 l 128 964 l 139 962 l 159 965 l 159 966 l 155 966 l 128 965 m 94 962 l 120 962 l 120 964 l 103 965 l 96 965 l 94 962 m 58 934 l 58 928 l 61 928 l 61 931 l 58 934 m 460 479 l 460 477 l 465 476 l 467 477 l 468 477 l 469 476 l 472 476 l 472 477 l 465 479 l 460 479 z "},"H":{"ha":829,"x_min":-4,"x_max":730,"o":"m 18 977 l 25 975 l 50 975 l 55 977 l 63 974 l 71 977 l 80 975 l 132 974 l 143 975 l 168 974 l 197 974 l 204 972 l 204 974 l 205 972 l 237 972 l 240 970 q 235 713 240 876 l 235 640 l 224 638 l 224 637 q 235 631 224 633 l 235 625 q 237 607 235 614 l 249 610 q 290 604 262 604 l 308 604 l 315 606 l 315 607 l 308 607 l 311 610 l 323 610 l 323 607 l 317 607 l 317 606 l 326 604 l 328 606 l 329 606 l 440 607 l 452 608 l 455 600 q 458 606 458 600 l 460 607 l 484 607 l 493 606 l 494 607 l 494 608 q 488 613 488 608 l 488 625 l 494 627 l 494 628 l 488 631 l 489 655 l 489 764 l 490 784 l 489 791 l 490 793 l 489 797 l 490 833 l 490 835 l 492 840 l 490 846 l 492 850 l 490 852 l 492 873 l 492 897 l 493 957 l 492 966 q 511 974 492 974 l 704 974 l 705 972 l 707 974 l 711 974 q 722 970 722 974 l 721 962 l 722 957 l 724 957 l 724 972 l 728 972 l 729 933 l 728 922 l 730 891 l 729 882 l 730 861 l 729 766 q 725 762 729 762 l 725 760 l 726 747 l 725 746 l 726 739 l 726 724 l 728 720 l 728 717 l 726 717 l 725 633 l 725 591 l 726 555 l 725 551 q 729 517 728 547 l 730 513 l 729 490 l 730 485 l 729 475 l 728 307 l 728 197 l 726 182 l 728 170 l 728 144 l 726 128 l 728 124 l 726 123 l 728 109 l 728 -202 l 726 -226 l 725 -226 q 665 -171 707 -216 q 527 -37 654 -164 q 486 17 486 -3 l 486 33 l 485 44 l 486 55 l 486 69 l 488 71 l 486 75 l 489 114 l 486 146 l 488 146 l 486 151 l 489 169 l 488 203 l 488 250 l 494 323 q 490 313 491 323 l 488 313 l 488 318 q 490 334 488 334 q 507 339 507 335 l 490 339 l 490 343 l 511 342 l 511 338 l 513 338 q 522 342 520 338 l 522 343 l 492 346 l 492 347 l 496 368 l 496 370 l 489 368 l 488 368 q 484 377 488 376 l 482 367 l 472 367 l 467 368 l 456 367 l 267 367 l 266 372 l 263 372 q 254 367 263 367 q 249 374 249 367 l 248 374 q 245 370 248 370 q 241 374 241 370 l 237 374 l 237 370 l 233 354 l 235 332 l 227 329 q 235 323 227 327 l 235 304 l 236 305 l 239 305 l 239 301 l 235 301 q 239 249 236 260 l 237 248 l 239 241 l 239 224 l 237 170 l 239 151 l 237 149 l 237 148 l 239 142 l 237 130 l 239 107 l 239 66 l 237 61 l 239 55 l 239 52 l 237 52 l 239 45 l 239 39 l 237 12 q 156 5 188 5 l 98 6 l 97 5 l 96 5 l 89 6 l 0 9 l -1 10 l -1 13 l -3 51 l -1 59 l -3 65 l -1 114 l -1 249 q 7 353 -1 270 q 0 323 3 353 l -3 323 l -3 361 l -4 363 l -3 364 l -3 374 l -4 375 l -3 377 l -4 412 l -4 414 l -3 430 l -4 431 l -4 433 l -3 439 l -4 439 l -3 440 l -3 454 l -4 460 l -3 461 l -4 475 l -3 498 l -4 511 l -3 511 l -4 513 l -3 523 l 0 575 l -3 582 l 5 783 l 4 794 l 13 871 l 10 871 l 4 832 l 1 832 q 14 915 9 915 l 16 915 l 16 908 l 14 906 l 14 905 l 16 905 l 24 960 l 22 960 q 14 935 18 960 q 7 918 12 935 l 4 918 q 18 977 8 977 m 721 941 l 721 933 l 722 923 l 724 923 l 724 927 l 722 936 l 724 944 l 721 941 m 722 919 l 721 912 l 724 912 l 724 919 l 722 919 m 14 897 l 12 880 l 12 876 l 13 876 l 16 894 l 16 897 l 14 897 m 722 881 l 722 880 l 725 877 l 725 878 l 722 881 m 544 326 l 548 323 l 548 329 l 547 329 l 544 326 z "},"I":{"ha":340,"x_min":0,"x_max":246,"o":"m 39 979 l 65 976 l 66 977 l 77 976 l 134 975 l 136 976 l 137 976 l 146 975 l 159 975 l 164 973 l 170 976 l 178 973 l 178 975 l 180 973 l 218 973 l 219 975 l 220 973 l 246 973 q 239 854 246 915 l 241 848 l 238 840 l 241 840 l 241 843 l 242 842 l 243 842 l 242 810 l 242 796 l 241 795 l 242 793 l 242 781 q 238 770 242 770 l 241 670 l 241 657 l 243 646 l 239 500 l 241 499 l 241 498 l 239 482 l 239 476 l 241 469 l 239 460 l 239 434 l 238 425 q 241 407 241 419 l 241 376 l 242 330 l 241 281 l 241 226 q 238 197 241 197 l 241 189 l 241 118 l 242 92 l 241 90 l 242 76 l 242 -16 l 241 -32 q 243 -62 243 -43 l 242 -81 l 243 -83 l 243 -84 q 239 -90 241 -90 q 243 -125 241 -90 l 242 -125 l 243 -127 l 243 -151 l 242 -157 l 243 -166 l 243 -175 l 242 -189 l 243 -203 l 242 -204 l 242 -205 l 243 -212 l 243 -217 l 242 -226 l 243 -231 l 241 -248 q 161 -170 233 -248 q 64 -66 64 -72 l 41 -36 l 41 -37 l 50 -49 l 50 -52 l 48 -52 q 5 -2 5 -13 l 3 3 l 3 14 l 4 14 l 12 8 l 12 9 q 3 25 3 18 l 3 43 l 1 66 l 3 70 l 1 76 l 3 119 l 3 131 l 1 170 l 3 210 l 3 236 l 1 267 l 3 267 l 1 269 l 3 278 l 1 292 l 3 299 l 1 322 l 1 347 l 0 380 l 1 391 l 0 395 l 1 395 l 0 400 l 9 448 l 3 584 l 4 584 l 3 585 l 3 604 l 4 608 l 3 615 l 3 762 l 4 796 l 3 802 l 9 854 l 9 857 l 7 857 l 9 871 l 9 905 l 10 915 l 13 915 q 16 911 13 911 q 9 928 11 928 l 10 935 l 10 967 l 9 977 l 13 977 q 16 973 16 977 l 18 973 l 18 975 l 17 976 l 17 977 l 28 977 l 39 979 m 238 798 l 238 792 l 239 792 l 239 798 l 238 798 m 22 -7 l 22 -10 l 24 -12 l 26 -12 l 24 -7 l 22 -7 z "},"J":{"ha":468,"x_min":0,"x_max":364,"o":"m 284 979 l 286 979 q 307 973 294 973 l 309 977 l 318 975 l 326 975 l 345 976 l 359 975 l 358 970 q 361 895 361 946 l 358 841 l 358 827 l 362 656 l 362 597 q 355 585 355 591 l 355 584 l 362 585 l 362 581 q 355 576 358 581 l 355 572 l 357 573 l 362 573 l 361 351 l 364 115 q 293 8 364 44 q 259 3 277 3 l 240 4 q 230 1 230 3 l 223 3 l 219 3 l 214 1 l 212 3 l 205 1 l 141 1 l 100 0 l 99 1 l 92 0 l 88 0 l 42 1 l 38 0 l 25 1 l 5 1 q 1 11 1 1 l 0 11 l 1 18 l 1 38 l 3 39 l 1 41 l 1 42 l 0 106 l 1 106 l 0 107 l 1 117 l 0 134 l 1 134 l 0 135 l 0 140 l 1 141 l 0 145 q 7 240 0 240 l 31 239 l 35 240 l 50 237 l 73 239 l 88 239 l 96 237 l 102 239 l 104 231 l 115 241 l 120 239 l 120 241 l 121 241 l 120 260 l 121 400 l 121 442 l 120 659 l 119 665 l 121 679 l 119 700 l 119 907 l 120 941 l 119 943 l 119 944 l 120 945 l 119 952 l 119 969 q 128 975 119 971 l 135 973 l 136 973 l 166 972 l 174 975 l 184 973 l 185 975 l 186 975 l 189 973 l 198 975 l 205 975 l 210 973 l 216 975 l 223 975 l 229 973 l 233 975 l 245 973 l 254 975 l 258 973 l 271 975 l 284 975 l 284 979 m 326 947 l 328 947 l 330 949 l 330 951 l 326 947 z "},"K":{"ha":835,"x_min":-2,"x_max":736,"o":"m 12 983 l 41 983 l 50 982 l 54 983 l 58 982 l 60 983 l 62 983 l 63 982 l 67 982 l 67 983 l 84 982 l 129 982 l 172 981 l 177 982 l 205 981 l 245 981 l 245 962 l 243 937 l 245 927 l 243 865 l 243 840 l 241 838 l 243 837 l 241 743 l 241 656 q 236 647 241 649 l 222 648 q 216 644 216 646 l 231 642 l 237 642 l 240 640 q 232 635 232 638 l 240 634 l 240 623 q 229 618 230 623 l 229 617 q 253 612 243 612 l 279 612 l 287 610 l 304 613 l 305 612 l 312 613 l 317 613 l 323 612 l 332 613 l 342 613 l 343 612 l 345 613 l 347 613 l 355 612 l 364 613 l 366 612 l 367 612 l 369 613 l 385 612 l 387 612 l 410 613 l 436 612 l 479 612 q 483 603 483 610 q 497 612 488 612 l 497 613 l 491 620 l 491 633 l 492 634 l 491 635 l 492 685 l 492 701 l 491 702 l 492 703 l 492 732 q 498 736 498 732 l 497 743 l 498 747 l 494 806 l 496 806 l 494 808 l 496 852 l 496 927 l 497 968 l 496 977 l 497 978 l 507 978 l 508 977 l 509 978 l 511 978 l 517 977 l 526 978 l 538 977 l 539 978 l 543 977 l 578 978 l 587 977 l 601 978 l 608 978 l 616 977 l 625 978 l 627 977 l 633 978 l 650 978 l 686 977 l 715 978 q 735 972 735 978 l 736 965 l 736 962 l 735 961 l 736 960 l 735 936 l 735 931 l 734 709 l 732 692 l 735 689 l 735 688 l 732 661 l 732 654 l 731 652 l 732 651 l 732 624 q 713 543 723 555 q 674 511 684 514 q 644 497 663 497 l 631 500 l 631 497 l 632 496 l 632 494 l 616 492 l 611 493 l 610 492 l 610 490 l 612 486 l 619 488 q 721 420 679 488 q 731 379 731 395 l 729 368 l 731 344 l 729 218 l 728 218 l 729 217 l 726 134 l 725 132 l 726 127 l 725 31 l 724 30 l 724 28 l 725 22 l 724 18 l 725 13 l 724 5 l 725 -4 l 724 -9 l 724 -12 l 725 -12 l 724 -42 l 724 -45 q 720 -234 724 -157 l 718 -234 q 519 -41 703 -227 q 486 -4 486 -7 l 487 7 l 486 14 l 487 34 l 486 43 l 488 52 l 486 76 l 487 76 l 486 77 l 486 79 l 487 85 l 486 100 l 486 102 l 487 131 l 486 137 l 487 137 l 486 138 l 486 149 l 487 162 l 486 168 l 487 172 l 486 180 l 487 182 l 486 183 l 486 186 l 487 187 l 486 189 l 487 210 l 487 251 l 488 268 l 487 268 l 488 269 l 487 279 l 490 344 l 488 344 l 490 345 l 488 359 l 488 361 q 496 365 488 365 l 487 375 q 483 369 484 375 l 391 369 l 377 370 l 370 369 l 273 370 l 266 370 q 263 375 266 375 q 253 370 258 370 l 249 370 l 249 376 q 239 359 239 376 q 228 352 233 352 l 228 351 q 239 347 239 349 l 239 337 q 231 334 231 337 q 239 324 239 334 l 240 315 l 239 294 l 240 280 l 239 279 l 239 275 l 240 275 l 239 230 l 239 4 l 235 0 l 212 0 l 197 1 l 195 0 l 181 1 l 143 1 l 135 3 l 133 1 l 109 3 l 1 3 l -1 4 l -2 4 l 1 18 l -1 24 l 1 96 l 1 117 l 2 132 l 1 144 l 2 145 l 1 149 l 2 151 l 2 153 l 1 153 l 2 175 l 2 298 l 3 311 l 2 313 l 3 320 l 3 391 l 2 430 l 3 442 l 2 444 l 2 446 l 6 459 q 3 520 3 478 l 3 568 l 5 574 l 3 575 l 5 592 l 5 630 l 6 635 l 5 637 l 6 686 l 6 770 l 8 841 l 6 846 l 8 857 l 8 859 l 6 880 l 8 881 l 6 898 l 6 978 l 12 983 z "},"L":{"ha":884,"x_min":0,"x_max":789,"o":"m 31 977 l 257 977 l 258 954 l 258 897 l 257 895 l 258 894 l 258 892 l 262 490 l 262 409 l 260 404 l 262 397 l 260 391 l 262 386 l 260 384 l 262 382 l 260 331 l 260 292 l 258 287 l 260 281 l 260 276 l 258 258 l 260 257 l 281 260 l 283 260 l 287 250 q 292 260 289 250 l 315 260 l 323 258 l 332 262 l 337 260 l 341 262 l 342 260 l 351 262 l 361 260 l 365 262 l 386 260 l 402 262 l 411 260 l 414 260 l 414 262 l 420 260 l 522 262 l 551 262 l 568 260 l 579 262 l 584 262 l 593 260 l 598 262 l 609 260 l 613 262 l 622 260 l 641 262 l 648 260 l 648 262 l 650 260 l 652 260 l 657 262 l 678 260 l 684 262 l 688 260 l 701 262 l 705 260 l 727 262 l 774 262 l 785 260 l 785 231 l 783 149 l 789 55 l 787 53 l 787 52 l 789 46 l 787 46 l 789 44 l 789 40 l 787 31 l 789 26 l 787 25 l 787 24 l 789 16 l 787 9 l 789 3 l 787 1 l 587 1 l 581 3 l 574 1 l 494 1 l 488 0 l 481 1 l 469 1 l 404 0 q 330 6 372 6 l 306 6 l 304 7 l 303 6 l 291 6 l 263 7 l 232 6 l 222 6 l 213 5 l 212 6 q 105 1 152 1 l 66 1 l 0 3 l 1 35 l 0 65 l 1 102 l 1 127 l 3 133 l 1 139 l 1 155 l 3 161 l 1 163 l 3 188 l 3 231 l 5 349 l 3 387 l 5 396 l 3 397 l 3 399 l 5 408 l 5 409 l 3 411 l 5 412 l 5 480 q 1 653 5 593 l 3 654 l 1 663 l 0 749 l 1 755 l 0 760 l 0 762 l 1 762 l 0 777 l 0 972 q 31 977 0 977 z "},"M":{"ha":1367,"x_min":0,"x_max":1264,"o":"m 41 979 l 45 977 l 42 973 l 45 973 l 71 977 l 289 975 l 311 977 l 353 977 l 450 975 l 543 975 l 593 973 l 597 975 l 612 973 l 613 973 l 628 975 l 631 975 l 631 973 l 652 975 l 671 975 l 779 976 l 781 977 l 782 977 l 783 976 l 798 977 l 1048 977 l 1062 976 l 1062 977 l 1063 976 l 1065 976 l 1177 970 q 1181 973 1177 973 q 1230 943 1230 954 q 1253 903 1253 915 l 1253 886 l 1254 886 l 1254 900 l 1258 900 q 1264 864 1264 882 l 1264 825 l 1263 692 l 1261 691 l 1261 690 l 1263 685 l 1260 611 l 1260 601 l 1263 422 l 1263 342 l 1260 87 l 1260 68 q 1264 43 1260 47 l 1264 -246 l 1263 -246 l 1110 -87 l 1049 -21 l 1024 4 q 1014 111 1019 39 l 1014 114 l 1016 114 l 1014 129 l 1014 166 l 1013 175 l 1014 176 l 1014 178 l 1013 220 l 1013 258 l 1014 260 l 1013 261 l 1013 284 l 1016 296 l 1013 313 l 1013 338 l 1014 355 l 1013 377 l 1013 471 l 1014 495 l 1013 500 l 1014 511 l 1013 526 l 1014 531 l 1013 538 l 1014 546 l 1013 557 l 1014 575 l 1013 579 l 1014 588 l 1013 592 l 1014 600 l 1016 719 q 1020 722 1020 719 l 1014 726 l 1002 722 l 992 723 l 975 723 q 966 733 966 723 l 965 734 l 963 734 l 962 724 l 909 727 l 856 724 l 791 726 l 776 727 l 774 722 l 757 723 l 755 722 l 755 697 q 747 681 747 686 l 747 677 q 755 616 747 661 l 753 579 l 753 323 l 755 2 l 712 2 l 696 1 l 684 2 l 680 1 l 673 2 l 659 1 l 618 4 l 616 2 l 608 4 l 536 2 l 530 1 l 524 2 l 516 1 l 506 5 l 504 63 l 504 143 l 503 181 l 504 182 l 504 184 l 503 190 l 503 197 l 506 197 l 507 185 l 510 185 l 513 203 l 513 204 q 509 254 513 237 l 510 260 l 509 260 l 510 261 q 503 409 504 311 l 504 409 l 503 410 l 503 457 l 504 458 l 503 460 l 503 484 l 504 530 l 507 530 l 511 448 l 513 448 l 513 456 q 507 663 507 541 l 507 678 l 510 678 l 513 644 l 516 644 l 513 685 l 516 685 l 516 688 q 507 714 508 688 l 510 717 l 510 722 l 492 719 l 384 722 l 309 722 l 304 720 l 298 722 l 296 722 l 283 720 l 269 722 l 260 722 l 258 720 l 257 720 l 257 723 l 256 723 q 250 710 252 723 l 243 705 l 243 703 q 247 695 247 703 l 247 694 l 241 694 q 248 691 241 691 l 248 678 l 250 677 q 247 643 247 669 l 247 522 l 245 392 l 244 392 l 245 390 l 245 348 l 244 347 l 245 345 l 245 344 l 244 255 l 245 236 l 244 200 l 245 142 l 244 142 l 245 140 l 245 136 l 244 134 l 245 133 l 245 117 l 247 43 l 245 41 l 245 40 l 247 35 l 247 9 l 245 8 l 247 7 l 247 4 q 243 1 247 1 l 71 4 l 67 2 l 51 4 l 26 4 l 18 5 l 9 4 q 1 17 1 4 l 1 40 l 4 45 l 1 53 l 4 357 l 3 367 l 4 390 l 4 395 l 3 418 l 4 446 l 4 481 l 3 505 l 4 507 l 4 508 q 1 634 1 551 l 1 643 l 4 643 l 4 653 l 1 653 l 4 691 q 0 813 0 755 l 0 839 l 1 845 l 0 851 l 0 920 l 1 929 l 0 937 l 0 971 q 12 977 0 975 l 24 977 l 41 979 m 1253 877 l 1253 874 l 1254 867 l 1255 867 l 1255 874 l 1253 877 m 314 732 l 314 727 l 315 727 l 317 732 l 314 732 m 511 446 l 511 437 l 513 429 l 514 429 l 514 431 l 513 446 l 511 446 m 513 428 l 513 419 l 516 416 l 516 418 l 514 428 l 513 428 m 514 409 l 514 404 l 516 404 l 516 409 l 514 409 m 514 396 l 514 395 l 517 392 l 517 393 l 514 396 m 516 385 l 516 382 l 519 378 l 519 382 l 516 385 m 519 364 l 519 358 l 520 358 l 520 364 l 519 364 m 519 354 l 522 351 l 522 357 l 519 354 z "},"N":{"ha":839,"x_min":-4,"x_max":737,"o":"m 16 977 l 83 977 l 116 975 l 125 977 l 153 974 l 181 975 l 197 974 l 235 975 l 258 975 l 263 974 l 265 975 l 288 974 l 427 974 l 456 972 l 464 974 l 464 972 l 465 974 l 500 974 l 530 972 l 531 974 l 532 974 l 543 972 l 606 974 l 606 972 l 608 971 l 608 970 l 614 972 l 640 966 l 647 966 l 655 967 q 724 928 701 964 l 737 847 l 736 797 l 736 781 l 737 731 l 736 677 l 736 610 l 734 587 l 736 587 l 734 583 l 733 433 l 732 433 l 733 429 l 729 256 l 730 255 l 730 254 l 729 241 q 726 142 728 142 l 724 142 l 724 124 l 722 118 q 726 90 726 112 l 726 77 l 725 57 l 726 56 l 726 54 l 725 37 l 726 1 l 725 -3 q 728 -70 728 -22 l 728 -90 l 729 -115 l 728 -134 l 728 -136 l 729 -148 l 728 -155 l 729 -156 l 729 -157 l 724 -177 l 724 -248 l 722 -248 q 670 -191 673 -202 q 530 -37 530 -49 l 496 -5 q 493 87 495 24 l 495 92 l 493 93 l 493 94 l 495 104 l 493 115 l 495 119 l 493 132 l 493 142 l 495 148 l 493 157 l 493 182 q 505 305 493 231 l 500 312 l 500 315 q 506 362 500 338 l 505 366 l 502 366 q 496 344 499 366 l 493 344 l 493 465 q 496 699 493 619 q 524 705 510 705 l 524 706 l 515 706 l 496 705 l 496 719 q 500 731 497 731 l 499 737 q 489 732 494 732 l 471 732 l 471 736 l 470 756 l 471 756 l 470 761 l 469 761 q 464 743 464 761 l 464 736 l 461 732 l 408 732 l 385 731 l 359 732 l 311 732 l 307 736 q 286 731 301 731 l 284 732 l 283 732 l 281 731 l 280 731 l 268 734 l 259 732 l 256 732 l 247 734 q 243 692 243 725 l 243 656 l 241 654 l 243 653 l 243 652 l 241 648 l 241 645 l 243 645 l 241 621 l 241 575 q 239 460 241 503 l 240 429 l 239 316 l 241 151 l 241 -1 l 231 -1 l 199 0 l 193 -1 l 145 0 l 45 0 l 18 1 l 17 0 l 16 0 l -4 3 l -4 5 l 1 8 l 0 15 l 3 337 l 4 341 l 3 348 l 3 351 l 4 358 l 3 368 l 4 376 l 4 379 l 3 379 l 4 416 l 4 612 l 5 613 l 4 614 l 4 616 l 5 631 l 4 633 l 4 634 l 5 640 l 4 640 l 5 641 l 5 670 l 4 671 l 5 673 l 5 674 l 4 675 l 5 682 l 5 684 l 4 690 l 7 699 l 5 701 l 7 711 l 7 728 l 5 736 l 7 737 l 5 737 l 7 739 l 7 765 l 8 857 l 7 871 l 8 917 l 8 975 l 16 977 m 718 258 l 718 251 l 719 251 l 719 258 l 718 258 m 719 214 l 719 205 l 720 205 l 720 214 l 719 214 m 720 197 l 719 193 l 720 188 l 722 188 l 722 197 l 720 197 m 720 181 l 720 177 l 722 167 l 724 167 l 724 181 l 720 181 z "},"O":{"ha":835,"x_min":-2,"x_max":734,"o":"m 529 979 l 535 977 l 535 979 l 536 977 l 570 977 l 591 976 l 608 979 l 608 976 l 622 979 q 629 973 629 979 q 679 960 637 968 q 694 941 694 952 q 711 913 705 918 l 715 913 l 716 914 q 724 876 724 914 l 726 875 q 732 866 726 866 l 732 861 l 730 859 l 732 857 l 732 856 l 733 840 l 732 792 l 732 684 l 730 672 l 732 661 l 732 623 l 730 608 l 732 594 l 730 577 l 732 568 l 730 530 l 732 519 l 730 496 l 730 453 l 733 130 l 734 110 q 699 34 725 61 q 606 5 669 5 l 562 4 l 446 7 l 368 7 l 327 5 l 326 7 l 311 5 q 113 3 114 5 l 113 0 l 108 0 q 26 45 68 0 q 3 128 3 73 l 2 174 l 3 184 q -1 334 -1 191 l 1 726 l -1 778 l 1 778 l -1 779 l 1 786 l -2 835 l -2 853 q 69 966 -2 936 l 72 966 l 77 963 l 95 964 l 95 967 l 86 967 l 86 970 q 127 976 104 976 l 139 976 l 139 975 l 138 973 l 138 971 l 139 971 l 144 973 l 151 971 q 189 976 168 976 l 328 976 l 346 977 l 346 976 l 347 977 l 363 977 l 364 976 l 366 977 l 404 977 l 406 976 l 407 977 l 521 977 l 529 979 m 113 968 l 113 967 l 119 967 l 119 970 l 117 970 l 113 968 m 98 967 l 98 966 l 102 966 l 111 967 l 111 968 l 108 968 l 98 967 m 328 734 l 321 735 l 317 734 l 309 735 l 307 734 l 306 734 l 304 735 l 302 735 l 301 734 l 292 735 l 284 735 l 267 734 l 267 735 l 263 734 l 240 735 l 240 720 l 239 713 l 241 707 l 240 671 l 243 608 l 241 608 l 243 607 l 243 549 l 241 547 l 243 545 q 237 470 237 503 l 237 448 l 243 326 l 241 325 l 241 323 l 243 315 l 243 292 l 241 290 l 243 289 l 243 286 l 241 276 l 243 264 q 240 251 243 251 l 241 250 l 241 243 l 240 233 l 270 237 l 274 235 l 276 237 l 280 235 l 284 214 l 286 214 l 286 235 l 401 238 l 408 239 l 415 238 l 452 239 l 460 238 l 474 239 l 485 239 l 491 235 l 492 235 l 494 239 l 490 256 l 492 271 l 491 299 l 491 300 l 494 300 l 495 283 l 496 283 l 496 289 q 491 387 491 357 l 491 469 l 492 470 l 491 471 l 492 479 l 491 513 l 491 550 l 492 555 l 491 557 l 492 588 l 492 660 l 495 660 l 499 628 l 500 628 l 500 633 q 491 680 498 680 l 492 704 l 492 721 l 496 726 l 496 728 l 494 728 l 494 732 q 504 736 494 736 l 504 738 q 490 741 493 738 q 471 735 490 736 l 429 735 q 427 742 429 742 l 328 734 m 500 627 l 500 621 l 503 621 l 503 627 l 500 627 m 500 615 l 500 614 l 504 588 l 505 588 l 505 601 l 504 615 l 500 615 m 505 587 l 505 580 l 507 580 l 507 587 l 505 587 m 505 577 l 505 571 l 507 567 l 508 567 l 508 568 l 507 577 l 505 577 m 508 553 l 507 549 l 508 547 l 509 547 l 509 553 l 508 553 m 496 281 l 496 275 l 498 275 l 498 281 l 496 281 z "},"P":{"ha":843,"x_min":0,"x_max":742,"o":"m 122 979 l 134 977 l 135 979 l 136 979 l 165 977 l 185 977 l 205 976 l 210 977 l 218 976 l 228 977 l 233 976 l 237 977 l 253 976 l 257 977 l 265 976 l 267 976 l 273 977 l 278 975 l 285 976 l 300 976 l 307 975 l 312 976 l 315 976 l 320 975 l 326 976 l 328 975 l 329 975 l 337 977 l 349 975 l 433 975 q 559 969 526 975 l 560 970 l 562 970 l 589 967 l 590 969 l 591 969 l 614 963 l 615 963 l 615 964 l 608 966 l 608 969 l 635 972 q 674 955 655 972 l 686 949 l 686 952 q 732 907 703 952 q 742 862 742 881 l 740 857 l 742 851 l 737 751 l 739 747 l 734 731 l 737 731 l 736 701 l 736 686 l 739 654 q 736 647 739 647 l 737 619 l 737 483 q 650 370 737 398 l 640 369 l 625 370 l 399 368 l 393 368 l 392 369 l 391 368 l 353 368 l 296 369 l 296 368 l 288 370 l 288 380 l 287 380 q 281 370 283 380 l 274 368 q 269 370 274 370 l 267 378 q 245 368 258 368 l 245 144 l 248 127 l 245 106 l 245 -237 l 244 -246 l 241 -246 q 94 -94 220 -228 q 5 -5 10 -12 l 0 -1 l 3 4 l 1 22 l 4 243 l 5 281 l 4 285 l 5 286 l 5 290 l 4 290 l 5 304 l 5 317 l 4 347 l 5 365 l 3 474 l 5 578 l 4 585 l 5 587 l 4 597 l 4 661 l 7 664 q 4 706 4 681 l 4 761 l 5 802 l 4 806 l 5 816 l 4 824 l 5 840 l 5 859 l 4 876 l 9 977 l 122 979 m 625 960 l 625 959 l 631 958 l 631 959 l 629 960 l 625 960 m 496 751 q 492 734 495 734 l 347 734 l 345 733 l 344 734 l 323 734 l 321 733 l 320 734 l 316 733 q 281 741 281 733 l 279 743 l 279 744 l 278 743 l 277 743 l 275 744 l 274 744 l 274 741 l 273 743 q 265 734 270 743 l 264 734 q 260 744 261 734 l 261 748 q 257 736 257 748 q 248 740 252 736 l 245 739 l 245 737 l 249 734 l 249 722 l 237 722 l 237 720 l 249 720 l 249 615 l 250 598 q 254 605 253 598 l 258 605 l 267 604 l 281 605 l 459 605 q 465 589 462 589 l 462 605 l 481 605 l 483 598 l 485 598 l 485 601 l 483 601 l 485 605 l 496 605 l 496 598 l 501 606 l 500 614 l 500 648 l 501 733 l 498 736 l 498 748 l 496 751 m 220 724 l 223 722 l 226 722 l 224 727 l 223 727 l 220 724 z "},"Q":{"ha":825,"x_min":-6,"x_max":726,"o":"m 131 977 l 153 975 l 165 977 l 174 975 l 195 977 l 203 977 l 205 975 l 206 977 l 236 977 l 237 975 l 239 977 l 260 977 l 261 975 l 262 977 l 277 977 l 284 975 l 292 977 l 325 977 l 326 975 l 328 977 l 332 977 l 334 975 l 335 977 l 342 977 l 343 975 l 345 977 l 383 975 l 486 975 l 635 974 q 700 938 678 975 q 712 920 700 933 q 720 909 712 918 q 726 861 726 882 l 726 858 l 725 858 l 726 852 l 725 724 l 725 695 l 724 673 l 725 671 l 724 664 l 724 634 l 722 629 l 724 627 l 724 626 l 722 621 l 722 618 l 724 618 l 722 602 l 722 465 l 721 450 l 722 437 l 722 394 l 721 374 l 722 370 l 721 366 l 722 364 l 721 359 q 717 142 720 183 l 715 -25 l 714 -25 l 715 -26 l 714 -42 l 711 -227 l 707 -227 l 511 -24 l 511 -20 l 522 -20 l 522 -18 q 498 -11 498 -16 l 498 -7 q 505 -3 505 -7 q 481 7 492 -3 l 364 7 q 230 12 230 7 l 223 9 l 220 12 l 212 10 l 210 12 l 209 10 l 208 10 l 203 12 l 202 10 l 201 10 l 195 12 l 193 12 q 161 6 190 6 q 58 20 70 6 q 47 29 47 26 l 49 33 l 45 32 q -6 118 -6 66 l -6 286 l -5 309 l -6 324 l -6 336 l -5 337 l -6 338 l -6 480 l -5 488 l -6 494 l -5 494 l -6 496 l -6 564 l -5 617 l -6 626 l -5 644 l -6 663 l -5 681 l -6 686 l -5 699 l -6 732 l -5 733 l -6 741 l -6 791 q 8 914 4 914 q 104 975 45 975 l 111 975 q 114 971 111 971 l 115 971 q 131 977 123 977 m 235 732 l 235 729 l 236 728 l 236 726 l 227 725 l 230 722 l 237 722 l 237 695 q 230 692 237 692 q 236 690 230 690 l 237 688 l 237 593 l 236 592 l 237 591 l 237 401 l 236 395 l 237 394 l 237 393 l 236 351 l 236 336 l 235 328 l 236 320 l 236 315 l 235 296 l 236 278 l 235 242 l 257 242 l 257 239 l 245 237 l 245 234 l 248 234 q 296 242 270 242 l 296 239 l 298 239 l 298 242 l 305 242 l 309 239 l 416 242 l 452 242 q 462 237 462 242 l 465 237 l 467 241 l 481 239 l 500 241 l 500 244 q 482 251 482 245 l 482 260 q 499 267 499 262 l 499 269 l 482 272 l 482 304 l 484 306 l 482 307 l 484 313 l 482 324 l 484 349 l 482 353 l 482 355 l 484 355 l 485 422 l 485 510 l 486 524 l 485 536 l 485 548 l 484 583 l 485 627 l 485 695 l 486 696 l 485 698 l 485 701 q 488 729 486 729 l 486 730 l 486 736 l 492 738 l 492 739 l 489 739 l 479 733 l 386 733 l 385 734 l 383 733 l 376 733 l 372 734 l 364 733 l 346 733 l 345 734 l 343 733 l 340 733 l 241 734 l 240 739 l 235 732 z "},"R":{"ha":831,"x_min":0,"x_max":736,"o":"m 31 977 l 81 977 l 94 975 l 99 977 l 105 975 l 106 977 l 129 974 l 138 975 l 250 974 l 259 972 l 263 974 l 288 972 l 302 974 q 422 971 347 971 l 446 970 l 456 971 l 460 970 l 467 971 l 469 970 l 470 970 l 475 971 l 479 970 l 490 971 l 503 970 l 511 971 l 513 970 l 519 971 l 523 971 l 527 970 l 534 971 l 588 971 l 604 970 l 609 971 q 619 968 619 970 l 626 970 l 629 970 q 671 957 652 970 l 670 951 q 696 941 684 941 q 732 887 721 924 l 736 869 l 735 797 l 735 682 l 734 669 l 735 659 l 735 658 l 734 652 l 735 651 l 735 650 q 722 559 732 559 l 720 559 q 717 563 720 563 l 717 562 l 718 552 l 717 552 q 669 504 680 504 l 661 502 l 652 504 q 629 494 652 494 l 627 494 l 623 496 l 614 494 l 606 494 l 606 491 l 643 485 l 639 479 l 640 478 l 642 479 l 659 479 q 687 460 675 479 l 694 460 q 729 392 720 433 l 732 380 l 731 331 l 731 328 l 729 317 l 731 309 l 729 281 l 731 270 l 728 256 l 729 240 l 729 208 l 728 206 l 729 205 l 729 193 l 728 192 l 729 191 l 724 115 l 728 114 l 726 113 l 728 92 l 728 31 l 726 18 l 728 8 l 728 -9 l 726 -15 l 728 -16 l 726 -20 l 728 -31 l 726 -79 l 726 -111 l 725 -122 l 726 -134 l 726 -157 l 725 -158 l 726 -159 l 725 -176 l 725 -182 l 726 -195 l 725 -209 l 725 -224 l 724 -230 q 732 -234 724 -234 l 732 -243 l 728 -243 q 538 -49 608 -125 q 492 -2 515 -30 l 493 -1 l 493 2 q 488 5 493 5 l 488 22 l 487 50 l 490 144 l 488 151 l 492 218 l 490 223 l 493 248 q 488 250 488 248 l 490 301 l 490 304 q 496 308 490 307 q 492 313 496 313 l 492 317 l 494 317 l 494 319 l 490 321 q 494 332 491 332 l 501 332 q 492 349 501 336 l 492 359 l 498 361 l 498 362 l 496 362 l 496 366 l 500 366 l 500 369 l 462 370 l 435 370 l 246 373 q 235 359 244 359 q 243 356 235 356 l 243 352 q 238 349 238 352 l 238 348 l 243 347 q 239 315 242 315 l 241 290 l 238 107 l 237 97 l 239 76 l 238 60 l 238 7 l 243 5 l 242 3 l 242 2 l 234 3 l 225 2 l 224 3 l 222 3 l 218 2 l 159 5 l 33 5 l 24 7 l 22 5 l 21 5 q 0 11 0 7 l 0 28 l 1 55 l 0 56 l 0 58 l 1 62 l 0 63 l 1 71 l 1 76 l 0 81 l 3 97 l 1 103 l 10 522 l 9 530 l 12 553 l 10 578 l 10 600 l 13 617 l 10 703 q 13 853 13 739 l 12 858 l 13 866 l 13 917 l 14 974 l 16 975 l 20 975 q 22 971 22 975 l 24 939 l 26 939 l 26 956 l 24 975 l 31 977 m 24 934 l 24 873 l 26 865 l 24 856 l 26 854 l 26 853 l 24 852 l 26 845 l 26 828 l 27 821 l 28 821 l 28 854 l 27 890 l 28 890 l 27 892 l 27 913 l 26 934 l 24 934 m 27 818 l 27 806 l 28 806 l 28 818 l 27 818 m 251 733 l 251 732 l 250 707 l 241 707 l 238 705 l 238 703 l 250 703 l 250 638 l 243 631 q 248 628 248 631 l 248 607 l 272 610 l 272 608 l 273 610 l 279 610 l 293 608 l 303 610 l 304 608 l 306 608 l 326 612 l 328 610 l 374 610 l 380 608 l 385 610 l 388 610 l 395 608 l 404 610 l 411 608 l 418 610 l 429 608 l 444 610 q 466 604 460 610 q 469 608 466 608 l 490 608 l 492 598 l 494 598 l 498 612 l 496 625 l 496 689 l 498 689 l 498 685 l 500 685 l 500 693 l 496 718 l 496 722 l 498 730 l 496 733 l 488 732 l 486 734 l 476 733 l 416 733 l 394 734 l 392 733 l 385 734 l 375 734 l 366 733 l 353 734 l 309 734 l 286 736 l 280 734 l 271 736 l 269 734 l 262 736 l 254 736 l 251 733 m 498 672 l 498 637 l 500 637 l 500 672 l 498 672 m 500 629 l 500 621 l 501 621 l 501 629 l 500 629 m 498 318 l 498 317 l 507 317 l 507 318 l 498 318 z "},"S":{"ha":829,"x_min":0,"x_max":723,"o":"m 135 977 l 170 975 l 219 975 l 219 972 l 227 974 l 231 972 l 275 975 l 355 975 l 490 974 l 495 975 l 501 974 l 623 972 l 671 972 l 723 970 l 723 753 l 722 745 l 723 737 l 722 733 l 635 733 l 629 734 l 623 733 l 621 733 l 615 734 l 614 733 l 612 733 l 595 734 l 584 733 l 584 734 l 583 733 l 564 734 l 366 733 l 364 732 l 357 733 l 277 733 l 269 736 l 260 734 l 254 741 q 242 734 254 739 l 239 724 l 241 705 l 239 705 l 241 703 l 241 696 l 239 689 q 220 684 220 688 l 220 682 q 241 676 241 679 l 241 633 l 239 628 l 241 622 l 238 609 l 242 598 l 243 598 l 243 600 l 242 606 l 243 608 l 245 608 l 252 604 q 264 608 258 608 l 418 608 l 509 601 l 509 602 q 505 605 509 605 l 505 608 l 517 608 l 532 609 l 536 606 l 538 608 l 602 608 l 611 606 l 615 608 q 675 588 638 608 q 692 570 677 579 q 723 487 723 543 l 722 487 l 723 486 l 723 479 l 722 478 l 723 477 l 723 469 l 722 460 l 723 453 l 723 451 l 722 450 l 723 448 l 722 433 l 723 343 l 723 256 l 722 243 l 723 238 l 720 206 l 722 193 l 722 184 l 720 178 l 722 174 l 720 161 l 722 132 l 722 114 q 671 17 722 54 q 597 0 649 0 l 414 0 l 391 1 l 390 0 l 380 1 l 277 1 l 258 3 l 252 1 l 241 4 l 232 1 l 205 1 l 198 0 q 138 3 182 3 l 5 3 l 4 1 l 3 1 l 1 9 l 3 211 l 1 241 l 12 242 l 34 242 l 73 241 l 92 242 l 92 241 l 97 242 l 127 241 l 134 242 l 141 241 l 142 242 l 144 242 l 162 236 q 197 239 175 239 l 202 239 l 202 238 l 192 236 l 192 233 l 315 239 l 377 239 l 390 238 l 391 239 l 393 239 l 430 238 l 467 238 q 470 231 470 238 l 473 231 q 475 239 473 239 l 486 239 l 487 238 l 488 238 l 488 241 l 490 241 l 488 242 l 488 243 l 491 260 l 490 311 l 490 329 l 488 349 l 490 356 l 488 364 l 490 370 l 483 372 l 473 372 q 470 377 473 377 q 465 372 466 377 l 463 372 q 399 377 425 377 l 391 376 l 383 377 l 360 377 l 345 374 l 345 376 l 343 374 l 342 374 l 304 372 l 303 373 l 296 372 l 252 372 l 229 370 l 228 372 l 227 372 l 216 370 l 211 372 l 197 370 l 135 370 q 74 383 74 370 q 56 391 74 390 q 10 441 34 391 l 9 447 l 10 447 q 39 408 14 446 l 40 407 l 41 407 l 7 458 q 3 481 3 468 q 5 488 3 488 l 4 490 l 4 568 l 5 583 l 1 584 l 1 591 l 3 591 l 4 589 l 5 589 l 7 692 l 7 723 q 0 733 7 733 l 1 750 l 1 834 l 0 843 l 1 848 l 0 848 l 4 856 l 0 861 l 1 863 l 1 871 q 14 918 1 886 q 110 975 54 975 l 114 975 l 118 972 l 124 972 l 124 975 l 135 977 z "},"T":{"ha":823,"x_min":0,"x_max":723,"o":"m 55 977 l 55 974 l 56 975 l 63 974 l 84 975 l 328 974 l 418 974 l 441 972 l 441 974 l 443 972 l 460 974 l 492 972 l 517 974 l 517 970 l 516 970 q 487 961 487 966 l 508 958 q 720 972 676 972 l 723 962 l 722 927 l 722 868 l 720 846 l 722 844 l 722 843 l 720 806 l 720 734 q 713 730 720 731 l 710 730 l 710 732 l 696 730 l 686 730 l 654 733 l 609 732 l 605 732 l 604 733 l 602 732 l 567 732 l 551 733 l 547 732 l 526 733 l 525 732 l 524 732 l 511 736 l 504 732 l 496 733 l 491 732 l 482 734 l 481 734 l 477 732 l 478 730 l 478 725 q 470 722 478 722 l 470 720 q 478 718 470 718 l 478 711 l 475 707 l 478 707 l 478 704 l 475 692 l 478 690 l 478 675 l 477 627 l 477 623 l 478 623 l 477 610 l 477 546 l 475 538 l 477 536 l 475 498 l 475 187 l 477 -58 l 478 -79 l 477 -80 l 477 -81 l 478 -87 l 477 -87 l 478 -88 l 478 -212 l 477 -220 l 478 -228 l 478 -236 l 477 -236 q 357 -118 444 -210 q 263 -26 351 -117 q 242 -1 242 -6 l 243 3 l 242 3 q 233 22 236 3 l 235 28 l 235 38 l 233 40 q 238 48 236 48 l 236 111 l 236 140 l 238 154 l 236 166 l 236 190 l 238 213 l 236 217 l 238 218 l 236 225 l 238 234 l 236 248 l 238 277 l 236 318 l 236 319 l 238 328 l 236 330 l 236 331 l 238 338 l 236 357 q 242 431 238 424 l 241 432 l 242 446 l 242 454 q 236 458 242 458 l 236 470 q 239 501 237 501 q 235 534 237 501 l 233 534 q 236 559 236 541 l 236 621 l 238 643 l 236 644 l 236 646 l 238 650 l 236 661 l 238 673 l 236 674 l 236 675 l 238 677 l 238 678 l 236 682 l 241 719 l 239 726 l 248 728 l 248 730 q 242 733 242 730 l 239 736 l 236 736 l 229 730 l 214 732 l 212 730 l 211 730 l 187 733 l 174 733 l 127 732 l 80 733 l 72 733 l 63 734 l 62 733 l 52 734 l 24 734 l 3 736 l 3 737 l 0 842 l 0 964 q 4 975 0 975 l 41 975 l 55 977 z "},"U":{"ha":837,"x_min":0,"x_max":736,"o":"m 536 975 l 537 973 l 567 973 l 572 975 l 576 973 l 593 975 l 610 972 l 613 975 l 728 975 l 726 960 l 726 947 l 725 945 l 726 944 l 726 943 q 733 872 728 872 l 732 871 l 733 861 l 733 825 l 734 819 l 733 815 l 734 801 l 733 766 l 733 747 l 734 741 l 733 739 l 733 738 l 734 736 l 733 723 l 733 710 l 730 557 l 733 539 l 733 484 l 734 469 l 733 461 l 734 391 l 732 327 l 733 325 l 732 321 l 730 255 l 736 28 l 736 27 l 734 20 l 736 12 l 736 -86 l 734 -87 l 736 -89 l 736 -92 l 734 -103 l 736 -114 l 736 -119 l 734 -120 l 736 -121 l 736 -123 l 734 -127 l 736 -141 l 736 -156 l 734 -162 l 736 -163 l 734 -187 l 734 -236 l 733 -236 l 608 -114 l 606 -113 l 606 -111 l 608 -107 q 504 -15 565 -75 l 490 3 l 462 2 l 395 2 l 354 1 l 353 2 l 351 2 l 343 1 l 338 1 l 319 2 l 301 1 l 295 1 l 294 2 l 292 1 l 186 1 l 178 2 l 171 1 l 170 2 l 162 1 l 122 1 q 12 72 42 1 q 3 153 4 79 l 4 155 l 3 161 l 3 172 l 7 176 l 3 233 l 4 277 l 3 298 l 5 346 l 3 355 l 3 385 l 4 393 l 3 401 l 3 404 l 4 440 l 1 542 l 5 573 q 0 690 2 597 l 1 692 l 0 699 l 0 714 l 1 720 l 0 726 l 0 732 l 1 734 l 0 735 l 0 738 l 1 742 l 0 749 l 0 760 l 1 762 l 0 763 l 0 780 l 1 790 l 0 797 l 1 878 l 0 906 l 1 906 l 0 907 l 0 966 q 25 970 0 970 l 29 970 l 31 969 l 42 972 l 45 972 l 45 970 l 68 972 l 112 972 l 117 970 l 123 972 l 165 972 l 175 973 l 188 972 l 243 972 l 242 970 l 242 935 q 238 926 238 930 l 239 926 l 241 927 l 242 927 l 242 913 q 239 878 242 878 l 242 867 l 242 801 l 243 800 l 242 798 l 242 797 l 243 790 l 242 781 l 242 776 l 243 772 l 242 764 l 242 751 l 243 738 l 242 731 l 243 730 l 243 728 l 242 724 l 243 724 l 242 723 l 242 715 l 243 711 l 242 705 l 242 673 l 243 665 l 242 660 l 243 660 l 242 659 l 243 636 l 242 557 l 242 534 l 243 528 l 242 524 l 243 522 l 242 515 l 242 503 l 243 502 l 242 500 l 243 490 l 243 473 l 242 434 l 245 408 l 245 367 l 243 357 l 245 345 l 245 243 l 239 235 l 248 234 l 252 237 l 256 234 l 260 235 l 274 234 l 271 226 l 273 226 l 284 235 l 288 234 l 304 237 l 309 235 l 311 237 l 312 237 l 316 235 l 323 237 l 334 235 l 334 237 l 336 235 l 345 235 l 358 237 l 364 235 l 387 237 l 392 235 l 393 237 l 395 237 l 396 235 l 397 235 l 409 237 l 417 235 l 418 237 l 420 237 l 428 235 l 433 237 l 439 235 l 454 237 q 458 230 455 230 l 466 237 l 494 237 l 494 239 l 491 261 l 491 267 q 498 269 498 267 l 491 271 l 490 309 l 490 322 l 487 507 l 486 509 l 486 510 l 487 511 l 487 513 l 486 518 l 487 542 l 487 591 l 488 610 l 487 612 l 487 614 l 488 619 l 487 661 l 487 676 q 490 797 487 766 l 488 802 l 490 850 l 488 966 l 492 972 l 494 972 l 536 973 l 536 975 m 235 922 l 234 914 l 234 913 l 235 913 l 237 920 l 237 922 l 235 922 z "},"V":{"ha":846,"x_min":0,"x_max":740,"o":"m 658 983 l 663 981 l 720 983 l 734 983 l 732 953 q 734 848 734 916 l 734 513 l 736 485 l 734 485 l 736 484 l 736 454 l 737 418 l 736 418 l 737 416 l 737 327 l 739 318 l 737 317 l 739 260 l 739 137 l 740 131 l 734 119 l 739 119 q 718 50 739 80 q 643 4 705 25 l 626 1 l 621 4 l 616 3 l 592 4 l 503 4 l 490 3 l 476 4 l 408 4 l 401 3 l 401 4 l 399 3 l 392 4 l 262 5 l 258 4 l 258 5 l 257 4 l 255 4 l 109 0 q 45 23 88 12 q 7 83 18 47 l 1 109 l 3 136 l 0 217 l 1 224 l 0 225 l 1 235 l 1 241 l 0 257 l 1 258 l 0 275 l 0 288 q 5 404 0 359 l 4 408 l 3 406 l 0 406 l 0 545 l 4 621 l 0 622 l 0 793 l 3 830 l 0 842 l 0 961 q 40 975 0 975 l 98 977 l 154 977 l 154 974 l 155 974 l 155 977 l 239 977 l 241 970 l 241 922 l 239 920 l 241 918 l 243 751 l 243 690 l 244 689 l 243 684 l 244 670 l 243 666 l 244 649 l 244 559 l 245 551 l 244 545 l 245 543 l 245 542 l 244 535 l 245 530 l 244 530 l 245 529 l 244 525 l 245 414 l 244 405 l 245 392 l 245 347 l 247 301 l 245 301 l 247 300 l 247 294 l 245 288 l 247 287 l 247 286 l 245 271 l 239 271 l 233 269 l 233 268 l 245 268 l 245 258 l 247 250 l 245 244 l 247 238 l 257 238 l 264 237 l 273 238 l 284 238 l 307 235 l 321 237 l 327 235 l 341 238 l 342 237 l 401 241 l 410 239 l 415 241 l 420 239 l 462 241 l 478 241 l 489 244 l 495 243 l 498 245 l 494 261 l 494 274 l 507 277 l 507 279 q 494 284 494 280 l 494 471 l 492 505 l 494 517 l 492 530 l 494 532 l 492 539 l 492 552 l 494 553 l 492 557 l 492 560 l 494 560 l 492 570 l 492 576 l 494 608 l 492 649 l 492 710 l 490 726 l 492 732 l 490 736 l 492 746 l 490 756 l 492 764 l 490 772 l 492 773 l 490 780 l 490 979 l 492 979 l 572 981 l 572 980 l 573 981 l 576 981 l 578 980 l 579 980 l 578 979 l 578 974 l 582 974 q 622 981 589 981 l 643 981 l 658 983 z "},"W":{"ha":1321,"x_min":0,"x_max":1224,"o":"m 982 977 l 1018 977 l 1023 975 l 1027 977 l 1057 975 l 1069 977 l 1070 975 l 1072 975 l 1073 977 l 1074 977 l 1087 975 l 1094 977 l 1100 974 l 1101 975 l 1223 975 l 1223 970 q 1207 964 1223 966 l 1207 962 l 1208 962 l 1223 965 l 1223 665 l 1224 652 l 1223 647 l 1224 641 l 1223 641 l 1224 640 l 1223 618 l 1223 614 l 1224 607 l 1223 599 l 1224 586 l 1221 565 l 1224 548 l 1224 514 l 1223 503 l 1224 487 l 1224 420 l 1223 401 l 1224 399 l 1224 397 l 1221 375 l 1224 365 l 1223 334 l 1224 292 l 1223 275 l 1224 269 l 1223 264 l 1224 254 q 1213 112 1224 210 q 1219 109 1219 112 q 1193 39 1219 59 q 1094 4 1166 4 l 1087 4 l 1078 3 l 1070 4 l 1069 3 l 1067 3 l 1065 4 l 1044 3 l 965 3 l 893 9 l 818 4 l 805 7 l 802 4 l 801 4 q 664 20 745 4 q 617 112 617 66 l 620 120 l 618 121 l 617 121 l 613 117 l 613 112 q 593 54 613 74 q 526 9 593 49 q 511 3 526 6 l 469 4 l 368 1 l 368 3 l 367 1 l 249 1 l 241 0 l 239 1 l 190 0 l 106 0 q 64 10 90 0 l 64 17 q 48 21 64 21 q 1 104 1 62 l 1 112 l 4 115 l 0 121 l 0 126 l 1 137 l 0 146 l 1 157 l 0 159 l 1 167 l 4 385 l 4 477 l 5 486 l 4 492 l 4 498 l 5 524 l 4 531 l 5 535 l 4 543 l 5 560 l 4 603 l 4 664 l 5 689 l 4 720 l 4 836 l 3 960 l 4 960 l 3 961 l 3 975 l 22 975 q 27 968 22 972 l 142 975 l 182 975 l 191 974 l 198 975 l 208 975 q 228 970 221 975 l 231 970 l 231 971 l 229 975 l 235 975 l 237 974 l 238 970 l 239 970 l 235 913 l 237 895 l 237 863 l 238 855 l 237 853 l 238 846 l 238 819 l 239 812 l 238 812 l 239 811 l 238 797 l 239 790 l 238 781 l 238 764 l 239 755 l 238 754 l 238 753 q 241 745 239 745 l 239 737 l 239 602 l 238 565 l 239 564 l 239 562 l 237 548 l 238 543 l 237 528 l 237 511 l 235 509 l 237 508 l 237 507 l 235 503 l 241 503 l 241 432 l 238 432 l 238 433 l 237 457 l 235 457 l 235 423 q 241 420 241 423 l 241 256 l 239 239 l 241 238 l 255 239 l 365 239 l 376 241 l 388 239 l 397 239 l 449 241 l 450 239 l 452 239 l 457 241 l 460 241 q 471 235 465 241 l 475 239 l 484 239 l 484 235 l 486 235 l 492 242 q 487 256 487 242 l 488 260 l 487 262 l 487 263 l 488 272 l 487 286 l 488 297 l 487 307 l 488 315 l 487 332 l 487 336 l 488 336 l 487 345 l 487 401 l 488 413 l 487 419 l 488 419 l 487 420 l 487 579 l 486 620 l 487 621 l 487 623 l 486 629 l 486 637 l 487 638 l 486 640 l 486 705 l 487 706 l 486 707 l 486 892 l 484 918 l 486 920 l 486 922 l 484 937 l 484 949 l 486 951 l 484 953 l 484 956 l 486 957 l 484 958 l 484 974 l 491 975 l 545 975 l 556 972 l 557 974 l 557 975 l 638 970 q 644 975 644 971 l 690 975 l 736 972 l 737 948 l 737 882 l 736 733 l 737 572 l 737 444 l 739 396 l 737 385 l 739 385 l 737 384 l 737 302 l 736 296 l 737 290 l 737 289 q 726 280 730 289 l 725 279 l 737 279 l 737 277 l 739 258 l 737 246 l 739 239 l 746 241 l 749 241 l 754 237 l 755 237 q 759 241 755 241 l 772 241 l 788 239 l 794 241 l 794 239 l 795 241 l 821 239 l 841 241 l 842 239 l 844 239 l 845 241 l 846 241 l 852 239 l 876 241 l 939 241 q 943 224 941 241 l 944 222 l 945 222 l 945 238 q 954 242 947 242 l 960 242 q 971 233 971 242 l 975 202 l 978 205 l 972 241 l 983 241 l 991 242 q 983 245 991 245 q 978 249 983 249 l 979 258 l 977 279 l 979 281 l 978 290 l 979 304 l 978 309 l 979 309 l 978 310 l 978 315 l 979 327 l 977 348 l 978 357 l 977 362 l 978 367 l 977 371 l 978 387 l 978 393 l 977 413 l 978 418 l 977 427 q 981 437 979 437 l 978 446 l 979 446 l 978 447 l 978 449 l 979 453 l 978 465 l 979 469 l 978 477 l 978 492 l 977 494 l 978 498 l 977 508 l 978 517 l 977 518 l 977 522 l 978 522 l 977 539 l 977 675 l 978 698 l 977 699 l 978 703 l 977 804 l 977 829 l 975 872 l 977 872 l 975 873 l 975 876 l 977 888 l 975 903 l 975 922 l 977 926 l 975 932 l 975 965 q 982 977 975 973 m 1189 960 l 1189 958 l 1194 958 l 1194 960 l 1189 960 m 235 492 l 235 467 l 237 467 l 237 491 l 238 492 l 235 492 m 235 466 l 235 458 l 237 458 l 237 466 l 235 466 z "},"X":{"ha":843,"x_min":0,"x_max":734,"o":"m 29 970 l 65 968 l 69 969 l 83 968 l 94 969 l 118 968 l 132 969 l 142 968 l 147 969 l 151 968 l 151 969 l 153 968 l 155 968 l 164 969 l 165 968 l 167 968 l 174 969 l 186 966 l 190 969 l 192 968 l 193 968 l 195 969 l 201 968 l 219 968 l 225 969 q 244 965 228 967 l 245 958 l 245 888 l 244 886 l 245 885 l 245 864 l 244 854 l 245 838 l 245 631 q 240 628 240 631 q 245 624 245 627 l 245 614 q 240 604 245 609 l 245 602 l 250 604 l 257 603 l 264 603 l 264 599 l 267 599 q 275 604 267 604 l 279 603 l 292 604 l 302 604 l 307 600 q 321 604 321 602 l 325 603 l 345 604 l 354 604 l 353 606 l 353 607 l 354 608 l 358 608 l 358 604 l 365 604 l 371 603 l 380 604 l 404 604 l 433 602 l 444 604 l 457 604 q 460 599 457 599 q 463 603 463 599 l 464 604 l 468 604 q 475 593 475 601 l 476 595 q 486 606 479 606 l 489 599 l 490 599 q 494 604 490 604 l 494 607 l 490 608 l 492 618 l 490 628 l 492 628 l 526 631 q 511 635 526 635 l 503 635 q 493 629 503 629 l 492 631 l 492 632 l 493 633 l 493 635 l 490 635 l 490 657 l 492 669 l 490 673 l 490 676 l 492 676 l 490 697 l 490 732 l 492 754 l 490 762 l 492 768 l 490 783 l 490 793 l 492 800 l 490 800 l 492 802 l 492 806 l 490 827 l 492 827 l 490 828 l 490 836 l 492 838 l 490 839 l 490 840 l 492 842 l 490 848 l 492 863 l 490 873 l 492 873 l 490 875 l 490 876 l 493 879 l 490 885 l 490 888 l 492 888 l 490 897 l 490 900 l 492 908 l 490 916 l 493 924 l 490 935 l 490 940 q 496 943 490 943 q 492 957 492 950 l 492 962 q 497 966 492 966 l 525 968 l 554 965 l 554 968 l 564 966 l 576 966 l 582 968 l 587 966 l 587 968 l 589 966 l 597 966 l 606 968 l 615 965 l 618 968 l 619 966 l 626 968 l 692 968 l 697 969 l 703 968 l 732 968 l 733 966 l 734 966 l 732 762 l 733 646 l 730 636 l 733 633 l 733 595 q 704 538 733 582 q 686 514 695 514 q 608 488 659 488 l 606 484 l 606 482 l 614 482 l 619 484 q 652 474 652 479 l 648 468 l 648 467 l 665 473 l 668 468 l 668 463 l 664 456 l 665 454 q 677 464 676 460 q 729 372 729 428 l 729 342 l 726 322 l 729 314 l 729 264 l 728 262 l 729 261 l 729 235 l 728 233 l 729 232 l 729 175 l 726 94 l 728 87 l 726 83 l 728 10 l 729 9 l 726 9 l 728 7 l 728 5 l 726 0 l 728 -5 l 730 -138 l 729 -169 l 729 -214 l 730 -226 l 729 -231 l 730 -233 l 730 -235 l 729 -243 l 729 -248 l 728 -248 q 546 -58 552 -74 l 526 -35 l 525 -35 l 524 -36 l 522 -36 q 492 0 492 -9 l 494 5 l 493 14 l 493 20 l 492 91 l 493 100 l 490 204 l 492 218 l 490 225 l 492 288 l 492 315 l 493 323 l 492 331 l 493 332 l 492 334 l 492 350 q 501 360 492 360 l 501 361 l 500 361 l 496 360 l 490 366 q 465 361 484 361 l 440 361 l 436 360 l 429 361 l 383 361 l 370 360 l 357 361 l 350 361 l 345 360 l 334 361 l 276 361 l 268 363 l 261 361 l 257 361 q 247 366 252 361 l 245 366 l 240 361 q 244 347 244 354 l 244 343 l 239 336 l 244 335 l 244 321 l 241 321 l 244 309 l 244 245 l 243 239 l 244 238 l 244 236 l 243 231 l 244 229 l 244 228 l 243 227 l 243 222 l 244 222 l 243 209 l 243 125 l 241 120 l 243 114 l 243 111 l 241 63 l 240 63 l 241 62 l 241 57 l 240 47 l 241 35 l 241 29 l 240 24 l 241 20 l 240 -3 l 204 -3 l 196 -4 l 182 -3 l 65 -3 l 3 -1 l 0 2 l 1 7 l 3 87 l 1 87 l 3 92 l 4 195 l 5 203 l 4 204 l 5 221 l 5 271 l 7 277 l 4 288 l 4 289 l 7 306 l 5 346 l 7 374 l 8 374 l 7 375 l 7 376 q 41 453 7 416 l 57 464 l 58 463 l 61 463 q 79 474 61 468 l 81 473 q 106 479 81 478 l 117 479 l 118 481 l 123 478 q 132 482 123 482 l 132 484 q 101 493 132 488 l 98 493 q 90 502 98 498 l 79 497 l 75 497 l 75 500 l 82 510 l 81 511 l 78 511 l 57 507 q 25 550 35 526 q 7 672 7 566 l 7 718 l 8 718 l 9 717 l 11 717 l 12 726 l 12 734 l 11 742 q 17 747 17 742 q 7 822 7 806 l 11 823 l 5 846 l 7 852 l 5 864 l 5 865 l 7 867 l 5 868 l 7 920 l 7 962 q 9 969 7 969 l 29 970 z "},"Y":{"ha":835,"x_min":-4,"x_max":730,"o":"m 22 979 l 24 977 l 25 977 l 26 979 l 41 977 l 54 977 l 54 973 q 94 977 75 977 l 180 977 l 178 976 l 178 973 l 182 973 l 181 975 l 181 976 l 182 977 l 188 977 l 188 973 l 230 975 l 238 975 l 238 913 l 235 830 l 235 770 l 234 747 l 235 746 l 235 745 l 234 718 l 234 696 l 233 687 l 234 680 l 233 673 l 234 665 l 234 646 q 222 641 234 643 l 209 642 l 209 640 l 219 640 l 233 641 l 233 629 l 231 624 l 234 607 l 258 608 l 296 608 l 315 610 l 322 608 l 324 610 l 326 610 l 334 608 l 335 608 l 340 610 l 345 608 l 348 608 l 348 610 l 357 608 l 394 608 l 399 610 l 422 607 l 435 608 l 473 608 l 473 600 l 475 600 l 475 608 l 479 608 l 479 602 l 481 602 q 486 610 481 606 l 485 618 l 489 625 l 489 628 l 485 629 l 485 633 l 486 633 l 485 661 l 485 705 l 486 711 l 485 717 l 486 730 l 486 733 l 485 733 l 486 747 l 486 859 l 488 924 l 486 930 l 488 938 l 486 938 l 488 939 l 488 949 l 486 956 l 488 964 l 488 970 l 495 975 l 557 975 l 558 976 l 559 975 l 600 975 l 602 976 l 603 975 l 604 975 l 629 976 l 635 975 l 636 976 l 644 975 l 690 975 l 725 976 l 728 972 l 728 885 l 729 834 l 728 833 l 729 823 l 729 736 l 728 717 l 729 712 l 728 711 l 729 701 l 729 691 l 728 676 l 729 675 l 729 673 l 728 667 l 729 661 l 728 646 l 729 641 l 728 635 l 729 631 l 728 629 l 728 625 l 729 625 l 728 604 l 728 571 l 730 559 l 728 524 l 728 492 l 729 479 q 681 385 729 424 q 614 365 653 365 l 614 369 l 612 369 l 595 365 l 594 366 l 593 366 l 591 365 l 582 366 l 516 366 q 509 378 509 370 l 507 378 l 503 368 l 500 368 l 496 370 l 494 368 l 481 368 l 474 366 l 474 363 l 479 362 l 481 349 q 474 309 474 331 l 477 235 l 477 142 l 478 -15 l 477 -15 l 478 -16 l 479 -73 l 479 -95 l 478 -125 l 479 -151 l 479 -159 l 478 -168 l 479 -175 l 478 -182 l 479 -197 l 479 -220 l 478 -228 l 479 -235 l 479 -243 l 477 -246 l 475 -246 q 384 -157 464 -246 l 279 -46 q 241 -2 241 -10 l 247 3 l 247 5 l 245 5 l 244 3 l 243 3 l 238 5 l 238 157 l 243 206 l 238 208 l 237 239 l 238 326 l 240 327 l 240 328 l 238 334 l 238 347 l 244 353 l 241 358 l 241 359 l 244 368 l 243 369 l 234 369 l 224 368 l 212 369 l 196 369 l 167 370 l 165 369 l 159 370 l 134 370 l 123 369 l 118 374 l 117 374 l 109 369 q 30 403 70 369 q -4 486 -4 435 q 3 488 3 486 l 3 491 l -4 492 l -4 545 q -1 608 -3 608 l -3 620 l 0 834 l -1 840 l 0 857 l -1 946 l 0 948 l 0 949 l -1 951 l -1 952 q 5 977 -1 977 l 22 979 m 20 969 l 20 967 l 24 967 l 50 973 l 50 975 l 20 969 m 163 973 l 163 972 l 170 972 l 174 973 l 174 975 l 171 975 l 163 973 m 147 973 l 147 972 l 157 972 l 157 973 l 147 973 m 118 970 l 118 969 l 123 969 l 123 972 l 122 972 l 118 970 m 130 972 l 130 970 l 139 970 l 139 972 l 130 972 m 96 969 l 96 967 l 102 967 l 102 969 l 96 969 m 10 963 l 22 962 l 28 962 l 28 963 l 18 963 l 18 967 q 10 963 10 966 m 75 967 l 75 966 l 80 966 l 80 967 l 75 967 m 46 964 l 46 963 l 59 963 l 60 964 l 60 966 l 46 964 z "},"Z":{"ha":835,"x_min":1,"x_max":733,"o":"m 733 983 l 728 568 l 731 545 l 730 505 l 729 504 l 730 503 l 731 414 l 730 373 l 713 372 l 693 372 l 689 370 l 682 372 l 593 373 l 587 372 l 582 373 l 573 373 l 557 372 l 556 374 l 539 372 l 533 372 l 449 376 l 309 372 l 307 372 l 307 374 l 299 372 l 275 372 l 272 376 l 272 382 l 273 384 l 272 388 q 268 372 268 389 l 262 373 l 248 374 l 245 364 l 246 351 l 245 347 l 241 347 l 240 349 l 235 345 l 235 343 l 239 343 l 239 340 l 232 339 l 226 340 l 222 339 l 223 338 l 223 336 l 230 337 l 240 337 q 245 320 244 337 l 244 316 l 245 314 l 244 310 l 245 283 l 245 273 q 216 269 245 269 l 216 266 l 241 267 l 245 267 l 242 248 l 263 240 l 263 234 l 266 234 q 271 245 267 245 l 273 245 l 281 244 l 289 245 l 290 245 l 302 243 l 326 246 l 339 246 l 340 245 l 342 246 l 413 247 l 429 246 q 436 249 436 246 l 450 246 l 509 247 l 509 248 l 511 247 l 516 247 l 524 248 l 528 247 l 583 248 l 602 248 l 606 249 l 613 247 l 680 246 l 699 248 l 715 246 l 726 245 l 729 243 l 729 239 l 731 71 l 730 70 l 731 60 l 730 36 l 732 6 q 726 0 730 1 l 703 2 l 676 1 l 675 2 l 673 2 l 667 1 l 666 2 l 659 1 l 599 2 l 577 1 l 577 2 l 576 1 l 570 1 l 547 -1 l 532 1 l 512 0 l 510 1 l 509 1 l 503 0 l 498 1 l 493 0 l 492 1 l 485 0 l 472 1 l 366 0 l 361 -1 l 355 0 l 347 1 l 346 -1 l 345 1 l 339 1 l 325 -2 l 325 -1 l 323 -2 l 252 -1 l 232 -3 l 231 -1 l 229 -1 l 206 -2 l 199 -2 l 186 -1 l 175 -2 l 127 0 l 127 -1 l 126 0 l 125 0 l 123 -1 l 116 0 l 98 1 l 89 -1 l 82 1 l 81 1 l 75 -1 l 52 3 q 39 0 39 2 l 29 1 l 14 1 l 9 5 l 7 0 l 3 0 l 1 7 l 2 100 l 5 126 l 2 132 l 5 237 l 5 273 l 4 307 l 5 309 l 4 319 l 5 404 l 7 410 l 5 412 l 5 413 l 15 498 l 12 511 l 14 511 l 12 513 l 12 518 l 14 520 l 12 522 l 13 523 l 14 553 l 12 553 l 7 520 l 4 520 l 5 611 q 21 614 5 614 l 21 615 l 28 614 l 64 614 l 72 615 l 78 613 l 85 614 l 96 613 l 101 614 l 115 613 l 148 612 l 157 614 l 165 612 l 166 614 l 168 614 l 174 612 l 174 614 l 175 612 l 185 612 l 191 613 l 197 612 l 198 613 l 199 612 l 202 612 l 203 613 l 205 612 l 206 612 l 220 613 l 236 612 l 238 613 l 239 613 l 245 611 q 255 614 255 611 l 262 612 l 269 612 l 271 614 l 272 612 l 286 612 l 393 612 l 500 602 l 502 602 l 502 604 l 480 608 l 480 610 q 490 614 481 613 l 495 612 l 496 614 l 496 624 l 505 624 l 505 625 q 496 630 505 628 l 496 646 l 519 648 l 519 651 l 495 651 l 496 667 l 495 739 l 496 740 q 492 745 493 740 l 491 745 q 488 740 488 745 l 385 740 l 385 738 l 384 740 l 382 740 l 344 739 l 312 741 l 185 739 l 185 741 l 184 739 l 83 741 l 61 742 l 56 741 l 52 742 l 48 741 l 47 742 l 45 742 l 43 741 l 42 741 l 34 743 l 26 741 l 26 743 l 25 741 l 15 741 q 7 761 9 741 l 8 761 q 3 810 4 779 l 5 811 l 3 821 l 4 878 l 3 884 l 4 890 l 5 918 l 3 931 l 5 940 l 3 941 l 7 970 l 5 978 l 20 978 l 31 979 l 34 979 l 34 978 l 62 979 l 254 977 l 562 976 l 662 970 q 642 975 662 974 l 637 974 l 631 975 l 631 977 l 633 979 l 718 979 l 733 983 z "},"[":{"ha":456,"x_min":-5,"x_max":363,"o":"m 1 1208 l 31 1208 l 49 1206 l 51 1208 l 52 1208 l 57 1206 l 57 1208 l 58 1206 l 62 1206 l 62 1208 l 78 1206 l 254 1206 l 260 1208 l 262 1206 l 281 1208 l 292 1208 l 357 1206 l 357 1198 l 355 1151 l 353 1151 l 355 1149 l 353 1101 l 353 971 l 262 971 l 262 978 l 260 978 l 260 971 l 256 971 q 252 981 256 981 q 241 971 252 971 q 231 968 231 971 q 238 960 235 961 l 241 963 l 249 962 l 249 957 l 244 952 l 246 947 l 244 943 l 246 938 l 243 883 l 244 883 l 243 882 l 243 880 l 244 878 l 241 856 l 238 856 l 238 876 l 236 876 l 236 821 l 235 819 l 236 818 l 236 816 l 233 701 l 231 694 l 233 688 l 231 682 l 233 682 l 231 680 l 231 672 l 233 670 l 231 669 l 231 665 l 233 661 l 231 652 l 231 638 l 233 632 l 231 627 l 233 618 l 231 618 l 233 616 l 231 611 l 235 530 l 235 368 l 233 366 l 235 365 l 235 363 l 233 358 l 235 353 l 233 326 l 235 317 l 233 292 l 233 14 q 252 1 233 1 l 273 3 l 279 1 l 279 3 l 281 1 l 283 1 l 288 3 l 296 1 l 334 1 q 363 -3 355 1 l 358 -146 l 359 -151 l 358 -159 l 359 -161 l 358 -169 l 363 -216 l 363 -234 q 357 -239 363 -237 l 353 -239 l 353 -237 l 342 -239 l 331 -239 l 326 -237 l 318 -239 l 219 -239 l 7 -236 l 3 -207 l 4 -199 l 3 -194 l 4 -178 l 4 -149 l 3 -144 l 4 -136 l 4 -60 l 6 -58 l 4 -56 l 4 -39 l 6 -29 l 4 -21 l 4 -20 l 6 -18 l 4 -16 l 4 -7 l 6 -1 l 4 6 l 6 14 l 4 31 l 4 44 l 6 51 l 4 62 l 4 117 l 3 134 l 4 142 l 3 146 l 4 146 l 3 149 l 3 217 l 1 224 l 3 225 l 3 227 l 1 229 l 1 230 l 3 232 l 1 243 l 1 366 l 3 401 q -2 405 -2 401 l -2 479 l -1 562 l -2 563 l -2 565 q 4 603 1 603 q 1 640 1 611 l 1 736 l 3 745 q -1 774 -1 753 l -1 836 l -2 842 l -1 846 l -2 848 l -2 850 l -1 851 l -2 859 l -2 864 l -1 898 l -2 903 l -1 909 l -2 909 l -1 911 l -4 1056 l -2 1058 l -2 1059 l -4 1074 l -4 1093 l -2 1095 l -4 1096 l -4 1146 l -5 1147 l -4 1149 l -5 1160 l -5 1198 l 1 1208 m 281 1080 q 264 1019 273 1066 l 264 1018 l 265 1018 q 283 1076 277 1076 l 283 1071 l 284 1071 l 284 1077 l 281 1080 m 236 933 l 236 912 l 238 912 l 238 933 l 236 933 z "},"\\":{"ha":340,"x_min":2,"x_max":243,"o":"m 204 1045 l 232 1044 l 232 1045 q 238 1040 238 1043 q 233 1038 238 1038 l 233 1036 l 238 1036 l 238 1028 l 237 1022 l 238 1011 l 238 839 l 237 821 l 238 802 l 238 620 l 237 606 l 238 604 l 238 602 l 237 601 l 238 583 l 238 503 l 237 501 l 238 497 l 235 461 l 238 453 q 235 436 235 448 l 235 429 l 237 427 l 235 425 l 235 424 l 237 422 l 233 402 l 235 401 l 235 399 l 233 377 l 233 371 l 232 365 l 233 359 l 233 354 l 232 353 l 232 351 l 233 351 l 232 349 l 232 324 l 233 324 l 235 332 l 238 332 l 238 315 l 237 315 q 233 321 233 315 l 232 321 l 232 306 l 233 300 l 232 298 l 232 296 l 233 289 l 232 278 l 233 270 l 232 265 l 233 264 l 232 253 l 232 227 l 239 230 l 239 107 l 241 76 l 239 45 l 239 -18 l 241 -43 l 239 -43 l 241 -45 l 241 -61 l 238 -61 l 239 -62 l 239 -64 l 238 -66 l 243 -98 l 241 -118 l 241 -120 l 238 -123 l 218 -123 l 216 -121 l 215 -123 l 13 -123 q 5 -118 13 -118 l 5 -115 l 7 -114 l 5 -112 l 5 -98 l 7 -96 l 5 -95 l 5 -73 l 3 -67 l 7 -52 l 5 -50 l 5 0 l 7 6 l 5 12 l 5 26 l 7 28 l 5 29 l 5 31 l 7 40 l 5 62 l 5 77 l 7 83 l 5 90 l 5 94 l 9 104 l 8 113 l 9 119 q 5 294 7 119 l 9 342 l 8 342 l 9 343 l 9 349 q 5 353 9 353 l 3 382 l 5 424 l 3 430 l 5 444 l 5 475 l 12 475 q 2 750 2 537 l 2 770 q 5 781 3 781 q 2 848 2 806 l 5 868 l 2 879 l 7 884 q 2 887 2 884 l 2 938 q 5 980 2 965 l 2 983 l 2 1039 l 12 1039 l 12 1042 l 19 1042 l 109 1044 l 143 1042 l 143 1040 l 145 1042 l 153 1040 l 154 1040 l 154 1044 l 172 1044 l 204 1045 z "},"]":{"ha":456,"x_min":1,"x_max":369,"o":"m 369 1198 l 369 1160 l 368 1149 l 369 1147 l 368 1146 l 368 1096 l 366 1095 l 368 1093 l 368 1074 l 366 1059 l 366 1058 l 368 1056 l 364 911 l 366 909 l 364 909 l 366 903 l 364 898 l 366 864 l 366 859 l 364 851 l 366 850 l 366 848 l 364 846 l 366 842 l 364 836 l 364 774 q 361 745 364 753 l 363 736 l 363 640 q 359 603 363 611 q 366 565 363 603 l 366 563 l 364 562 l 366 479 l 366 405 q 361 401 366 401 l 363 366 l 363 243 l 361 232 l 363 230 l 363 229 l 361 227 l 361 225 l 363 224 l 361 217 l 361 149 l 359 146 l 361 146 l 359 142 l 361 134 l 359 117 l 359 62 l 357 51 l 359 44 l 359 31 l 357 14 l 359 6 l 357 -1 l 359 -7 l 359 -16 l 357 -18 l 359 -20 l 359 -21 l 357 -29 l 359 -39 l 359 -56 l 357 -58 l 359 -60 l 359 -136 l 361 -144 l 359 -149 l 359 -178 l 361 -194 l 359 -199 l 361 -207 l 356 -236 l 144 -239 l 45 -239 l 37 -237 l 33 -239 l 22 -239 l 10 -237 l 10 -239 l 7 -239 q 1 -234 1 -237 l 1 -216 l 5 -169 l 4 -161 l 5 -159 l 4 -151 l 5 -146 l 1 -3 q 29 1 8 1 l 68 1 l 76 3 l 81 1 l 82 1 l 84 3 l 84 1 l 90 3 l 111 1 q 130 14 130 1 l 130 292 l 129 317 l 130 326 l 129 353 l 130 358 l 129 363 l 129 365 l 130 366 l 129 368 l 129 530 l 132 611 l 130 616 l 132 618 l 130 618 l 132 627 l 130 632 l 132 638 l 132 652 l 130 661 l 132 665 l 132 669 l 130 670 l 132 672 l 132 680 l 130 682 l 132 682 l 130 688 l 132 694 l 130 701 l 127 816 l 127 818 l 129 819 l 127 821 l 127 876 l 125 876 l 125 856 l 122 856 l 119 878 l 121 880 l 121 882 l 119 883 l 121 883 l 117 938 l 119 943 l 117 947 l 119 952 l 115 957 l 115 962 l 122 963 l 125 960 q 132 968 129 961 q 122 971 132 971 q 111 981 111 971 q 108 971 108 981 l 103 971 l 103 978 l 102 978 l 102 971 l 10 971 l 10 1101 l 9 1149 l 10 1151 l 9 1151 l 7 1198 l 7 1206 l 71 1208 l 82 1208 l 102 1206 l 103 1208 l 110 1206 l 286 1206 l 302 1208 l 302 1206 l 305 1206 l 307 1208 l 307 1206 l 311 1208 l 313 1208 l 315 1206 l 332 1208 l 363 1208 l 369 1198 m 79 1077 l 79 1071 l 81 1071 l 81 1076 q 98 1018 87 1076 l 100 1018 l 100 1019 q 82 1080 90 1066 l 79 1077 m 125 933 l 125 912 l 127 912 l 127 933 l 125 933 z "},"^":{"ha":585,"x_min":-2,"x_max":477,"o":"m 170 1232 q 177 1227 170 1230 l 218 1228 l 224 1227 l 232 1228 q 242 1223 233 1223 l 256 1223 l 296 1228 l 317 1225 l 331 1227 l 355 1225 l 359 1225 l 361 1223 l 363 1225 l 373 1225 l 380 1223 l 382 1225 l 400 1223 l 425 1223 l 428 1219 l 437 1221 l 448 1221 l 456 1219 l 456 1223 q 473 1218 473 1223 q 477 1214 473 1214 l 477 1164 l 476 1154 l 477 1152 l 476 1143 l 476 1122 l 477 1120 l 476 1118 l 476 1042 l 474 1007 l 382 1007 l 380 1009 l 378 1007 l 343 1007 l 341 1009 l 340 1007 l 327 1009 l 300 1009 l 299 1010 l 297 1009 l 277 1009 l 248 1007 l 248 1009 l 245 1007 l 244 1007 l 195 1009 l 195 1010 l 193 1009 l 155 1009 l 129 1010 l 129 1009 l 127 1010 l 83 1010 l 51 1013 l 35 1010 l 19 1013 l 7 1010 l 0 1016 l 1 1021 l -2 1053 l 0 1055 l 0 1057 l -2 1064 l 0 1069 l -2 1071 l 0 1097 l 1 1228 l 3 1230 l 16 1228 l 24 1230 l 24 1225 l 109 1230 l 140 1228 l 170 1232 z "},"_":{"ha":620,"x_min":-78,"x_max":618,"o":"m 124 1 q 138 -5 124 -3 l 178 -4 l 180 -4 l 188 -5 l 195 -4 l 197 -4 q 212 -9 202 -8 l 334 -4 l 357 -5 l 366 -5 l 380 -4 l 409 -7 l 419 -5 l 441 -5 l 442 -7 l 444 -5 l 448 -5 l 455 -7 l 456 -5 l 478 -7 l 494 -7 l 501 -9 l 508 -7 l 519 -7 l 536 -9 l 547 -7 l 561 -13 l 561 -9 l 583 -11 l 589 -11 l 591 -13 l 593 -13 l 593 -9 l 600 -9 l 598 -11 l 598 -13 l 602 -13 l 602 -9 q 614 -18 610 -9 l 616 -20 l 618 -20 l 616 -41 l 616 -80 l 614 -82 l 616 -83 l 616 -91 l 614 -101 l 616 -110 l 614 -112 l 616 -114 l 614 -161 l 614 -223 l 612 -236 l 587 -234 l 542 -236 l 538 -236 l 536 -234 l 534 -236 l 528 -236 l 520 -234 l 519 -236 l 492 -234 l 395 -234 l 386 -233 l 375 -234 l 157 -234 l 152 -231 l 149 -234 l 42 -233 l 37 -231 l 35 -233 l 33 -233 l 0 -231 l -12 -231 l -14 -229 l -16 -231 l -73 -231 l -76 -227 l -75 -220 l -78 -172 l -76 -172 l -78 -170 l -76 -135 l -76 -128 l -75 -4 l -71 -1 l -64 -4 l -46 -2 l -46 -7 l -34 -5 l -31 -5 l 18 -4 l 18 -2 l 20 -4 l 50 -2 l 78 -2 l 94 -4 q 124 1 102 -1 z "},"`":{"ha":694,"x_min":1,"x_max":227,"o":"m 227 1242 l 226 1220 l 226 1189 l 227 1181 l 226 1176 l 226 1162 l 224 1146 l 226 1145 l 222 1120 l 219 1120 l 219 1145 l 218 1145 l 216 1047 q 211 1042 216 1042 l 211 1040 l 214 1036 l 214 1032 l 210 1034 q 163 1080 163 1072 q 144 1097 149 1086 q 127 1114 134 1097 l 123 1112 q 103 1130 119 1112 l 103 1133 l 109 1133 q 89 1152 93 1152 q 66 1176 71 1176 l 1 1244 l 1 1247 l 212 1247 q 219 1236 217 1247 l 222 1239 l 222 1244 l 219 1244 l 219 1251 l 222 1254 l 224 1254 l 227 1242 z "},"a":{"ha":839,"x_min":-8,"x_max":736,"o":"m 315 976 l 332 975 l 350 975 l 399 973 l 399 972 l 400 973 l 424 972 l 467 972 l 466 965 l 573 969 l 579 968 l 586 969 l 602 968 l 635 970 q 685 955 668 970 q 728 898 711 941 q 734 835 732 874 l 732 833 l 734 827 l 734 720 l 732 700 l 734 675 l 734 470 q 736 403 734 422 l 735 401 l 736 392 l 736 330 l 734 319 l 734 152 l 735 138 l 734 125 l 734 66 l 735 15 l 730 -81 l 731 -83 l 730 -92 l 730 -127 l 728 -140 l 730 -141 l 730 -142 l 728 -165 l 728 -184 l 730 -190 l 728 -195 l 728 -218 l 724 -218 q 564 -67 659 -160 l 565 -66 l 565 -64 q 498 -7 552 -60 l 498 -3 l 503 -1 q 498 8 498 3 l 498 74 l 499 79 l 498 85 l 498 104 l 499 106 l 498 107 l 498 178 l 499 180 l 498 181 l 498 248 l 499 254 l 498 259 l 498 263 l 501 283 l 498 286 l 498 298 l 496 321 l 499 330 l 496 338 l 496 343 l 503 343 q 498 353 498 348 q 503 355 503 353 l 501 359 l 523 359 l 526 362 l 526 363 l 495 363 l 496 365 l 496 367 l 494 370 l 491 370 l 487 367 l 484 367 l 484 370 l 483 370 l 475 367 l 467 368 l 405 365 l 404 367 l 389 365 l 355 365 l 342 363 l 338 365 l 338 363 l 336 365 l 325 365 l 313 367 l 298 365 l 275 365 l 275 374 q 272 365 272 374 l 260 365 l 245 367 l 244 362 l 245 354 q 233 350 233 353 l 233 349 l 244 347 l 239 252 l 243 188 l 241 188 q 247 113 247 166 l 247 7 l 241 1 l 235 1 l 224 4 l 84 3 l 83 1 l 81 1 l 80 3 l 78 3 l 67 0 l 31 1 l 9 1 q -1 53 1 6 l 0 58 l -3 83 l -1 85 l -3 95 l -3 165 l -4 180 l -3 180 l -4 181 l -4 304 l 0 370 l -4 380 l -4 453 l -5 486 l -4 488 l -4 489 l -5 495 l -4 505 l -5 516 l -7 578 l -5 580 l -5 581 l -7 590 l -5 616 q -8 637 -6 637 l -7 638 l -7 658 l -8 665 l -7 665 l -8 667 l -7 673 l -7 711 l -8 718 l -7 726 l -7 764 l -8 770 l -7 775 l -7 798 l -5 823 l -7 853 l -7 935 l -5 944 l -7 945 l -7 947 l -5 951 l -7 964 l -7 968 l 31 965 l 35 966 l 35 969 l 28 970 l 28 975 l 294 975 l 315 976 m 474 732 l 421 734 l 293 732 l 285 733 l 281 732 l 275 734 l 268 733 l 248 733 l 247 739 q 239 734 242 734 l 239 630 l 235 625 l 235 623 q 239 621 239 623 l 237 608 l 239 606 l 245 608 l 265 608 q 268 602 265 602 q 271 608 271 602 l 294 609 l 340 608 l 351 609 l 353 608 l 355 608 l 360 609 l 360 608 l 361 609 l 363 609 l 364 608 l 366 608 l 367 609 l 368 609 l 377 608 l 387 609 l 391 608 l 396 609 l 402 608 l 434 610 l 445 609 l 456 609 l 456 612 l 458 612 l 462 609 l 486 609 l 487 602 l 488 602 l 490 609 l 501 609 l 501 612 q 495 618 495 612 l 501 623 l 490 625 l 491 629 l 488 654 l 488 687 l 498 699 l 498 700 l 496 700 l 490 694 l 488 694 l 488 717 l 495 715 l 501 715 l 504 718 l 494 720 l 488 720 l 488 725 l 492 732 l 486 737 l 484 733 l 480 733 l 479 741 l 477 741 q 474 732 474 741 z "},"b":{"ha":839,"x_min":0,"x_max":735,"o":"m 20 977 l 60 977 q 123 974 103 977 l 132 975 l 180 971 l 182 974 l 239 974 l 245 972 l 254 974 l 286 974 l 288 972 l 289 974 l 290 974 l 298 972 l 300 974 l 301 974 l 307 972 l 311 974 l 317 972 l 319 972 l 319 974 l 326 972 l 331 972 l 339 974 l 353 972 l 417 972 l 430 974 l 431 972 l 459 974 l 536 974 l 558 972 l 559 974 l 561 974 l 569 972 l 590 974 q 717 915 681 974 q 735 846 735 859 l 734 836 l 735 821 l 734 812 l 735 804 l 734 758 l 734 741 q 728 726 728 734 l 728 723 l 732 726 l 734 726 l 734 680 l 731 680 l 731 688 l 728 688 l 731 622 q 714 543 723 543 q 671 503 698 515 q 650 496 657 496 l 643 498 q 625 490 643 490 l 616 490 l 608 483 q 619 473 608 474 l 640 473 q 678 460 660 473 q 705 431 687 458 q 731 378 731 404 l 730 368 l 731 345 l 731 239 l 730 201 l 731 173 l 730 131 l 731 113 q 685 22 731 64 q 635 1 657 6 l 607 0 l 435 0 l 427 1 l 425 0 l 409 1 l 401 1 l 169 5 l 161 3 q 74 11 133 3 l 74 8 l 82 5 l 82 3 l 74 3 l 57 4 l 47 3 l 16 4 l 14 3 l 13 3 l 8 4 l 4 3 l 0 18 l 3 38 l 3 290 q 7 300 7 295 l 7 301 l 4 357 l 4 367 l 5 372 l 4 374 l 4 375 l 5 414 l 4 437 l 5 460 l 5 465 q 9 473 7 473 l 8 479 l 4 632 l 4 644 l 5 656 l 4 667 l 4 715 l 5 717 l 4 718 l 4 720 l 5 728 l 3 756 l 3 784 l 4 798 l 3 810 l 3 819 l 4 825 l 3 826 l 4 831 l 3 843 l 4 861 l 3 866 l 4 868 l 3 882 l 3 895 l 1 921 l 3 950 l 3 975 l 20 977 m 450 736 l 450 738 l 449 736 l 448 736 l 366 732 l 335 734 l 315 734 l 302 735 l 298 734 l 298 735 l 297 734 l 276 734 l 275 735 l 273 734 l 257 734 l 257 738 q 244 734 252 734 l 244 646 q 239 642 244 642 l 239 639 l 244 637 l 241 621 l 236 621 l 236 624 l 231 624 l 231 621 l 235 618 l 243 618 l 243 610 l 245 607 l 247 607 l 248 608 l 250 608 l 250 606 l 258 606 l 262 604 l 269 606 l 356 606 l 357 604 l 359 606 l 420 606 l 456 607 l 458 606 l 459 606 l 465 607 q 477 600 469 607 l 480 600 q 488 606 480 606 q 496 610 496 606 l 496 611 l 494 611 l 494 608 l 491 608 l 490 610 l 488 610 l 490 616 l 490 644 q 495 660 490 652 l 490 673 l 491 694 l 490 720 q 495 724 490 724 l 492 728 l 492 730 l 499 731 l 499 732 l 498 734 l 498 735 l 467 732 l 466 739 l 450 736 m 728 720 l 728 699 l 730 699 l 730 720 l 728 720 m 250 374 q 247 367 250 367 l 244 367 l 244 371 l 241 368 l 241 342 l 237 342 q 229 338 229 341 l 241 335 l 241 309 l 240 301 l 241 293 l 241 261 q 229 252 241 252 l 226 250 q 240 243 240 250 q 243 236 240 236 l 248 237 l 255 235 l 255 237 l 301 237 l 306 235 l 309 237 l 364 237 l 371 236 l 380 237 l 408 237 l 413 236 l 414 237 l 416 237 l 422 236 l 456 237 l 484 237 l 484 229 l 487 226 l 494 245 l 494 247 l 492 247 l 488 244 l 487 244 l 487 349 l 490 351 l 494 351 q 496 343 494 343 l 496 345 l 494 361 l 495 363 q 487 371 487 363 q 465 361 479 361 l 465 364 l 455 361 l 429 364 q 366 361 409 361 l 317 361 l 280 367 l 264 364 l 258 364 l 250 374 z "},"c":{"ha":843,"x_min":-2,"x_max":739,"o":"m 523 978 l 523 975 q 517 972 523 972 l 517 971 l 519 971 l 530 972 l 541 970 l 543 971 l 552 970 l 629 970 q 678 951 635 970 q 734 888 707 951 q 739 854 739 871 l 736 850 l 739 842 l 739 828 l 737 827 l 739 825 l 739 824 l 733 701 l 734 696 l 733 692 q 736 631 736 670 l 736 612 l 733 607 l 677 606 l 579 606 l 578 607 l 576 606 l 527 607 l 515 607 q 491 614 502 607 q 484 617 484 614 l 484 625 l 485 627 l 484 628 l 488 683 l 486 694 l 486 699 l 494 701 l 494 704 q 486 708 486 705 l 486 713 q 492 716 486 716 l 492 718 l 490 722 l 490 724 l 492 724 l 492 729 l 490 732 l 478 732 l 465 734 l 457 732 l 457 733 l 456 732 l 453 732 l 436 736 l 436 734 q 431 730 436 730 l 429 732 l 428 732 l 427 730 l 425 730 l 419 732 l 411 730 l 410 732 l 408 732 l 407 730 l 406 730 l 393 732 l 391 732 q 389 736 391 736 l 387 736 l 390 732 l 390 730 l 383 730 l 383 734 l 374 734 q 372 730 372 734 l 368 730 l 368 734 l 309 733 l 252 733 l 249 736 l 249 740 l 253 740 l 253 741 l 249 741 l 236 740 l 236 739 l 241 732 l 241 729 q 239 712 241 712 l 240 711 l 240 642 l 239 641 l 240 640 l 239 611 l 239 569 l 237 508 l 239 503 l 237 496 l 239 488 l 237 473 l 237 442 l 236 427 l 237 425 l 236 408 l 236 370 l 237 358 l 235 351 l 236 349 l 235 326 l 235 239 l 236 237 l 236 236 q 247 241 243 237 l 256 241 l 257 228 l 258 228 q 264 241 258 241 l 349 240 l 351 239 l 352 239 l 353 240 l 395 239 l 467 239 q 471 232 469 239 l 473 233 l 474 233 l 478 232 l 478 233 l 479 239 q 492 233 486 239 l 495 241 l 495 243 q 486 253 486 243 l 486 264 l 496 264 l 503 265 l 503 267 l 496 269 l 490 269 l 486 271 l 486 326 q 496 362 486 362 l 522 361 l 729 358 l 730 357 l 729 307 l 729 229 l 727 210 l 729 191 l 729 135 q 699 35 729 61 q 620 -3 666 -3 l 611 -3 l 610 -2 l 608 -3 l 602 -3 l 583 -5 l 564 -2 l 429 -2 l 393 -1 l 391 -2 l 390 -2 l 377 -1 l 353 -1 l 348 -2 q 304 1 340 1 l 189 1 q 181 3 181 1 l 180 2 l 149 2 l 142 3 l 134 2 l 102 2 q 62 15 83 2 q 41 26 57 21 q 7 75 7 58 q -2 111 -2 91 l 1 116 l -1 128 l 1 161 l -1 165 l 1 177 l 1 210 l 2 225 l 1 227 l 2 250 l 2 300 l 3 328 l 7 330 l 5 369 l 6 370 l 6 372 l 3 385 l 5 389 l 2 432 l 3 487 l 2 511 l 3 512 l 2 528 l 2 766 l 3 775 l 2 777 l 2 778 l 3 803 l 2 848 l 5 852 l 3 859 l 3 862 q 23 924 9 902 q 72 956 44 956 l 73 956 l 73 960 l 71 960 l 71 962 q 114 972 87 972 l 136 972 l 145 971 l 146 972 l 148 972 l 210 966 l 210 968 l 207 968 l 207 972 l 319 972 l 327 971 l 328 972 l 330 972 l 398 971 l 437 971 l 456 972 l 488 970 l 496 971 l 513 971 l 513 972 l 507 974 l 507 977 l 523 978 m 300 745 l 299 744 l 299 743 l 306 743 l 306 744 l 300 745 m 273 741 l 274 741 l 288 743 l 288 744 l 275 744 l 273 741 m 340 744 l 340 743 l 347 741 l 351 741 l 348 744 l 340 744 m 363 743 l 363 741 l 373 741 l 373 743 l 363 743 m 380 741 l 380 740 l 389 740 l 389 741 l 380 741 m 411 740 l 411 739 l 419 737 q 415 740 419 740 l 411 740 m 424 739 l 427 736 l 431 736 l 431 737 l 424 739 z "},"d":{"ha":841,"x_min":-1,"x_max":736,"o":"m 135 971 l 141 970 l 142 971 l 149 970 l 152 970 l 156 972 l 163 970 l 286 970 l 292 971 l 297 970 l 297 972 l 298 970 l 331 970 l 336 972 l 342 970 l 343 972 l 367 970 l 373 972 l 374 971 l 410 972 l 414 973 l 422 972 l 608 975 l 608 968 l 609 968 q 612 973 612 968 l 618 973 q 719 918 677 975 q 733 864 733 890 l 732 863 l 734 839 l 734 833 q 731 748 734 789 l 732 732 l 733 589 l 732 576 l 733 574 l 732 545 l 735 176 l 736 135 q 719 52 736 74 q 677 18 700 18 q 591 -3 620 -3 l 509 -4 l 496 -3 l 489 -5 l 489 -1 l 519 3 l 519 4 l 518 4 l 419 -4 l 262 -5 l 248 -4 l 243 -5 l 243 -4 l 241 -5 l 232 -4 l 191 -5 l 137 -3 l 119 -5 l 108 -4 l 104 -4 l 104 -6 l 95 -5 l 63 -5 l 11 -4 l 9 -6 l 7 11 q 12 21 9 11 l 11 22 l 10 42 l 12 47 l 10 49 l 10 50 l 12 66 l 7 135 l 12 279 l 14 279 l 14 283 l 11 288 l 15 295 l 14 302 l 16 307 l 15 309 l 17 374 l 16 378 l 17 387 l 16 397 l 15 405 l 19 423 l 18 431 l 15 431 q 7 382 11 397 l 5 382 l 5 405 l 7 406 l 5 408 l 5 422 q 11 504 4 471 q 6 538 6 511 l 6 539 l 10 541 l 7 546 l 9 547 l 9 549 l 7 587 l 10 631 l 7 631 q 5 627 7 627 l 3 627 l 3 629 l 1 666 l 3 666 l 1 667 q 5 852 1 754 l 5 876 l -1 906 q 4 964 0 951 l 41 964 l 60 967 l 130 970 l 135 971 m 468 754 l 463 733 l 254 730 l 249 732 q 242 728 242 730 l 242 715 l 239 715 l 239 711 l 242 711 l 244 706 l 243 682 l 245 502 l 244 500 l 245 499 l 246 453 l 245 433 l 247 429 l 245 424 l 247 422 l 245 417 l 245 345 l 247 328 l 245 312 l 247 308 l 245 302 l 245 296 l 247 291 l 245 287 l 248 287 l 245 286 l 246 260 l 243 250 l 246 250 l 246 248 l 243 248 l 243 246 l 234 248 l 234 249 l 235 250 l 235 252 l 228 253 l 218 252 q 246 243 218 248 l 243 235 l 276 230 l 280 233 l 311 232 l 385 233 l 387 231 l 388 233 l 425 232 l 471 233 l 472 210 l 475 210 l 475 226 l 475 233 l 481 233 q 484 226 484 233 l 488 224 q 501 233 488 233 l 499 235 l 499 236 l 500 240 l 496 241 l 496 264 l 494 275 l 496 286 l 496 299 l 494 315 l 495 332 l 494 352 l 499 361 l 498 361 l 496 360 l 495 360 l 496 364 l 494 384 l 495 455 l 493 469 l 494 471 l 494 472 l 493 473 l 494 501 l 493 577 l 494 578 l 493 580 l 493 587 l 494 588 l 493 589 l 494 606 l 492 680 l 492 690 l 493 691 l 492 692 l 491 699 q 497 701 491 701 l 497 703 q 492 705 497 705 l 492 717 q 496 720 496 717 l 492 721 l 492 724 l 494 725 l 492 726 l 492 734 l 482 733 l 471 733 l 471 754 l 468 754 z "},"e":{"ha":823,"x_min":0,"x_max":728,"o":"m 3 972 l 98 972 l 103 971 l 107 972 l 117 971 l 130 972 l 130 971 l 132 972 l 153 971 l 182 971 l 188 970 l 193 971 l 195 970 l 196 971 l 201 971 l 206 970 l 216 971 l 302 971 l 303 970 l 305 971 l 307 971 l 463 972 l 474 972 l 494 971 l 508 972 l 514 971 l 519 972 l 528 971 l 542 972 l 543 972 l 549 971 l 551 972 l 555 972 l 555 971 l 572 972 l 589 972 l 589 970 l 607 971 l 611 970 l 624 972 l 652 971 l 728 971 l 728 945 q 720 863 720 916 l 720 734 l 706 732 l 663 732 l 604 731 l 604 732 l 603 731 l 602 731 q 587 734 587 732 l 583 731 l 576 732 l 566 731 q 556 734 556 732 l 545 731 l 539 734 l 538 732 l 504 732 l 503 734 l 501 732 l 484 732 l 483 734 l 481 732 l 457 732 l 449 734 l 441 732 l 433 732 l 432 734 l 431 732 l 405 732 l 404 734 l 402 732 l 397 732 l 395 734 l 394 732 l 382 732 l 381 734 l 380 732 l 366 732 l 364 734 l 363 732 l 361 732 l 328 735 l 302 734 l 250 734 q 247 740 250 740 q 244 735 244 740 l 243 734 l 219 734 l 213 728 l 234 730 l 239 730 l 240 720 l 236 718 l 236 715 l 239 715 l 239 713 q 233 710 239 710 l 233 709 q 239 705 239 709 l 237 700 l 239 699 l 240 699 l 239 640 l 239 610 l 241 603 l 243 603 l 247 606 l 248 606 q 258 603 258 605 q 313 606 279 606 l 315 604 l 316 606 l 556 604 l 603 604 l 606 602 l 606 557 l 600 521 l 602 505 l 600 483 q 603 415 603 456 l 602 364 l 598 364 l 598 363 l 551 366 l 532 366 l 521 367 l 505 366 l 398 366 l 387 364 l 376 366 l 339 366 l 326 367 l 322 366 l 320 367 l 312 366 l 295 367 l 282 366 l 271 370 l 271 367 l 270 367 l 264 368 l 254 366 q 250 382 250 368 q 236 340 236 361 l 237 339 q 229 334 229 338 l 237 334 l 237 329 l 236 320 l 239 315 l 237 292 q 227 288 237 289 l 227 286 l 237 278 l 237 260 l 227 258 l 227 256 l 237 256 l 237 244 q 248 239 237 241 l 250 239 l 248 240 l 248 244 l 361 244 l 361 240 l 366 244 l 385 243 l 387 244 l 388 244 l 394 243 l 405 244 l 414 243 l 418 244 l 428 243 l 429 244 l 431 244 l 432 243 l 433 243 l 440 244 l 471 243 l 608 243 l 617 244 l 624 243 l 655 243 l 677 241 l 679 243 l 680 243 l 696 241 l 709 241 q 718 244 718 241 q 727 239 727 241 l 727 220 l 726 201 l 727 195 l 726 195 l 727 193 l 727 192 l 726 179 l 727 174 l 726 172 l 727 168 l 726 137 l 727 100 l 726 93 l 727 86 l 726 86 l 727 82 l 726 81 l 727 76 l 726 44 l 727 24 l 726 22 l 726 21 l 727 17 l 726 0 l 692 0 l 683 1 l 682 0 l 665 1 l 623 1 l 581 5 l 498 4 l 492 3 l 486 5 q 467 3 479 3 l 432 3 l 425 4 l 416 3 l 330 3 l 315 1 l 309 3 l 308 1 l 300 3 l 292 1 l 290 1 l 290 3 l 273 1 l 257 1 l 240 3 l 223 1 l 209 1 l 195 3 l 188 1 l 142 3 l 134 1 l 123 3 l 115 1 l 102 3 l 93 3 l 59 1 l 52 4 l 54 12 l 50 12 q 28 1 50 1 l 1 3 l 1 5 l 0 22 l 3 44 l 1 45 l 3 52 l 3 76 l 4 96 l 3 102 l 4 103 l 3 107 l 4 149 l 4 161 q 8 171 5 170 q 4 240 4 186 l 4 615 q 10 717 8 650 l 8 724 l 10 728 l 8 734 l 10 734 q 4 757 4 747 l 4 765 l 7 765 l 7 762 l 8 762 l 8 768 q 4 775 8 775 l 4 781 l 5 782 l 4 783 l 4 789 l 8 791 l 5 799 l 7 812 l 4 867 l 7 905 l 7 907 l 5 907 l 4 898 l 1 898 l 1 944 l 3 972 m 5 915 l 5 912 l 7 912 q 17 958 12 958 q 31 916 22 958 l 31 915 l 33 915 l 33 918 q 18 962 24 962 l 17 962 q 5 915 11 962 m 34 906 l 34 901 l 35 901 l 35 906 l 34 906 m 35 899 l 35 895 l 37 889 l 38 889 l 38 890 l 37 899 l 35 899 z "},"f":{"ha":841,"x_min":2,"x_max":752,"o":"m 572 977 l 582 975 l 604 975 l 643 974 l 643 975 l 657 972 l 665 975 l 671 972 l 671 974 l 673 972 l 677 972 l 678 974 l 680 972 l 692 972 l 705 974 l 707 972 l 708 972 l 715 974 l 717 972 l 718 972 l 720 974 l 726 972 l 743 972 q 748 964 746 972 l 745 882 l 747 736 l 752 735 l 752 730 l 751 730 l 749 731 q 699 726 749 728 l 637 730 l 606 728 l 566 730 l 532 728 l 530 726 l 526 728 l 452 730 l 434 728 l 407 730 l 328 730 l 307 731 l 292 728 l 290 730 l 289 730 l 281 728 q 275 736 275 730 l 273 736 q 267 728 272 728 l 249 730 l 252 720 l 242 715 l 242 714 q 252 711 252 714 l 249 704 l 252 670 l 251 657 l 252 657 l 251 656 l 251 614 q 246 612 251 612 l 246 609 q 252 606 252 609 q 246 595 252 602 l 260 595 l 264 596 l 272 595 l 338 595 q 354 597 349 595 l 367 596 l 373 597 l 381 596 l 390 596 l 403 597 l 408 596 l 416 597 l 422 596 l 429 597 l 435 596 l 454 597 l 478 596 l 484 597 l 498 596 l 507 597 l 511 596 l 519 597 l 536 596 l 545 597 l 545 596 l 546 597 l 556 596 l 557 596 l 569 597 l 585 596 l 591 596 l 616 597 l 618 562 l 618 541 l 617 539 l 618 538 l 618 427 q 621 390 618 399 l 618 369 l 620 356 l 618 356 l 557 360 l 555 360 l 555 359 l 582 356 l 582 353 l 578 353 l 578 351 l 572 353 l 534 353 l 515 355 l 513 353 l 512 353 l 496 355 l 477 355 l 477 356 l 479 360 q 429 351 444 357 l 361 351 l 334 353 l 333 351 l 332 351 l 323 353 l 304 351 l 303 353 l 302 353 l 282 349 l 272 350 l 264 349 l 255 355 l 252 355 l 249 351 l 249 332 q 246 321 249 321 l 249 316 q 245 298 247 298 l 246 267 l 246 180 l 245 167 l 246 163 l 245 161 l 245 157 l 246 157 l 245 140 l 245 106 l 246 83 l 245 64 l 241 -255 q 189 -207 236 -255 l 110 -129 q 25 -41 60 -81 l 25 -39 l 28 -39 l 29 -41 q 4 -1 35 -38 l 5 15 l 3 15 l 3 79 l 2 119 l 3 159 l 3 214 l 5 214 l 7 194 l 9 194 l 9 198 l 3 275 q 9 315 4 315 l 9 329 q 15 385 9 347 l 9 385 l 9 401 l 3 401 l 5 408 l 3 424 l 5 460 q 9 463 9 460 l 9 474 l 7 482 l 9 488 q 3 517 5 488 l 5 539 l 3 603 l 3 614 l 5 623 l 3 629 l 5 643 l 3 644 l 5 646 l 6 646 l 7 640 l 11 640 q 15 671 15 657 l 15 709 l 14 739 l 15 741 l 14 751 l 14 758 l 12 786 l 14 792 l 12 806 l 14 819 l 12 829 l 6 829 l 9 867 l 6 877 l 11 880 l 22 871 l 22 873 l 6 886 l 6 965 q 15 970 7 970 l 18 970 l 18 968 l 28 970 l 56 970 l 67 966 l 71 970 l 75 970 l 83 968 l 84 970 l 89 970 l 89 968 l 106 970 l 119 970 l 127 968 l 133 970 l 137 968 l 146 970 l 147 970 l 149 968 l 150 970 l 189 970 l 191 968 l 193 970 l 239 970 l 277 972 l 389 972 l 421 974 l 450 972 l 491 972 l 500 974 l 500 972 l 502 974 l 503 974 l 511 972 l 534 975 l 541 974 l 572 977 m 482 360 l 485 357 l 486 359 l 486 360 l 482 360 m 495 360 l 495 359 l 551 359 l 551 360 l 495 360 m 186 -159 l 188 -163 l 189 -163 l 189 -159 l 186 -159 z "},"g":{"ha":825,"x_min":0,"x_max":722,"o":"m 109 975 l 114 975 l 117 972 l 118 973 l 120 973 l 153 972 l 181 973 l 185 972 l 185 969 l 161 966 l 161 965 l 164 965 q 205 972 192 968 l 238 972 l 239 970 l 241 972 l 302 972 l 357 973 l 372 972 l 389 973 l 411 972 l 429 973 l 433 972 l 446 973 l 465 972 l 476 973 l 484 972 l 497 973 l 497 972 l 498 973 l 500 973 l 504 972 l 507 972 l 507 973 l 599 970 q 608 965 602 970 q 612 970 610 970 l 620 970 q 668 949 647 970 l 668 952 q 703 919 680 952 q 718 865 709 919 l 717 865 l 722 825 l 721 817 l 722 812 l 721 789 l 721 756 l 722 743 l 721 742 l 721 738 l 722 738 l 721 721 l 721 671 l 720 665 l 721 660 l 721 644 l 720 639 l 721 635 q 717 611 720 611 l 703 611 l 677 612 l 654 611 q 537 616 569 612 l 536 615 l 534 615 l 517 616 l 517 614 l 511 614 l 511 616 l 507 620 l 500 618 l 498 618 q 489 628 489 618 l 489 705 q 494 713 489 713 l 494 714 q 489 717 494 717 l 489 724 l 501 727 l 501 728 l 500 728 l 492 727 l 490 727 l 492 732 l 489 739 l 488 739 l 483 735 l 480 735 l 480 736 l 471 735 l 425 735 l 423 736 l 422 735 l 411 735 l 366 736 l 366 741 l 363 741 q 361 736 363 736 l 274 736 l 271 739 l 271 747 l 273 753 l 271 759 q 267 741 267 759 l 267 736 l 254 736 l 243 739 q 235 732 239 732 l 237 726 l 237 714 l 238 701 l 237 701 l 238 699 l 238 697 l 237 693 l 238 689 l 237 678 l 238 650 q 230 492 230 583 l 229 481 l 233 484 l 234 484 l 234 471 l 231 471 l 230 450 l 230 443 l 231 387 l 233 389 l 235 389 l 235 378 l 231 378 q 235 305 235 336 l 235 267 l 234 262 l 235 256 l 235 255 l 234 242 l 235 238 l 242 239 l 246 237 l 248 238 l 280 238 q 283 233 280 233 l 284 238 l 472 235 l 473 234 l 475 234 l 488 237 l 488 238 l 484 238 l 484 241 q 496 248 488 248 l 503 248 l 503 251 q 494 254 494 252 l 493 252 l 488 252 q 481 262 481 254 l 481 271 l 489 315 l 481 315 l 481 342 q 489 345 489 342 l 489 348 l 481 349 l 481 355 q 486 358 481 358 l 486 359 l 484 361 l 486 362 l 486 363 l 480 369 q 469 363 476 369 l 467 363 l 467 365 l 465 363 l 464 363 q 439 366 439 364 l 439 369 l 437 369 l 437 365 l 426 365 q 422 370 422 365 l 420 372 l 419 372 l 422 365 l 363 365 l 359 369 l 361 378 l 361 402 l 362 408 l 359 422 l 361 426 l 359 441 l 359 463 l 362 467 l 362 468 l 359 472 l 359 477 q 374 484 359 481 l 381 483 l 393 483 l 399 484 l 459 477 l 459 480 l 455 480 l 455 483 l 709 483 q 721 471 721 483 l 720 427 l 720 385 l 718 344 l 720 342 l 718 328 l 718 136 l 717 99 q 711 90 714 99 l 717 89 q 686 33 697 37 l 685 33 l 685 35 l 699 90 l 697 92 l 696 92 l 677 25 q 615 0 646 0 l 607 0 q 602 9 607 6 q 597 0 597 9 l 538 0 l 533 1 l 532 0 l 530 0 l 299 3 l 295 4 l 288 3 l 284 3 l 283 4 l 281 3 l 195 4 l 124 4 l 121 1 l 118 1 l 118 3 l 104 1 l 103 1 q 58 16 89 1 q 26 45 37 29 q 36 53 33 47 l 36 54 q 24 47 29 47 l 22 47 q 9 75 9 69 l 11 83 q 4 109 9 109 q 0 118 1 109 l 4 118 l 4 120 l 0 125 l 0 326 l 1 352 l 0 353 l 1 359 l 3 463 l 3 512 l 4 528 l 3 529 l 4 536 l 4 586 q 8 636 4 636 l 7 637 l 7 639 l 8 659 l 4 659 l 5 673 l 5 688 l 12 771 l 9 771 l 7 743 l 7 741 l 3 741 l 3 824 l 7 824 q 3 842 5 842 l 4 848 l 3 861 q 47 945 3 903 q 109 975 85 975 m 128 965 l 128 964 l 139 962 l 159 965 l 159 966 l 155 966 l 128 965 m 94 962 l 120 962 l 120 964 l 103 965 l 96 965 l 94 962 m 58 934 l 58 928 l 61 928 l 61 931 l 58 934 m 460 479 l 460 477 l 465 476 l 467 477 l 468 477 l 469 476 l 472 476 l 472 477 l 465 479 l 460 479 z "},"h":{"ha":829,"x_min":-4,"x_max":730,"o":"m 18 977 l 25 975 l 50 975 l 55 977 l 63 974 l 71 977 l 80 975 l 132 974 l 143 975 l 168 974 l 197 974 l 204 972 l 204 974 l 205 972 l 237 972 l 240 970 q 235 713 240 876 l 235 640 l 224 638 l 224 637 q 235 631 224 633 l 235 625 q 237 607 235 614 l 249 610 q 290 604 262 604 l 308 604 l 315 606 l 315 607 l 308 607 l 311 610 l 323 610 l 323 607 l 317 607 l 317 606 l 326 604 l 328 606 l 329 606 l 440 607 l 452 608 l 455 600 q 458 606 458 600 l 460 607 l 484 607 l 493 606 l 494 607 l 494 608 q 488 613 488 608 l 488 625 l 494 627 l 494 628 l 488 631 l 489 655 l 489 764 l 490 784 l 489 791 l 490 793 l 489 797 l 490 833 l 490 835 l 492 840 l 490 846 l 492 850 l 490 852 l 492 873 l 492 897 l 493 957 l 492 966 q 511 974 492 974 l 704 974 l 705 972 l 707 974 l 711 974 q 722 970 722 974 l 721 962 l 722 957 l 724 957 l 724 972 l 728 972 l 729 933 l 728 922 l 730 891 l 729 882 l 730 861 l 729 766 q 725 762 729 762 l 725 760 l 726 747 l 725 746 l 726 739 l 726 724 l 728 720 l 728 717 l 726 717 l 725 633 l 725 591 l 726 555 l 725 551 q 729 517 728 547 l 730 513 l 729 490 l 730 485 l 729 475 l 728 307 l 728 197 l 726 182 l 728 170 l 728 144 l 726 128 l 728 124 l 726 123 l 728 109 l 728 -202 l 726 -226 l 725 -226 q 665 -171 707 -216 q 527 -37 654 -164 q 486 17 486 -3 l 486 33 l 485 44 l 486 55 l 486 69 l 488 71 l 486 75 l 489 114 l 486 146 l 488 146 l 486 151 l 489 169 l 488 203 l 488 250 l 494 323 q 490 313 491 323 l 488 313 l 488 318 q 490 334 488 334 q 507 339 507 335 l 490 339 l 490 343 l 511 342 l 511 338 l 513 338 q 522 342 520 338 l 522 343 l 492 346 l 492 347 l 496 368 l 496 370 l 489 368 l 488 368 q 484 377 488 376 l 482 367 l 472 367 l 467 368 l 456 367 l 267 367 l 266 372 l 263 372 q 254 367 263 367 q 249 374 249 367 l 248 374 q 245 370 248 370 q 241 374 241 370 l 237 374 l 237 370 l 233 354 l 235 332 l 227 329 q 235 323 227 327 l 235 304 l 236 305 l 239 305 l 239 301 l 235 301 q 239 249 236 260 l 237 248 l 239 241 l 239 224 l 237 170 l 239 151 l 237 149 l 237 148 l 239 142 l 237 130 l 239 107 l 239 66 l 237 61 l 239 55 l 239 52 l 237 52 l 239 45 l 239 39 l 237 12 q 156 5 188 5 l 98 6 l 97 5 l 96 5 l 89 6 l 0 9 l -1 10 l -1 13 l -3 51 l -1 59 l -3 65 l -1 114 l -1 249 q 7 353 -1 270 q 0 323 3 353 l -3 323 l -3 361 l -4 363 l -3 364 l -3 374 l -4 375 l -3 377 l -4 412 l -4 414 l -3 430 l -4 431 l -4 433 l -3 439 l -4 439 l -3 440 l -3 454 l -4 460 l -3 461 l -4 475 l -3 498 l -4 511 l -3 511 l -4 513 l -3 523 l 0 575 l -3 582 l 5 783 l 4 794 l 13 871 l 10 871 l 4 832 l 1 832 q 14 915 9 915 l 16 915 l 16 908 l 14 906 l 14 905 l 16 905 l 24 960 l 22 960 q 14 935 18 960 q 7 918 12 935 l 4 918 q 18 977 8 977 m 721 941 l 721 933 l 722 923 l 724 923 l 724 927 l 722 936 l 724 944 l 721 941 m 722 919 l 721 912 l 724 912 l 724 919 l 722 919 m 14 897 l 12 880 l 12 876 l 13 876 l 16 894 l 16 897 l 14 897 m 722 881 l 722 880 l 725 877 l 725 878 l 722 881 m 544 326 l 548 323 l 548 329 l 547 329 l 544 326 z "},"i":{"ha":340,"x_min":0,"x_max":246,"o":"m 39 979 l 65 976 l 66 977 l 77 976 l 134 975 l 136 976 l 137 976 l 146 975 l 159 975 l 164 973 l 170 976 l 178 973 l 178 975 l 180 973 l 218 973 l 219 975 l 220 973 l 246 973 q 239 854 246 915 l 241 848 l 238 840 l 241 840 l 241 843 l 242 842 l 243 842 l 242 810 l 242 796 l 241 795 l 242 793 l 242 781 q 238 770 242 770 l 241 670 l 241 657 l 243 646 l 239 500 l 241 499 l 241 498 l 239 482 l 239 476 l 241 469 l 239 460 l 239 434 l 238 425 q 241 407 241 419 l 241 376 l 242 330 l 241 281 l 241 226 q 238 197 241 197 l 241 189 l 241 118 l 242 92 l 241 90 l 242 76 l 242 -16 l 241 -32 q 243 -62 243 -43 l 242 -81 l 243 -83 l 243 -84 q 239 -90 241 -90 q 243 -125 241 -90 l 242 -125 l 243 -127 l 243 -151 l 242 -157 l 243 -166 l 243 -175 l 242 -189 l 243 -203 l 242 -204 l 242 -205 l 243 -212 l 243 -217 l 242 -226 l 243 -231 l 241 -248 q 161 -170 233 -248 q 64 -66 64 -72 l 41 -36 l 41 -37 l 50 -49 l 50 -52 l 48 -52 q 5 -2 5 -13 l 3 3 l 3 14 l 4 14 l 12 8 l 12 9 q 3 25 3 18 l 3 43 l 1 66 l 3 70 l 1 76 l 3 119 l 3 131 l 1 170 l 3 210 l 3 236 l 1 267 l 3 267 l 1 269 l 3 278 l 1 292 l 3 299 l 1 322 l 1 347 l 0 380 l 1 391 l 0 395 l 1 395 l 0 400 l 9 448 l 3 584 l 4 584 l 3 585 l 3 604 l 4 608 l 3 615 l 3 762 l 4 796 l 3 802 l 9 854 l 9 857 l 7 857 l 9 871 l 9 905 l 10 915 l 13 915 q 16 911 13 911 q 9 928 11 928 l 10 935 l 10 967 l 9 977 l 13 977 q 16 973 16 977 l 18 973 l 18 975 l 17 976 l 17 977 l 28 977 l 39 979 m 238 798 l 238 792 l 239 792 l 239 798 l 238 798 m 22 -7 l 22 -10 l 24 -12 l 26 -12 l 24 -7 l 22 -7 z "},"j":{"ha":468,"x_min":0,"x_max":364,"o":"m 284 979 l 286 979 q 307 973 294 973 l 309 977 l 318 975 l 326 975 l 345 976 l 359 975 l 358 970 q 361 895 361 946 l 358 841 l 358 827 l 362 656 l 362 597 q 355 585 355 591 l 355 584 l 362 585 l 362 581 q 355 576 358 581 l 355 572 l 357 573 l 362 573 l 361 351 l 364 115 q 293 8 364 44 q 259 3 277 3 l 240 4 q 230 1 230 3 l 223 3 l 219 3 l 214 1 l 212 3 l 205 1 l 141 1 l 100 0 l 99 1 l 92 0 l 88 0 l 42 1 l 38 0 l 25 1 l 5 1 q 1 11 1 1 l 0 11 l 1 18 l 1 38 l 3 39 l 1 41 l 1 42 l 0 106 l 1 106 l 0 107 l 1 117 l 0 134 l 1 134 l 0 135 l 0 140 l 1 141 l 0 145 q 7 240 0 240 l 31 239 l 35 240 l 50 237 l 73 239 l 88 239 l 96 237 l 102 239 l 104 231 l 115 241 l 120 239 l 120 241 l 121 241 l 120 260 l 121 400 l 121 442 l 120 659 l 119 665 l 121 679 l 119 700 l 119 907 l 120 941 l 119 943 l 119 944 l 120 945 l 119 952 l 119 969 q 128 975 119 971 l 135 973 l 136 973 l 166 972 l 174 975 l 184 973 l 185 975 l 186 975 l 189 973 l 198 975 l 205 975 l 210 973 l 216 975 l 223 975 l 229 973 l 233 975 l 245 973 l 254 975 l 258 973 l 271 975 l 284 975 l 284 979 m 326 947 l 328 947 l 330 949 l 330 951 l 326 947 z "},"k":{"ha":835,"x_min":-2,"x_max":736,"o":"m 12 983 l 41 983 l 50 982 l 54 983 l 58 982 l 60 983 l 62 983 l 63 982 l 67 982 l 67 983 l 84 982 l 129 982 l 172 981 l 177 982 l 205 981 l 245 981 l 245 962 l 243 937 l 245 927 l 243 865 l 243 840 l 241 838 l 243 837 l 241 743 l 241 656 q 236 647 241 649 l 222 648 q 216 644 216 646 l 231 642 l 237 642 l 240 640 q 232 635 232 638 l 240 634 l 240 623 q 229 618 230 623 l 229 617 q 253 612 243 612 l 279 612 l 287 610 l 304 613 l 305 612 l 312 613 l 317 613 l 323 612 l 332 613 l 342 613 l 343 612 l 345 613 l 347 613 l 355 612 l 364 613 l 366 612 l 367 612 l 369 613 l 385 612 l 387 612 l 410 613 l 436 612 l 479 612 q 483 603 483 610 q 497 612 488 612 l 497 613 l 491 620 l 491 633 l 492 634 l 491 635 l 492 685 l 492 701 l 491 702 l 492 703 l 492 732 q 498 736 498 732 l 497 743 l 498 747 l 494 806 l 496 806 l 494 808 l 496 852 l 496 927 l 497 968 l 496 977 l 497 978 l 507 978 l 508 977 l 509 978 l 511 978 l 517 977 l 526 978 l 538 977 l 539 978 l 543 977 l 578 978 l 587 977 l 601 978 l 608 978 l 616 977 l 625 978 l 627 977 l 633 978 l 650 978 l 686 977 l 715 978 q 735 972 735 978 l 736 965 l 736 962 l 735 961 l 736 960 l 735 936 l 735 931 l 734 709 l 732 692 l 735 689 l 735 688 l 732 661 l 732 654 l 731 652 l 732 651 l 732 624 q 713 543 723 555 q 674 511 684 514 q 644 497 663 497 l 631 500 l 631 497 l 632 496 l 632 494 l 616 492 l 611 493 l 610 492 l 610 490 l 612 486 l 619 488 q 721 420 679 488 q 731 379 731 395 l 729 368 l 731 344 l 729 218 l 728 218 l 729 217 l 726 134 l 725 132 l 726 127 l 725 31 l 724 30 l 724 28 l 725 22 l 724 18 l 725 13 l 724 5 l 725 -4 l 724 -9 l 724 -12 l 725 -12 l 724 -42 l 724 -45 q 720 -234 724 -157 l 718 -234 q 519 -41 703 -227 q 486 -4 486 -7 l 487 7 l 486 14 l 487 34 l 486 43 l 488 52 l 486 76 l 487 76 l 486 77 l 486 79 l 487 85 l 486 100 l 486 102 l 487 131 l 486 137 l 487 137 l 486 138 l 486 149 l 487 162 l 486 168 l 487 172 l 486 180 l 487 182 l 486 183 l 486 186 l 487 187 l 486 189 l 487 210 l 487 251 l 488 268 l 487 268 l 488 269 l 487 279 l 490 344 l 488 344 l 490 345 l 488 359 l 488 361 q 496 365 488 365 l 487 375 q 483 369 484 375 l 391 369 l 377 370 l 370 369 l 273 370 l 266 370 q 263 375 266 375 q 253 370 258 370 l 249 370 l 249 376 q 239 359 239 376 q 228 352 233 352 l 228 351 q 239 347 239 349 l 239 337 q 231 334 231 337 q 239 324 239 334 l 240 315 l 239 294 l 240 280 l 239 279 l 239 275 l 240 275 l 239 230 l 239 4 l 235 0 l 212 0 l 197 1 l 195 0 l 181 1 l 143 1 l 135 3 l 133 1 l 109 3 l 1 3 l -1 4 l -2 4 l 1 18 l -1 24 l 1 96 l 1 117 l 2 132 l 1 144 l 2 145 l 1 149 l 2 151 l 2 153 l 1 153 l 2 175 l 2 298 l 3 311 l 2 313 l 3 320 l 3 391 l 2 430 l 3 442 l 2 444 l 2 446 l 6 459 q 3 520 3 478 l 3 568 l 5 574 l 3 575 l 5 592 l 5 630 l 6 635 l 5 637 l 6 686 l 6 770 l 8 841 l 6 846 l 8 857 l 8 859 l 6 880 l 8 881 l 6 898 l 6 978 l 12 983 z "},"l":{"ha":884,"x_min":0,"x_max":789,"o":"m 31 977 l 257 977 l 258 954 l 258 897 l 257 895 l 258 894 l 258 892 l 262 490 l 262 409 l 260 404 l 262 397 l 260 391 l 262 386 l 260 384 l 262 382 l 260 331 l 260 292 l 258 287 l 260 281 l 260 276 l 258 258 l 260 257 l 281 260 l 283 260 l 287 250 q 292 260 289 250 l 315 260 l 323 258 l 332 262 l 337 260 l 341 262 l 342 260 l 351 262 l 361 260 l 365 262 l 386 260 l 402 262 l 411 260 l 414 260 l 414 262 l 420 260 l 522 262 l 551 262 l 568 260 l 579 262 l 584 262 l 593 260 l 598 262 l 609 260 l 613 262 l 622 260 l 641 262 l 648 260 l 648 262 l 650 260 l 652 260 l 657 262 l 678 260 l 684 262 l 688 260 l 701 262 l 705 260 l 727 262 l 774 262 l 785 260 l 785 231 l 783 149 l 789 55 l 787 53 l 787 52 l 789 46 l 787 46 l 789 44 l 789 40 l 787 31 l 789 26 l 787 25 l 787 24 l 789 16 l 787 9 l 789 3 l 787 1 l 587 1 l 581 3 l 574 1 l 494 1 l 488 0 l 481 1 l 469 1 l 404 0 q 330 6 372 6 l 306 6 l 304 7 l 303 6 l 291 6 l 263 7 l 232 6 l 222 6 l 213 5 l 212 6 q 105 1 152 1 l 66 1 l 0 3 l 1 35 l 0 65 l 1 102 l 1 127 l 3 133 l 1 139 l 1 155 l 3 161 l 1 163 l 3 188 l 3 231 l 5 349 l 3 387 l 5 396 l 3 397 l 3 399 l 5 408 l 5 409 l 3 411 l 5 412 l 5 480 q 1 653 5 593 l 3 654 l 1 663 l 0 749 l 1 755 l 0 760 l 0 762 l 1 762 l 0 777 l 0 972 q 31 977 0 977 z "},"m":{"ha":1367,"x_min":0,"x_max":1264,"o":"m 41 979 l 45 977 l 42 973 l 45 973 l 71 977 l 289 975 l 311 977 l 353 977 l 450 975 l 543 975 l 593 973 l 597 975 l 612 973 l 613 973 l 628 975 l 631 975 l 631 973 l 652 975 l 671 975 l 779 976 l 781 977 l 782 977 l 783 976 l 798 977 l 1048 977 l 1062 976 l 1062 977 l 1063 976 l 1065 976 l 1177 970 q 1181 973 1177 973 q 1230 943 1230 954 q 1253 903 1253 915 l 1253 886 l 1254 886 l 1254 900 l 1258 900 q 1264 864 1264 882 l 1264 825 l 1263 692 l 1261 691 l 1261 690 l 1263 685 l 1260 611 l 1260 601 l 1263 422 l 1263 342 l 1260 87 l 1260 68 q 1264 43 1260 47 l 1264 -246 l 1263 -246 l 1110 -87 l 1049 -21 l 1024 4 q 1014 111 1019 39 l 1014 114 l 1016 114 l 1014 129 l 1014 166 l 1013 175 l 1014 176 l 1014 178 l 1013 220 l 1013 258 l 1014 260 l 1013 261 l 1013 284 l 1016 296 l 1013 313 l 1013 338 l 1014 355 l 1013 377 l 1013 471 l 1014 495 l 1013 500 l 1014 511 l 1013 526 l 1014 531 l 1013 538 l 1014 546 l 1013 557 l 1014 575 l 1013 579 l 1014 588 l 1013 592 l 1014 600 l 1016 719 q 1020 722 1020 719 l 1014 726 l 1002 722 l 992 723 l 975 723 q 966 733 966 723 l 965 734 l 963 734 l 962 724 l 909 727 l 856 724 l 791 726 l 776 727 l 774 722 l 757 723 l 755 722 l 755 697 q 747 681 747 686 l 747 677 q 755 616 747 661 l 753 579 l 753 323 l 755 2 l 712 2 l 696 1 l 684 2 l 680 1 l 673 2 l 659 1 l 618 4 l 616 2 l 608 4 l 536 2 l 530 1 l 524 2 l 516 1 l 506 5 l 504 63 l 504 143 l 503 181 l 504 182 l 504 184 l 503 190 l 503 197 l 506 197 l 507 185 l 510 185 l 513 203 l 513 204 q 509 254 513 237 l 510 260 l 509 260 l 510 261 q 503 409 504 311 l 504 409 l 503 410 l 503 457 l 504 458 l 503 460 l 503 484 l 504 530 l 507 530 l 511 448 l 513 448 l 513 456 q 507 663 507 541 l 507 678 l 510 678 l 513 644 l 516 644 l 513 685 l 516 685 l 516 688 q 507 714 508 688 l 510 717 l 510 722 l 492 719 l 384 722 l 309 722 l 304 720 l 298 722 l 296 722 l 283 720 l 269 722 l 260 722 l 258 720 l 257 720 l 257 723 l 256 723 q 250 710 252 723 l 243 705 l 243 703 q 247 695 247 703 l 247 694 l 241 694 q 248 691 241 691 l 248 678 l 250 677 q 247 643 247 669 l 247 522 l 245 392 l 244 392 l 245 390 l 245 348 l 244 347 l 245 345 l 245 344 l 244 255 l 245 236 l 244 200 l 245 142 l 244 142 l 245 140 l 245 136 l 244 134 l 245 133 l 245 117 l 247 43 l 245 41 l 245 40 l 247 35 l 247 9 l 245 8 l 247 7 l 247 4 q 243 1 247 1 l 71 4 l 67 2 l 51 4 l 26 4 l 18 5 l 9 4 q 1 17 1 4 l 1 40 l 4 45 l 1 53 l 4 357 l 3 367 l 4 390 l 4 395 l 3 418 l 4 446 l 4 481 l 3 505 l 4 507 l 4 508 q 1 634 1 551 l 1 643 l 4 643 l 4 653 l 1 653 l 4 691 q 0 813 0 755 l 0 839 l 1 845 l 0 851 l 0 920 l 1 929 l 0 937 l 0 971 q 12 977 0 975 l 24 977 l 41 979 m 1253 877 l 1253 874 l 1254 867 l 1255 867 l 1255 874 l 1253 877 m 314 732 l 314 727 l 315 727 l 317 732 l 314 732 m 511 446 l 511 437 l 513 429 l 514 429 l 514 431 l 513 446 l 511 446 m 513 428 l 513 419 l 516 416 l 516 418 l 514 428 l 513 428 m 514 409 l 514 404 l 516 404 l 516 409 l 514 409 m 514 396 l 514 395 l 517 392 l 517 393 l 514 396 m 516 385 l 516 382 l 519 378 l 519 382 l 516 385 m 519 364 l 519 358 l 520 358 l 520 364 l 519 364 m 519 354 l 522 351 l 522 357 l 519 354 z "},"n":{"ha":839,"x_min":-4,"x_max":737,"o":"m 16 977 l 83 977 l 116 975 l 125 977 l 153 974 l 181 975 l 197 974 l 235 975 l 258 975 l 263 974 l 265 975 l 288 974 l 427 974 l 456 972 l 464 974 l 464 972 l 465 974 l 500 974 l 530 972 l 531 974 l 532 974 l 543 972 l 606 974 l 606 972 l 608 971 l 608 970 l 614 972 l 640 966 l 647 966 l 655 967 q 724 928 701 964 l 737 847 l 736 797 l 736 781 l 737 731 l 736 677 l 736 610 l 734 587 l 736 587 l 734 583 l 733 433 l 732 433 l 733 429 l 729 256 l 730 255 l 730 254 l 729 241 q 726 142 728 142 l 724 142 l 724 124 l 722 118 q 726 90 726 112 l 726 77 l 725 57 l 726 56 l 726 54 l 725 37 l 726 1 l 725 -3 q 728 -70 728 -22 l 728 -90 l 729 -115 l 728 -134 l 728 -136 l 729 -148 l 728 -155 l 729 -156 l 729 -157 l 724 -177 l 724 -248 l 722 -248 q 670 -191 673 -202 q 530 -37 530 -49 l 496 -5 q 493 87 495 24 l 495 92 l 493 93 l 493 94 l 495 104 l 493 115 l 495 119 l 493 132 l 493 142 l 495 148 l 493 157 l 493 182 q 505 305 493 231 l 500 312 l 500 315 q 506 362 500 338 l 505 366 l 502 366 q 496 344 499 366 l 493 344 l 493 465 q 496 699 493 619 q 524 705 510 705 l 524 706 l 515 706 l 496 705 l 496 719 q 500 731 497 731 l 499 737 q 489 732 494 732 l 471 732 l 471 736 l 470 756 l 471 756 l 470 761 l 469 761 q 464 743 464 761 l 464 736 l 461 732 l 408 732 l 385 731 l 359 732 l 311 732 l 307 736 q 286 731 301 731 l 284 732 l 283 732 l 281 731 l 280 731 l 268 734 l 259 732 l 256 732 l 247 734 q 243 692 243 725 l 243 656 l 241 654 l 243 653 l 243 652 l 241 648 l 241 645 l 243 645 l 241 621 l 241 575 q 239 460 241 503 l 240 429 l 239 316 l 241 151 l 241 -1 l 231 -1 l 199 0 l 193 -1 l 145 0 l 45 0 l 18 1 l 17 0 l 16 0 l -4 3 l -4 5 l 1 8 l 0 15 l 3 337 l 4 341 l 3 348 l 3 351 l 4 358 l 3 368 l 4 376 l 4 379 l 3 379 l 4 416 l 4 612 l 5 613 l 4 614 l 4 616 l 5 631 l 4 633 l 4 634 l 5 640 l 4 640 l 5 641 l 5 670 l 4 671 l 5 673 l 5 674 l 4 675 l 5 682 l 5 684 l 4 690 l 7 699 l 5 701 l 7 711 l 7 728 l 5 736 l 7 737 l 5 737 l 7 739 l 7 765 l 8 857 l 7 871 l 8 917 l 8 975 l 16 977 m 718 258 l 718 251 l 719 251 l 719 258 l 718 258 m 719 214 l 719 205 l 720 205 l 720 214 l 719 214 m 720 197 l 719 193 l 720 188 l 722 188 l 722 197 l 720 197 m 720 181 l 720 177 l 722 167 l 724 167 l 724 181 l 720 181 z "},"o":{"ha":835,"x_min":-2,"x_max":734,"o":"m 529 979 l 535 977 l 535 979 l 536 977 l 570 977 l 591 976 l 608 979 l 608 976 l 622 979 q 629 973 629 979 q 679 960 637 968 q 694 941 694 952 q 711 913 705 918 l 715 913 l 716 914 q 724 876 724 914 l 726 875 q 732 866 726 866 l 732 861 l 730 859 l 732 857 l 732 856 l 733 840 l 732 792 l 732 684 l 730 672 l 732 661 l 732 623 l 730 608 l 732 594 l 730 577 l 732 568 l 730 530 l 732 519 l 730 496 l 730 453 l 733 130 l 734 110 q 699 34 725 61 q 606 5 669 5 l 562 4 l 446 7 l 368 7 l 327 5 l 326 7 l 311 5 q 113 3 114 5 l 113 0 l 108 0 q 26 45 68 0 q 3 128 3 73 l 2 174 l 3 184 q -1 334 -1 191 l 1 726 l -1 778 l 1 778 l -1 779 l 1 786 l -2 835 l -2 853 q 69 966 -2 936 l 72 966 l 77 963 l 95 964 l 95 967 l 86 967 l 86 970 q 127 976 104 976 l 139 976 l 139 975 l 138 973 l 138 971 l 139 971 l 144 973 l 151 971 q 189 976 168 976 l 328 976 l 346 977 l 346 976 l 347 977 l 363 977 l 364 976 l 366 977 l 404 977 l 406 976 l 407 977 l 521 977 l 529 979 m 113 968 l 113 967 l 119 967 l 119 970 l 117 970 l 113 968 m 98 967 l 98 966 l 102 966 l 111 967 l 111 968 l 108 968 l 98 967 m 328 734 l 321 735 l 317 734 l 309 735 l 307 734 l 306 734 l 304 735 l 302 735 l 301 734 l 292 735 l 284 735 l 267 734 l 267 735 l 263 734 l 240 735 l 240 720 l 239 713 l 241 707 l 240 671 l 243 608 l 241 608 l 243 607 l 243 549 l 241 547 l 243 545 q 237 470 237 503 l 237 448 l 243 326 l 241 325 l 241 323 l 243 315 l 243 292 l 241 290 l 243 289 l 243 286 l 241 276 l 243 264 q 240 251 243 251 l 241 250 l 241 243 l 240 233 l 270 237 l 274 235 l 276 237 l 280 235 l 284 214 l 286 214 l 286 235 l 401 238 l 408 239 l 415 238 l 452 239 l 460 238 l 474 239 l 485 239 l 491 235 l 492 235 l 494 239 l 490 256 l 492 271 l 491 299 l 491 300 l 494 300 l 495 283 l 496 283 l 496 289 q 491 387 491 357 l 491 469 l 492 470 l 491 471 l 492 479 l 491 513 l 491 550 l 492 555 l 491 557 l 492 588 l 492 660 l 495 660 l 499 628 l 500 628 l 500 633 q 491 680 498 680 l 492 704 l 492 721 l 496 726 l 496 728 l 494 728 l 494 732 q 504 736 494 736 l 504 738 q 490 741 493 738 q 471 735 490 736 l 429 735 q 427 742 429 742 l 328 734 m 500 627 l 500 621 l 503 621 l 503 627 l 500 627 m 500 615 l 500 614 l 504 588 l 505 588 l 505 601 l 504 615 l 500 615 m 505 587 l 505 580 l 507 580 l 507 587 l 505 587 m 505 577 l 505 571 l 507 567 l 508 567 l 508 568 l 507 577 l 505 577 m 508 553 l 507 549 l 508 547 l 509 547 l 509 553 l 508 553 m 496 281 l 496 275 l 498 275 l 498 281 l 496 281 z "},"p":{"ha":843,"x_min":0,"x_max":742,"o":"m 122 979 l 134 977 l 135 979 l 136 979 l 165 977 l 185 977 l 205 976 l 210 977 l 218 976 l 228 977 l 233 976 l 237 977 l 253 976 l 257 977 l 265 976 l 267 976 l 273 977 l 278 975 l 285 976 l 300 976 l 307 975 l 312 976 l 315 976 l 320 975 l 326 976 l 328 975 l 329 975 l 337 977 l 349 975 l 433 975 q 559 969 526 975 l 560 970 l 562 970 l 589 967 l 590 969 l 591 969 l 614 963 l 615 963 l 615 964 l 608 966 l 608 969 l 635 972 q 674 955 655 972 l 686 949 l 686 952 q 732 907 703 952 q 742 862 742 881 l 740 857 l 742 851 l 737 751 l 739 747 l 734 731 l 737 731 l 736 701 l 736 686 l 739 654 q 736 647 739 647 l 737 619 l 737 483 q 650 370 737 398 l 640 369 l 625 370 l 399 368 l 393 368 l 392 369 l 391 368 l 353 368 l 296 369 l 296 368 l 288 370 l 288 380 l 287 380 q 281 370 283 380 l 274 368 q 269 370 274 370 l 267 378 q 245 368 258 368 l 245 144 l 248 127 l 245 106 l 245 -237 l 244 -246 l 241 -246 q 94 -94 220 -228 q 5 -5 10 -12 l 0 -1 l 3 4 l 1 22 l 4 243 l 5 281 l 4 285 l 5 286 l 5 290 l 4 290 l 5 304 l 5 317 l 4 347 l 5 365 l 3 474 l 5 578 l 4 585 l 5 587 l 4 597 l 4 661 l 7 664 q 4 706 4 681 l 4 761 l 5 802 l 4 806 l 5 816 l 4 824 l 5 840 l 5 859 l 4 876 l 9 977 l 122 979 m 625 960 l 625 959 l 631 958 l 631 959 l 629 960 l 625 960 m 496 751 q 492 734 495 734 l 347 734 l 345 733 l 344 734 l 323 734 l 321 733 l 320 734 l 316 733 q 281 741 281 733 l 279 743 l 279 744 l 278 743 l 277 743 l 275 744 l 274 744 l 274 741 l 273 743 q 265 734 270 743 l 264 734 q 260 744 261 734 l 261 748 q 257 736 257 748 q 248 740 252 736 l 245 739 l 245 737 l 249 734 l 249 722 l 237 722 l 237 720 l 249 720 l 249 615 l 250 598 q 254 605 253 598 l 258 605 l 267 604 l 281 605 l 459 605 q 465 589 462 589 l 462 605 l 481 605 l 483 598 l 485 598 l 485 601 l 483 601 l 485 605 l 496 605 l 496 598 l 501 606 l 500 614 l 500 648 l 501 733 l 498 736 l 498 748 l 496 751 m 220 724 l 223 722 l 226 722 l 224 727 l 223 727 l 220 724 z "},"q":{"ha":825,"x_min":-6,"x_max":726,"o":"m 131 977 l 153 975 l 165 977 l 174 975 l 195 977 l 203 977 l 205 975 l 206 977 l 236 977 l 237 975 l 239 977 l 260 977 l 261 975 l 262 977 l 277 977 l 284 975 l 292 977 l 325 977 l 326 975 l 328 977 l 332 977 l 334 975 l 335 977 l 342 977 l 343 975 l 345 977 l 383 975 l 486 975 l 635 974 q 700 938 678 975 q 712 920 700 933 q 720 909 712 918 q 726 861 726 882 l 726 858 l 725 858 l 726 852 l 725 724 l 725 695 l 724 673 l 725 671 l 724 664 l 724 634 l 722 629 l 724 627 l 724 626 l 722 621 l 722 618 l 724 618 l 722 602 l 722 465 l 721 450 l 722 437 l 722 394 l 721 374 l 722 370 l 721 366 l 722 364 l 721 359 q 717 142 720 183 l 715 -25 l 714 -25 l 715 -26 l 714 -42 l 711 -227 l 707 -227 l 511 -24 l 511 -20 l 522 -20 l 522 -18 q 498 -11 498 -16 l 498 -7 q 505 -3 505 -7 q 481 7 492 -3 l 364 7 q 230 12 230 7 l 223 9 l 220 12 l 212 10 l 210 12 l 209 10 l 208 10 l 203 12 l 202 10 l 201 10 l 195 12 l 193 12 q 161 6 190 6 q 58 20 70 6 q 47 29 47 26 l 49 33 l 45 32 q -6 118 -6 66 l -6 286 l -5 309 l -6 324 l -6 336 l -5 337 l -6 338 l -6 480 l -5 488 l -6 494 l -5 494 l -6 496 l -6 564 l -5 617 l -6 626 l -5 644 l -6 663 l -5 681 l -6 686 l -5 699 l -6 732 l -5 733 l -6 741 l -6 791 q 8 914 4 914 q 104 975 45 975 l 111 975 q 114 971 111 971 l 115 971 q 131 977 123 977 m 235 732 l 235 729 l 236 728 l 236 726 l 227 725 l 230 722 l 237 722 l 237 695 q 230 692 237 692 q 236 690 230 690 l 237 688 l 237 593 l 236 592 l 237 591 l 237 401 l 236 395 l 237 394 l 237 393 l 236 351 l 236 336 l 235 328 l 236 320 l 236 315 l 235 296 l 236 278 l 235 242 l 257 242 l 257 239 l 245 237 l 245 234 l 248 234 q 296 242 270 242 l 296 239 l 298 239 l 298 242 l 305 242 l 309 239 l 416 242 l 452 242 q 462 237 462 242 l 465 237 l 467 241 l 481 239 l 500 241 l 500 244 q 482 251 482 245 l 482 260 q 499 267 499 262 l 499 269 l 482 272 l 482 304 l 484 306 l 482 307 l 484 313 l 482 324 l 484 349 l 482 353 l 482 355 l 484 355 l 485 422 l 485 510 l 486 524 l 485 536 l 485 548 l 484 583 l 485 627 l 485 695 l 486 696 l 485 698 l 485 701 q 488 729 486 729 l 486 730 l 486 736 l 492 738 l 492 739 l 489 739 l 479 733 l 386 733 l 385 734 l 383 733 l 376 733 l 372 734 l 364 733 l 346 733 l 345 734 l 343 733 l 340 733 l 241 734 l 240 739 l 235 732 z "},"r":{"ha":831,"x_min":0,"x_max":736,"o":"m 31 977 l 81 977 l 94 975 l 99 977 l 105 975 l 106 977 l 129 974 l 138 975 l 250 974 l 259 972 l 263 974 l 288 972 l 302 974 q 422 971 347 971 l 446 970 l 456 971 l 460 970 l 467 971 l 469 970 l 470 970 l 475 971 l 479 970 l 490 971 l 503 970 l 511 971 l 513 970 l 519 971 l 523 971 l 527 970 l 534 971 l 588 971 l 604 970 l 609 971 q 619 968 619 970 l 626 970 l 629 970 q 671 957 652 970 l 670 951 q 696 941 684 941 q 732 887 721 924 l 736 869 l 735 797 l 735 682 l 734 669 l 735 659 l 735 658 l 734 652 l 735 651 l 735 650 q 722 559 732 559 l 720 559 q 717 563 720 563 l 717 562 l 718 552 l 717 552 q 669 504 680 504 l 661 502 l 652 504 q 629 494 652 494 l 627 494 l 623 496 l 614 494 l 606 494 l 606 491 l 643 485 l 639 479 l 640 478 l 642 479 l 659 479 q 687 460 675 479 l 694 460 q 729 392 720 433 l 732 380 l 731 331 l 731 328 l 729 317 l 731 309 l 729 281 l 731 270 l 728 256 l 729 240 l 729 208 l 728 206 l 729 205 l 729 193 l 728 192 l 729 191 l 724 115 l 728 114 l 726 113 l 728 92 l 728 31 l 726 18 l 728 8 l 728 -9 l 726 -15 l 728 -16 l 726 -20 l 728 -31 l 726 -79 l 726 -111 l 725 -122 l 726 -134 l 726 -157 l 725 -158 l 726 -159 l 725 -176 l 725 -182 l 726 -195 l 725 -209 l 725 -224 l 724 -230 q 732 -234 724 -234 l 732 -243 l 728 -243 q 538 -49 608 -125 q 492 -2 515 -30 l 493 -1 l 493 2 q 488 5 493 5 l 488 22 l 487 50 l 490 144 l 488 151 l 492 218 l 490 223 l 493 248 q 488 250 488 248 l 490 301 l 490 304 q 496 308 490 307 q 492 313 496 313 l 492 317 l 494 317 l 494 319 l 490 321 q 494 332 491 332 l 501 332 q 492 349 501 336 l 492 359 l 498 361 l 498 362 l 496 362 l 496 366 l 500 366 l 500 369 l 462 370 l 435 370 l 246 373 q 235 359 244 359 q 243 356 235 356 l 243 352 q 238 349 238 352 l 238 348 l 243 347 q 239 315 242 315 l 241 290 l 238 107 l 237 97 l 239 76 l 238 60 l 238 7 l 243 5 l 242 3 l 242 2 l 234 3 l 225 2 l 224 3 l 222 3 l 218 2 l 159 5 l 33 5 l 24 7 l 22 5 l 21 5 q 0 11 0 7 l 0 28 l 1 55 l 0 56 l 0 58 l 1 62 l 0 63 l 1 71 l 1 76 l 0 81 l 3 97 l 1 103 l 10 522 l 9 530 l 12 553 l 10 578 l 10 600 l 13 617 l 10 703 q 13 853 13 739 l 12 858 l 13 866 l 13 917 l 14 974 l 16 975 l 20 975 q 22 971 22 975 l 24 939 l 26 939 l 26 956 l 24 975 l 31 977 m 24 934 l 24 873 l 26 865 l 24 856 l 26 854 l 26 853 l 24 852 l 26 845 l 26 828 l 27 821 l 28 821 l 28 854 l 27 890 l 28 890 l 27 892 l 27 913 l 26 934 l 24 934 m 27 818 l 27 806 l 28 806 l 28 818 l 27 818 m 251 733 l 251 732 l 250 707 l 241 707 l 238 705 l 238 703 l 250 703 l 250 638 l 243 631 q 248 628 248 631 l 248 607 l 272 610 l 272 608 l 273 610 l 279 610 l 293 608 l 303 610 l 304 608 l 306 608 l 326 612 l 328 610 l 374 610 l 380 608 l 385 610 l 388 610 l 395 608 l 404 610 l 411 608 l 418 610 l 429 608 l 444 610 q 466 604 460 610 q 469 608 466 608 l 490 608 l 492 598 l 494 598 l 498 612 l 496 625 l 496 689 l 498 689 l 498 685 l 500 685 l 500 693 l 496 718 l 496 722 l 498 730 l 496 733 l 488 732 l 486 734 l 476 733 l 416 733 l 394 734 l 392 733 l 385 734 l 375 734 l 366 733 l 353 734 l 309 734 l 286 736 l 280 734 l 271 736 l 269 734 l 262 736 l 254 736 l 251 733 m 498 672 l 498 637 l 500 637 l 500 672 l 498 672 m 500 629 l 500 621 l 501 621 l 501 629 l 500 629 m 498 318 l 498 317 l 507 317 l 507 318 l 498 318 z "},"s":{"ha":829,"x_min":0,"x_max":723,"o":"m 135 977 l 170 975 l 219 975 l 219 972 l 227 974 l 231 972 l 275 975 l 355 975 l 490 974 l 495 975 l 501 974 l 623 972 l 671 972 l 723 970 l 723 753 l 722 745 l 723 737 l 722 733 l 635 733 l 629 734 l 623 733 l 621 733 l 615 734 l 614 733 l 612 733 l 595 734 l 584 733 l 584 734 l 583 733 l 564 734 l 366 733 l 364 732 l 357 733 l 277 733 l 269 736 l 260 734 l 254 741 q 242 734 254 739 l 239 724 l 241 705 l 239 705 l 241 703 l 241 696 l 239 689 q 220 684 220 688 l 220 682 q 241 676 241 679 l 241 633 l 239 628 l 241 622 l 238 609 l 242 598 l 243 598 l 243 600 l 242 606 l 243 608 l 245 608 l 252 604 q 264 608 258 608 l 418 608 l 509 601 l 509 602 q 505 605 509 605 l 505 608 l 517 608 l 532 609 l 536 606 l 538 608 l 602 608 l 611 606 l 615 608 q 675 588 638 608 q 692 570 677 579 q 723 487 723 543 l 722 487 l 723 486 l 723 479 l 722 478 l 723 477 l 723 469 l 722 460 l 723 453 l 723 451 l 722 450 l 723 448 l 722 433 l 723 343 l 723 256 l 722 243 l 723 238 l 720 206 l 722 193 l 722 184 l 720 178 l 722 174 l 720 161 l 722 132 l 722 114 q 671 17 722 54 q 597 0 649 0 l 414 0 l 391 1 l 390 0 l 380 1 l 277 1 l 258 3 l 252 1 l 241 4 l 232 1 l 205 1 l 198 0 q 138 3 182 3 l 5 3 l 4 1 l 3 1 l 1 9 l 3 211 l 1 241 l 12 242 l 34 242 l 73 241 l 92 242 l 92 241 l 97 242 l 127 241 l 134 242 l 141 241 l 142 242 l 144 242 l 162 236 q 197 239 175 239 l 202 239 l 202 238 l 192 236 l 192 233 l 315 239 l 377 239 l 390 238 l 391 239 l 393 239 l 430 238 l 467 238 q 470 231 470 238 l 473 231 q 475 239 473 239 l 486 239 l 487 238 l 488 238 l 488 241 l 490 241 l 488 242 l 488 243 l 491 260 l 490 311 l 490 329 l 488 349 l 490 356 l 488 364 l 490 370 l 483 372 l 473 372 q 470 377 473 377 q 465 372 466 377 l 463 372 q 399 377 425 377 l 391 376 l 383 377 l 360 377 l 345 374 l 345 376 l 343 374 l 342 374 l 304 372 l 303 373 l 296 372 l 252 372 l 229 370 l 228 372 l 227 372 l 216 370 l 211 372 l 197 370 l 135 370 q 74 383 74 370 q 56 391 74 390 q 10 441 34 391 l 9 447 l 10 447 q 39 408 14 446 l 40 407 l 41 407 l 7 458 q 3 481 3 468 q 5 488 3 488 l 4 490 l 4 568 l 5 583 l 1 584 l 1 591 l 3 591 l 4 589 l 5 589 l 7 692 l 7 723 q 0 733 7 733 l 1 750 l 1 834 l 0 843 l 1 848 l 0 848 l 4 856 l 0 861 l 1 863 l 1 871 q 14 918 1 886 q 110 975 54 975 l 114 975 l 118 972 l 124 972 l 124 975 l 135 977 z "},"t":{"ha":823,"x_min":0,"x_max":723,"o":"m 55 977 l 55 974 l 56 975 l 63 974 l 84 975 l 328 974 l 418 974 l 441 972 l 441 974 l 443 972 l 460 974 l 492 972 l 517 974 l 517 970 l 516 970 q 487 961 487 966 l 508 958 q 720 972 676 972 l 723 962 l 722 927 l 722 868 l 720 846 l 722 844 l 722 843 l 720 806 l 720 734 q 713 730 720 731 l 710 730 l 710 732 l 696 730 l 686 730 l 654 733 l 609 732 l 605 732 l 604 733 l 602 732 l 567 732 l 551 733 l 547 732 l 526 733 l 525 732 l 524 732 l 511 736 l 504 732 l 496 733 l 491 732 l 482 734 l 481 734 l 477 732 l 478 730 l 478 725 q 470 722 478 722 l 470 720 q 478 718 470 718 l 478 711 l 475 707 l 478 707 l 478 704 l 475 692 l 478 690 l 478 675 l 477 627 l 477 623 l 478 623 l 477 610 l 477 546 l 475 538 l 477 536 l 475 498 l 475 187 l 477 -58 l 478 -79 l 477 -80 l 477 -81 l 478 -87 l 477 -87 l 478 -88 l 478 -212 l 477 -220 l 478 -228 l 478 -236 l 477 -236 q 357 -118 444 -210 q 263 -26 351 -117 q 242 -1 242 -6 l 243 3 l 242 3 q 233 22 236 3 l 235 28 l 235 38 l 233 40 q 238 48 236 48 l 236 111 l 236 140 l 238 154 l 236 166 l 236 190 l 238 213 l 236 217 l 238 218 l 236 225 l 238 234 l 236 248 l 238 277 l 236 318 l 236 319 l 238 328 l 236 330 l 236 331 l 238 338 l 236 357 q 242 431 238 424 l 241 432 l 242 446 l 242 454 q 236 458 242 458 l 236 470 q 239 501 237 501 q 235 534 237 501 l 233 534 q 236 559 236 541 l 236 621 l 238 643 l 236 644 l 236 646 l 238 650 l 236 661 l 238 673 l 236 674 l 236 675 l 238 677 l 238 678 l 236 682 l 241 719 l 239 726 l 248 728 l 248 730 q 242 733 242 730 l 239 736 l 236 736 l 229 730 l 214 732 l 212 730 l 211 730 l 187 733 l 174 733 l 127 732 l 80 733 l 72 733 l 63 734 l 62 733 l 52 734 l 24 734 l 3 736 l 3 737 l 0 842 l 0 964 q 4 975 0 975 l 41 975 l 55 977 z "},"u":{"ha":837,"x_min":0,"x_max":736,"o":"m 536 975 l 537 973 l 567 973 l 572 975 l 576 973 l 593 975 l 610 972 l 613 975 l 728 975 l 726 960 l 726 947 l 725 945 l 726 944 l 726 943 q 733 872 728 872 l 732 871 l 733 861 l 733 825 l 734 819 l 733 815 l 734 801 l 733 766 l 733 747 l 734 741 l 733 739 l 733 738 l 734 736 l 733 723 l 733 710 l 730 557 l 733 539 l 733 484 l 734 469 l 733 461 l 734 391 l 732 327 l 733 325 l 732 321 l 730 255 l 736 28 l 736 27 l 734 20 l 736 12 l 736 -86 l 734 -87 l 736 -89 l 736 -92 l 734 -103 l 736 -114 l 736 -119 l 734 -120 l 736 -121 l 736 -123 l 734 -127 l 736 -141 l 736 -156 l 734 -162 l 736 -163 l 734 -187 l 734 -236 l 733 -236 l 608 -114 l 606 -113 l 606 -111 l 608 -107 q 504 -15 565 -75 l 490 3 l 462 2 l 395 2 l 354 1 l 353 2 l 351 2 l 343 1 l 338 1 l 319 2 l 301 1 l 295 1 l 294 2 l 292 1 l 186 1 l 178 2 l 171 1 l 170 2 l 162 1 l 122 1 q 12 72 42 1 q 3 153 4 79 l 4 155 l 3 161 l 3 172 l 7 176 l 3 233 l 4 277 l 3 298 l 5 346 l 3 355 l 3 385 l 4 393 l 3 401 l 3 404 l 4 440 l 1 542 l 5 573 q 0 690 2 597 l 1 692 l 0 699 l 0 714 l 1 720 l 0 726 l 0 732 l 1 734 l 0 735 l 0 738 l 1 742 l 0 749 l 0 760 l 1 762 l 0 763 l 0 780 l 1 790 l 0 797 l 1 878 l 0 906 l 1 906 l 0 907 l 0 966 q 25 970 0 970 l 29 970 l 31 969 l 42 972 l 45 972 l 45 970 l 68 972 l 112 972 l 117 970 l 123 972 l 165 972 l 175 973 l 188 972 l 243 972 l 242 970 l 242 935 q 238 926 238 930 l 239 926 l 241 927 l 242 927 l 242 913 q 239 878 242 878 l 242 867 l 242 801 l 243 800 l 242 798 l 242 797 l 243 790 l 242 781 l 242 776 l 243 772 l 242 764 l 242 751 l 243 738 l 242 731 l 243 730 l 243 728 l 242 724 l 243 724 l 242 723 l 242 715 l 243 711 l 242 705 l 242 673 l 243 665 l 242 660 l 243 660 l 242 659 l 243 636 l 242 557 l 242 534 l 243 528 l 242 524 l 243 522 l 242 515 l 242 503 l 243 502 l 242 500 l 243 490 l 243 473 l 242 434 l 245 408 l 245 367 l 243 357 l 245 345 l 245 243 l 239 235 l 248 234 l 252 237 l 256 234 l 260 235 l 274 234 l 271 226 l 273 226 l 284 235 l 288 234 l 304 237 l 309 235 l 311 237 l 312 237 l 316 235 l 323 237 l 334 235 l 334 237 l 336 235 l 345 235 l 358 237 l 364 235 l 387 237 l 392 235 l 393 237 l 395 237 l 396 235 l 397 235 l 409 237 l 417 235 l 418 237 l 420 237 l 428 235 l 433 237 l 439 235 l 454 237 q 458 230 455 230 l 466 237 l 494 237 l 494 239 l 491 261 l 491 267 q 498 269 498 267 l 491 271 l 490 309 l 490 322 l 487 507 l 486 509 l 486 510 l 487 511 l 487 513 l 486 518 l 487 542 l 487 591 l 488 610 l 487 612 l 487 614 l 488 619 l 487 661 l 487 676 q 490 797 487 766 l 488 802 l 490 850 l 488 966 l 492 972 l 494 972 l 536 973 l 536 975 m 235 922 l 234 914 l 234 913 l 235 913 l 237 920 l 237 922 l 235 922 z "},"v":{"ha":846,"x_min":0,"x_max":740,"o":"m 658 983 l 663 981 l 720 983 l 734 983 l 732 953 q 734 848 734 916 l 734 513 l 736 485 l 734 485 l 736 484 l 736 454 l 737 418 l 736 418 l 737 416 l 737 327 l 739 318 l 737 317 l 739 260 l 739 137 l 740 131 l 734 119 l 739 119 q 718 50 739 80 q 643 4 705 25 l 626 1 l 621 4 l 616 3 l 592 4 l 503 4 l 490 3 l 476 4 l 408 4 l 401 3 l 401 4 l 399 3 l 392 4 l 262 5 l 258 4 l 258 5 l 257 4 l 255 4 l 109 0 q 45 23 88 12 q 7 83 18 47 l 1 109 l 3 136 l 0 217 l 1 224 l 0 225 l 1 235 l 1 241 l 0 257 l 1 258 l 0 275 l 0 288 q 5 404 0 359 l 4 408 l 3 406 l 0 406 l 0 545 l 4 621 l 0 622 l 0 793 l 3 830 l 0 842 l 0 961 q 40 975 0 975 l 98 977 l 154 977 l 154 974 l 155 974 l 155 977 l 239 977 l 241 970 l 241 922 l 239 920 l 241 918 l 243 751 l 243 690 l 244 689 l 243 684 l 244 670 l 243 666 l 244 649 l 244 559 l 245 551 l 244 545 l 245 543 l 245 542 l 244 535 l 245 530 l 244 530 l 245 529 l 244 525 l 245 414 l 244 405 l 245 392 l 245 347 l 247 301 l 245 301 l 247 300 l 247 294 l 245 288 l 247 287 l 247 286 l 245 271 l 239 271 l 233 269 l 233 268 l 245 268 l 245 258 l 247 250 l 245 244 l 247 238 l 257 238 l 264 237 l 273 238 l 284 238 l 307 235 l 321 237 l 327 235 l 341 238 l 342 237 l 401 241 l 410 239 l 415 241 l 420 239 l 462 241 l 478 241 l 489 244 l 495 243 l 498 245 l 494 261 l 494 274 l 507 277 l 507 279 q 494 284 494 280 l 494 471 l 492 505 l 494 517 l 492 530 l 494 532 l 492 539 l 492 552 l 494 553 l 492 557 l 492 560 l 494 560 l 492 570 l 492 576 l 494 608 l 492 649 l 492 710 l 490 726 l 492 732 l 490 736 l 492 746 l 490 756 l 492 764 l 490 772 l 492 773 l 490 780 l 490 979 l 492 979 l 572 981 l 572 980 l 573 981 l 576 981 l 578 980 l 579 980 l 578 979 l 578 974 l 582 974 q 622 981 589 981 l 643 981 l 658 983 z "}}}
